M48
; DRILL file {KiCad (7.0.0)} date Sat 01 Apr 2023 11:27:24 AM CEST
; FORMAT={-:-/ absolute / inch / decimal}
; #@! TF.CreationDate,2023-04-01T11:27:24+02:00
; #@! TF.GenerationSoftware,Kicad,Pcbnew,(7.0.0)
; #@! TF.FileFunction,Plated,1,2,PTH
FMAT,2
INCH
; #@! TA.AperFunction,Plated,PTH,ViaDrill
T1C0.0118
; #@! TA.AperFunction,Plated,PTH,ComponentDrill
T2C0.0394
%
G90
G05
T1
X4.3Y-2.9
X4.425Y-3.1
X4.425Y-3.175
X4.425Y-3.225
X4.575Y-3.275
X4.575Y-3.325
X4.65Y-4.425
X4.725Y-4.45
X4.75Y-4.525
X4.8534Y-4.2672
X4.8734Y-4.0472
X4.8927Y-3.8076
X4.8927Y-3.8393
X4.9312Y-3.7795
X4.966Y-3.7017
X4.974Y-3.6631
X5.0175Y-3.6236
X5.0215Y-3.6937
X5.0276Y-3.5849
X5.0294Y-3.52
X5.0461Y-3.4917
X5.0472Y-3.6212
X5.0473Y-3.6506
X5.1423Y-3.8713
X5.1733Y-3.8719
X5.2153Y-3.8715
X5.225Y-2.65
X5.2606Y-3.8712
X5.3241Y-3.8719
T2
X4.21Y-1.6516
X4.21Y-1.7516
X4.21Y-1.8516
X4.21Y-1.9516
X4.21Y-2.0516
X4.21Y-2.1516
X4.21Y-2.2516
X4.21Y-2.3516
X4.21Y-2.4516
X4.21Y-2.5516
X4.21Y-2.6516
X4.21Y-2.7516
X4.21Y-2.8516
X4.21Y-2.9516
X4.21Y-3.0516
X4.21Y-3.1516
X4.21Y-3.2516
X4.21Y-3.3516
X4.21Y-3.4516
X4.21Y-3.5516
X4.21Y-3.6516
X4.21Y-3.7516
X4.21Y-3.8516
X4.21Y-3.9516
X4.21Y-4.0516
X4.21Y-4.1516
X4.21Y-4.2516
X4.21Y-4.3516
X4.21Y-4.4516
X4.21Y-4.5516
X4.21Y-4.6516
X4.21Y-4.7516
X4.21Y-4.8516
X4.21Y-4.9516
X4.21Y-5.0516
X4.21Y-5.1516
X4.21Y-5.2516
X4.21Y-5.3516
X4.21Y-5.4516
T0
M30
