G04 #@! TF.GenerationSoftware,KiCad,Pcbnew,(7.0.0)*
G04 #@! TF.CreationDate,2023-04-01T10:31:45+02:00*
G04 #@! TF.ProjectId,ED060SC4-eink-connector,45443036-3053-4433-942d-65696e6b2d63,rev?*
G04 #@! TF.SameCoordinates,Original*
G04 #@! TF.FileFunction,Paste,Top*
G04 #@! TF.FilePolarity,Positive*
%FSLAX46Y46*%
G04 Gerber Fmt 4.6, Leading zero omitted, Abs format (unit mm)*
G04 Created by KiCad (PCBNEW (7.0.0)) date 2023-04-01 10:31:45*
%MOMM*%
%LPD*%
G01*
G04 APERTURE LIST*
%ADD10R,0.800000X0.300000*%
%ADD11R,1.000000X0.300000*%
%ADD12R,0.950000X0.400000*%
G04 APERTURE END LIST*
D10*
X135079999Y-95869999D03*
D11*
X132079999Y-95569999D03*
D10*
X135079999Y-95269999D03*
D11*
X132079999Y-94969999D03*
D10*
X135079999Y-94669999D03*
D11*
X132079999Y-94369999D03*
D10*
X135079999Y-94069999D03*
D11*
X132079999Y-93769999D03*
D10*
X135079999Y-93469999D03*
D11*
X132079999Y-93169999D03*
D10*
X135079999Y-92869999D03*
D11*
X132079999Y-92569999D03*
D10*
X135079999Y-92269999D03*
D11*
X132079999Y-91969999D03*
D10*
X135079999Y-91669999D03*
D11*
X132079999Y-91369999D03*
D10*
X135079999Y-91069999D03*
D11*
X132079999Y-90769999D03*
D10*
X135079999Y-90469999D03*
D11*
X132079999Y-90169999D03*
D10*
X135079999Y-89869999D03*
D11*
X132079999Y-89569999D03*
D10*
X135079999Y-89269999D03*
D11*
X132079999Y-88969999D03*
D10*
X135079999Y-88669999D03*
D11*
X132079999Y-88369999D03*
D10*
X135079999Y-88069999D03*
D11*
X132079999Y-87769999D03*
D10*
X135079999Y-87469999D03*
D11*
X132079999Y-87169999D03*
D10*
X135079999Y-86869999D03*
D11*
X132079999Y-86569999D03*
D10*
X135079999Y-86269999D03*
D11*
X132079999Y-85969999D03*
D10*
X135079999Y-85669999D03*
D11*
X132079999Y-85369999D03*
D10*
X135079999Y-85069999D03*
D11*
X132079999Y-84769999D03*
D10*
X135079999Y-84469999D03*
D12*
X134804999Y-96569999D03*
X134804999Y-83769999D03*
M02*
