G04 #@! TF.GenerationSoftware,KiCad,Pcbnew,(7.0.0)*
G04 #@! TF.CreationDate,2023-04-01T11:17:18+02:00*
G04 #@! TF.ProjectId,ED060SC4-eink-connector,45443036-3053-4433-942d-65696e6b2d63,rev?*
G04 #@! TF.SameCoordinates,Original*
G04 #@! TF.FileFunction,Copper,L1,Top*
G04 #@! TF.FilePolarity,Positive*
%FSLAX46Y46*%
G04 Gerber Fmt 4.6, Leading zero omitted, Abs format (unit mm)*
G04 Created by KiCad (PCBNEW (7.0.0)) date 2023-04-01 11:17:18*
%MOMM*%
%LPD*%
G01*
G04 APERTURE LIST*
G04 #@! TA.AperFunction,SMDPad,CuDef*
%ADD10R,0.800000X0.300000*%
G04 #@! TD*
G04 #@! TA.AperFunction,SMDPad,CuDef*
%ADD11R,1.000000X0.300000*%
G04 #@! TD*
G04 #@! TA.AperFunction,SMDPad,CuDef*
%ADD12R,0.950000X0.400000*%
G04 #@! TD*
G04 #@! TA.AperFunction,ComponentPad*
%ADD13R,1.700000X1.700000*%
G04 #@! TD*
G04 #@! TA.AperFunction,ComponentPad*
%ADD14O,1.700000X1.700000*%
G04 #@! TD*
G04 #@! TA.AperFunction,ViaPad*
%ADD15C,0.600000*%
G04 #@! TD*
G04 #@! TA.AperFunction,Conductor*
%ADD16C,0.127000*%
G04 #@! TD*
G04 APERTURE END LIST*
D10*
X135079999Y-95869999D03*
D11*
X132079999Y-95569999D03*
D10*
X135079999Y-95269999D03*
D11*
X132079999Y-94969999D03*
D10*
X135079999Y-94669999D03*
D11*
X132079999Y-94369999D03*
D10*
X135079999Y-94069999D03*
D11*
X132079999Y-93769999D03*
D10*
X135079999Y-93469999D03*
D11*
X132079999Y-93169999D03*
D10*
X135079999Y-92869999D03*
D11*
X132079999Y-92569999D03*
D10*
X135079999Y-92269999D03*
D11*
X132079999Y-91969999D03*
D10*
X135079999Y-91669999D03*
D11*
X132079999Y-91369999D03*
D10*
X135079999Y-91069999D03*
D11*
X132079999Y-90769999D03*
D10*
X135079999Y-90469999D03*
D11*
X132079999Y-90169999D03*
D10*
X135079999Y-89869999D03*
D11*
X132079999Y-89569999D03*
D10*
X135079999Y-89269999D03*
D11*
X132079999Y-88969999D03*
D10*
X135079999Y-88669999D03*
D11*
X132079999Y-88369999D03*
D10*
X135079999Y-88069999D03*
D11*
X132079999Y-87769999D03*
D10*
X135079999Y-87469999D03*
D11*
X132079999Y-87169999D03*
D10*
X135079999Y-86869999D03*
D11*
X132079999Y-86569999D03*
D10*
X135079999Y-86269999D03*
D11*
X132079999Y-85969999D03*
D10*
X135079999Y-85669999D03*
D11*
X132079999Y-85369999D03*
D10*
X135079999Y-85069999D03*
D11*
X132079999Y-84769999D03*
D10*
X135079999Y-84469999D03*
D12*
X134804999Y-96569999D03*
X134804999Y-83769999D03*
D13*
X106933999Y-41949999D03*
D14*
X106933999Y-44489999D03*
X106933999Y-47029999D03*
X106933999Y-49569999D03*
X106933999Y-52109999D03*
X106933999Y-54649999D03*
X106933999Y-57189999D03*
X106933999Y-59729999D03*
X106933999Y-62269999D03*
X106933999Y-64809999D03*
X106933999Y-67349999D03*
X106933999Y-69889999D03*
X106933999Y-72429999D03*
X106933999Y-74969999D03*
X106933999Y-77509999D03*
X106933999Y-80049999D03*
X106933999Y-82589999D03*
X106933999Y-85129999D03*
X106933999Y-87669999D03*
X106933999Y-90209999D03*
X106933999Y-92749999D03*
X106933999Y-95289999D03*
X106933999Y-97829999D03*
X106933999Y-100369999D03*
X106933999Y-102909999D03*
X106933999Y-105449999D03*
X106933999Y-107989999D03*
X106933999Y-110529999D03*
X106933999Y-113069999D03*
X106933999Y-115609999D03*
X106933999Y-118149999D03*
X106933999Y-120689999D03*
X106933999Y-123229999D03*
X106933999Y-125769999D03*
X106933999Y-128309999D03*
X106933999Y-130849999D03*
X106933999Y-133389999D03*
X106933999Y-135929999D03*
X106933999Y-138469999D03*
D15*
X116205000Y-84455000D03*
X120650000Y-114935000D03*
X132715000Y-67310000D03*
X112395000Y-80645000D03*
X120015000Y-113030000D03*
X112395000Y-78740000D03*
X116205000Y-83185000D03*
X109220000Y-73660000D03*
X112395000Y-81915000D03*
X118110000Y-112395000D03*
X128170800Y-88688500D03*
X127746700Y-89407500D03*
X127546100Y-93819300D03*
X127700600Y-91057400D03*
X135231500Y-98347500D03*
X128200300Y-92726400D03*
X128199400Y-91978500D03*
X133620300Y-98329600D03*
X127443400Y-92038700D03*
X132468400Y-98335400D03*
X126340800Y-93042600D03*
X131401100Y-98347400D03*
X126136500Y-94023900D03*
X130614900Y-98330200D03*
X125252100Y-95998500D03*
X124275800Y-97517700D03*
X124275800Y-96714300D03*
X123785100Y-102798300D03*
X123275700Y-108387700D03*
D16*
X137834100Y-93106500D02*
X135670600Y-95270000D01*
X106934000Y-48070600D02*
X137834100Y-78970700D01*
X135080000Y-95270000D02*
X135670600Y-95270000D01*
X137834100Y-78970700D02*
X137834100Y-93106500D01*
X106934000Y-47030000D02*
X106934000Y-48070600D01*
X105893300Y-42929000D02*
X105893300Y-40946400D01*
X138367300Y-95975200D02*
X135502100Y-98840400D01*
X132080000Y-95570000D02*
X131389400Y-95570000D01*
X138367300Y-71389300D02*
X138367300Y-95975200D01*
X130117700Y-98610400D02*
X130117700Y-96841700D01*
X107887300Y-40909300D02*
X138367300Y-71389300D01*
X135502100Y-98840400D02*
X130347700Y-98840400D01*
X106413700Y-43449400D02*
X105893300Y-42929000D01*
X130117700Y-96841700D02*
X131389400Y-95570000D01*
X105930400Y-40909300D02*
X107887300Y-40909300D01*
X106934000Y-44490000D02*
X106934000Y-43449400D01*
X106934000Y-43449400D02*
X106413700Y-43449400D01*
X105893300Y-40946400D02*
X105930400Y-40909300D01*
X130347700Y-98840400D02*
X130117700Y-98610400D01*
X135080000Y-95870000D02*
X135670600Y-95870000D01*
X106934000Y-42990600D02*
X138092700Y-74149300D01*
X138092700Y-74149300D02*
X138092700Y-93447900D01*
X138092700Y-93447900D02*
X135670600Y-95870000D01*
X106934000Y-41950000D02*
X106934000Y-42990600D01*
X125329600Y-91130900D02*
X125329600Y-94305900D01*
X125329600Y-94305900D02*
X125993700Y-94970000D01*
X128170800Y-88688500D02*
X127772000Y-88688500D01*
X125993700Y-94970000D02*
X132080000Y-94970000D01*
X127772000Y-88688500D02*
X125329600Y-91130900D01*
X135080000Y-94670000D02*
X135670600Y-94670000D01*
X137577600Y-82753600D02*
X137577600Y-92763000D01*
X106934000Y-52110000D02*
X106934000Y-53150600D01*
X137577600Y-92763000D02*
X135670600Y-94670000D01*
X107974600Y-53150600D02*
X137577600Y-82753600D01*
X106934000Y-53150600D02*
X107974600Y-53150600D01*
X132080000Y-94370000D02*
X131389400Y-94370000D01*
X131194900Y-94564500D02*
X131389400Y-94370000D01*
X125590300Y-91563900D02*
X125590300Y-94171700D01*
X125983100Y-94564500D02*
X131194900Y-94564500D01*
X125590300Y-94171700D02*
X125983100Y-94564500D01*
X127746700Y-89407500D02*
X125590300Y-91563900D01*
X106934000Y-57190000D02*
X111554300Y-57190000D01*
X137319300Y-92421300D02*
X135670600Y-94070000D01*
X135080000Y-94070000D02*
X135670600Y-94070000D01*
X111554300Y-57190000D02*
X137319300Y-82955000D01*
X137319300Y-82955000D02*
X137319300Y-92421300D01*
X131340100Y-93819300D02*
X127546100Y-93819300D01*
X132080000Y-93770000D02*
X131389400Y-93770000D01*
X131389400Y-93770000D02*
X131340100Y-93819300D01*
X135080000Y-93470000D02*
X135670600Y-93470000D01*
X116274800Y-62270000D02*
X137065100Y-83060300D01*
X137065100Y-83060300D02*
X137065100Y-92075500D01*
X137065100Y-92075500D02*
X135670600Y-93470000D01*
X106934000Y-62270000D02*
X116274800Y-62270000D01*
X132080000Y-93170000D02*
X131389400Y-93170000D01*
X131342400Y-93217000D02*
X127908600Y-93217000D01*
X126946600Y-91811400D02*
X127700600Y-91057400D01*
X126946600Y-92255000D02*
X126946600Y-91811400D01*
X131389400Y-93170000D02*
X131342400Y-93217000D01*
X127908600Y-93217000D02*
X126946600Y-92255000D01*
X134139300Y-97255300D02*
X134139300Y-93220100D01*
X134139300Y-93220100D02*
X134489400Y-92870000D01*
X135231500Y-98347500D02*
X134139300Y-97255300D01*
X135080000Y-92870000D02*
X134489400Y-92870000D01*
X128356700Y-92570000D02*
X128200300Y-92726400D01*
X131389400Y-92570000D02*
X128356700Y-92570000D01*
X132080000Y-92570000D02*
X131389400Y-92570000D01*
X106934000Y-72430000D02*
X107974600Y-72430000D01*
X135080000Y-92270000D02*
X135670600Y-92270000D01*
X136766500Y-91174100D02*
X135670600Y-92270000D01*
X136766500Y-83143400D02*
X136766500Y-91174100D01*
X107974600Y-72430000D02*
X126053100Y-72430000D01*
X126053100Y-72430000D02*
X136766500Y-83143400D01*
X132080000Y-91970000D02*
X128207900Y-91970000D01*
X128207900Y-91970000D02*
X128199400Y-91978500D01*
X134489400Y-91670000D02*
X133620300Y-92539100D01*
X133620300Y-92539100D02*
X133620300Y-98329600D01*
X135080000Y-91670000D02*
X134489400Y-91670000D01*
X128112100Y-91370000D02*
X127443400Y-92038700D01*
X131389400Y-91370000D02*
X128112100Y-91370000D01*
X132080000Y-91370000D02*
X131389400Y-91370000D01*
X135080000Y-91070000D02*
X134489400Y-91070000D01*
X133326700Y-92232700D02*
X134489400Y-91070000D01*
X133326700Y-97477100D02*
X133326700Y-92232700D01*
X132468400Y-98335400D02*
X133326700Y-97477100D01*
X126340800Y-91723500D02*
X126340800Y-93042600D01*
X127501300Y-90563000D02*
X126340800Y-91723500D01*
X131389400Y-90770000D02*
X131182400Y-90563000D01*
X131182400Y-90563000D02*
X127501300Y-90563000D01*
X132080000Y-90770000D02*
X131389400Y-90770000D01*
X135080000Y-90470000D02*
X134489400Y-90470000D01*
X133024900Y-91934500D02*
X133024900Y-96723600D01*
X134489400Y-90470000D02*
X133024900Y-91934500D01*
X133024900Y-96723600D02*
X131401100Y-98347400D01*
X130961000Y-89998400D02*
X127706600Y-89998400D01*
X127706600Y-89998400D02*
X125850100Y-91854900D01*
X125850100Y-91854900D02*
X125850100Y-93737500D01*
X131389400Y-89570000D02*
X130961000Y-89998400D01*
X132080000Y-89570000D02*
X131389400Y-89570000D01*
X125850100Y-93737500D02*
X126136500Y-94023900D01*
X132770700Y-96174400D02*
X132770700Y-90988700D01*
X132770700Y-90988700D02*
X134489400Y-89270000D01*
X135080000Y-89270000D02*
X134489400Y-89270000D01*
X130614900Y-98330200D02*
X132770700Y-96174400D01*
X127913700Y-88187500D02*
X125074500Y-91026700D01*
X132080000Y-88970000D02*
X129554400Y-88970000D01*
X128771900Y-88187500D02*
X127913700Y-88187500D01*
X129554400Y-88970000D02*
X128771900Y-88187500D01*
X125074500Y-95820900D02*
X125252100Y-95998500D01*
X125074500Y-91026700D02*
X125074500Y-95820900D01*
X135855900Y-82592300D02*
X128913100Y-82592300D01*
X135670600Y-88070000D02*
X136512300Y-87228300D01*
X136512300Y-87228300D02*
X136512300Y-83248700D01*
X128913100Y-82592300D02*
X107974600Y-103530800D01*
X135080000Y-88070000D02*
X135670600Y-88070000D01*
X107974600Y-103530800D02*
X107974600Y-105908800D01*
X136512300Y-83248700D02*
X135855900Y-82592300D01*
X106934000Y-107990000D02*
X106934000Y-106949400D01*
X107974600Y-105908800D02*
X106934000Y-106949400D01*
X127971900Y-87770000D02*
X124709300Y-91032600D01*
X124766400Y-96206500D02*
X124766400Y-97027100D01*
X124709300Y-96149400D02*
X124766400Y-96206500D01*
X124709300Y-91032600D02*
X124709300Y-96149400D01*
X132080000Y-87770000D02*
X131389400Y-87770000D01*
X124766400Y-97027100D02*
X124275800Y-97517700D01*
X131389400Y-87770000D02*
X127971900Y-87770000D01*
X129042500Y-82846500D02*
X135651800Y-82846500D01*
X135651800Y-82846500D02*
X136207100Y-83401800D01*
X135080000Y-87470000D02*
X135670600Y-87470000D01*
X106934000Y-113070000D02*
X106934000Y-112029400D01*
X136207100Y-83401800D02*
X136207100Y-86933500D01*
X108228800Y-103660200D02*
X129042500Y-82846500D01*
X108228800Y-110734600D02*
X108228800Y-103660200D01*
X136207100Y-86933500D02*
X135670600Y-87470000D01*
X106934000Y-112029400D02*
X108228800Y-110734600D01*
X131389400Y-87170000D02*
X128212600Y-87170000D01*
X124275800Y-91106800D02*
X124275800Y-96714300D01*
X132080000Y-87170000D02*
X131389400Y-87170000D01*
X128212600Y-87170000D02*
X124275800Y-91106800D01*
X135951100Y-86589500D02*
X135670600Y-86870000D01*
X135080000Y-86870000D02*
X135670600Y-86870000D01*
X117346800Y-106696600D02*
X117346800Y-94923200D01*
X135951100Y-83600100D02*
X135951100Y-86589500D01*
X117346800Y-94923200D02*
X129155500Y-83114500D01*
X106934000Y-118150000D02*
X106934000Y-117109400D01*
X106934000Y-117109400D02*
X117346800Y-106696600D01*
X135465500Y-83114500D02*
X135951100Y-83600100D01*
X129155500Y-83114500D02*
X135465500Y-83114500D01*
X131389400Y-86570000D02*
X128453300Y-86570000D01*
X123785100Y-91238200D02*
X123785100Y-102798300D01*
X128453300Y-86570000D02*
X123785100Y-91238200D01*
X132080000Y-86570000D02*
X131389400Y-86570000D01*
X135670600Y-86270000D02*
X135670600Y-83691000D01*
X121621800Y-91098300D02*
X121621800Y-107501600D01*
X106934000Y-123230000D02*
X106934000Y-122189400D01*
X121621800Y-107501600D02*
X106934000Y-122189400D01*
X129340700Y-83379400D02*
X121621800Y-91098300D01*
X135080000Y-86270000D02*
X135670600Y-86270000D01*
X135359000Y-83379400D02*
X129340700Y-83379400D01*
X135670600Y-83691000D02*
X135359000Y-83379400D01*
X132080000Y-85970000D02*
X128694000Y-85970000D01*
X123275700Y-91388300D02*
X123275700Y-108387700D01*
X128694000Y-85970000D02*
X123275700Y-91388300D01*
X134016400Y-85670000D02*
X132775700Y-84429300D01*
X132775700Y-84429300D02*
X129089300Y-84429300D01*
X135080000Y-85670000D02*
X134016400Y-85670000D01*
X129089300Y-84429300D02*
X122130100Y-91388500D01*
X122130100Y-112073300D02*
X106934000Y-127269400D01*
X122130100Y-91388500D02*
X122130100Y-112073300D01*
X106934000Y-128310000D02*
X106934000Y-127269400D01*
X106934000Y-129809400D02*
X107324200Y-129809400D01*
X106934000Y-130850000D02*
X106934000Y-129809400D01*
X107324200Y-129809400D02*
X122765500Y-114368100D01*
X122765500Y-91531100D02*
X128926600Y-85370000D01*
X122765500Y-114368100D02*
X122765500Y-91531100D01*
X128926600Y-85370000D02*
X132080000Y-85370000D01*
X106797500Y-124386700D02*
X105612700Y-125571500D01*
X106476600Y-137005600D02*
X107332200Y-137005600D01*
X107312500Y-124386700D02*
X106797500Y-124386700D01*
X135080000Y-85070000D02*
X134167000Y-85070000D01*
X107993000Y-135489600D02*
X106934000Y-134430600D01*
X105612700Y-136141700D02*
X106476600Y-137005600D01*
X128981100Y-84160700D02*
X121875900Y-91265900D01*
X121875900Y-91265900D02*
X121875900Y-109823300D01*
X107993000Y-136344800D02*
X107993000Y-135489600D01*
X134167000Y-85070000D02*
X133257700Y-84160700D01*
X121875900Y-109823300D02*
X107312500Y-124386700D01*
X133257700Y-84160700D02*
X128981100Y-84160700D01*
X106934000Y-133390000D02*
X106934000Y-134430600D01*
X107332200Y-137005600D02*
X107993000Y-136344800D01*
X105612700Y-125571500D02*
X105612700Y-136141700D01*
X105876700Y-130403500D02*
X105876700Y-133832100D01*
X132080000Y-84770000D02*
X129115700Y-84770000D01*
X105876700Y-133832100D02*
X106934000Y-134889400D01*
X106934000Y-135930000D02*
X106934000Y-134889400D01*
X107372600Y-129360600D02*
X106919600Y-129360600D01*
X122511300Y-91374400D02*
X122511300Y-114221900D01*
X106919600Y-129360600D02*
X105876700Y-130403500D01*
X122511300Y-114221900D02*
X107372600Y-129360600D01*
X129115700Y-84770000D02*
X122511300Y-91374400D01*
G04 #@! TA.AperFunction,Conductor*
G36*
X122269185Y-112352258D02*
G01*
X122306785Y-112396281D01*
X122320300Y-112452576D01*
X122320300Y-114091423D01*
X122310861Y-114138876D01*
X122283981Y-114179104D01*
X108122852Y-128340231D01*
X108062339Y-128373537D01*
X107993396Y-128369301D01*
X107937416Y-128328838D01*
X107911768Y-128264705D01*
X107897357Y-128118376D01*
X107841462Y-127934117D01*
X107796077Y-127849209D01*
X107753568Y-127769678D01*
X107753565Y-127769674D01*
X107750694Y-127764302D01*
X107628541Y-127615459D01*
X107479698Y-127493306D01*
X107474327Y-127490435D01*
X107474321Y-127490431D01*
X107315257Y-127405410D01*
X107315253Y-127405408D01*
X107310013Y-127402607D01*
X107310011Y-127402606D01*
X107309883Y-127402538D01*
X107309893Y-127402518D01*
X107263540Y-127368137D01*
X107237780Y-127313664D01*
X107240738Y-127253480D01*
X107271715Y-127201798D01*
X122108618Y-112364895D01*
X122157982Y-112334645D01*
X122215698Y-112330103D01*
X122269185Y-112352258D01*
G37*
G04 #@! TD.AperFunction*
G04 #@! TA.AperFunction,Conductor*
G36*
X121887985Y-110229259D02*
G01*
X121925585Y-110273282D01*
X121939100Y-110329577D01*
X121939100Y-111942823D01*
X121929661Y-111990276D01*
X121902781Y-112030504D01*
X108123767Y-125809516D01*
X108063254Y-125842822D01*
X107994311Y-125838586D01*
X107938331Y-125798123D01*
X107912683Y-125733989D01*
X107898640Y-125591410D01*
X107897357Y-125578376D01*
X107841462Y-125394117D01*
X107750694Y-125224302D01*
X107628541Y-125075459D01*
X107479698Y-124953306D01*
X107474327Y-124950435D01*
X107474321Y-124950431D01*
X107315258Y-124865411D01*
X107309883Y-124862538D01*
X107170838Y-124820358D01*
X107112548Y-124782231D01*
X107084007Y-124718689D01*
X107094228Y-124649786D01*
X107139985Y-124597265D01*
X107206838Y-124577700D01*
X107278708Y-124577700D01*
X107280304Y-124577789D01*
X107290565Y-124581380D01*
X107316303Y-124578479D01*
X107323939Y-124578050D01*
X107327045Y-124577700D01*
X107334021Y-124577700D01*
X107340820Y-124576147D01*
X107343948Y-124575795D01*
X107351471Y-124574516D01*
X107377206Y-124571618D01*
X107386639Y-124565690D01*
X107397503Y-124563211D01*
X107408428Y-124554497D01*
X107408430Y-124554497D01*
X107417754Y-124547061D01*
X107423967Y-124542652D01*
X107426430Y-124540687D01*
X107432340Y-124536975D01*
X107437272Y-124532041D01*
X107439724Y-124530087D01*
X107445400Y-124525012D01*
X107465670Y-124508849D01*
X107470387Y-124499051D01*
X107471441Y-124497872D01*
X121727418Y-110241896D01*
X121776782Y-110211646D01*
X121834498Y-110207104D01*
X121887985Y-110229259D01*
G37*
G04 #@! TD.AperFunction*
G04 #@! TA.AperFunction,Conductor*
G36*
X121633785Y-107907659D02*
G01*
X121671385Y-107951682D01*
X121684900Y-108007977D01*
X121684900Y-109692823D01*
X121675461Y-109740276D01*
X121648581Y-109780504D01*
X108126977Y-123302106D01*
X108066464Y-123335412D01*
X107997522Y-123331176D01*
X107941541Y-123290714D01*
X107915893Y-123226579D01*
X107897954Y-123044440D01*
X107897357Y-123038376D01*
X107841462Y-122854117D01*
X107750694Y-122684302D01*
X107628541Y-122535459D01*
X107479698Y-122413306D01*
X107474327Y-122410435D01*
X107474321Y-122410431D01*
X107315257Y-122325410D01*
X107315253Y-122325408D01*
X107310013Y-122322607D01*
X107310011Y-122322606D01*
X107309883Y-122322538D01*
X107309893Y-122322518D01*
X107263540Y-122288137D01*
X107237780Y-122233664D01*
X107240738Y-122173480D01*
X107271715Y-122121798D01*
X121473218Y-107920296D01*
X121522582Y-107890046D01*
X121580298Y-107885504D01*
X121633785Y-107907659D01*
G37*
G04 #@! TD.AperFunction*
G04 #@! TA.AperFunction,Conductor*
G36*
X137831519Y-92896918D02*
G01*
X137882699Y-92942666D01*
X137901700Y-93008630D01*
X137901700Y-93317423D01*
X137892261Y-93364876D01*
X137865381Y-93405104D01*
X136184352Y-95086132D01*
X136127873Y-95118461D01*
X136062800Y-95117735D01*
X136007056Y-95084155D01*
X135975995Y-95026969D01*
X135970887Y-95005358D01*
X135926452Y-94886220D01*
X135918036Y-94870808D01*
X135906166Y-94854951D01*
X135883150Y-94801204D01*
X135887321Y-94742884D01*
X135917748Y-94692965D01*
X137688772Y-92921941D01*
X137689952Y-92920887D01*
X137699749Y-92916170D01*
X137704789Y-92909849D01*
X137763845Y-92885407D01*
X137831519Y-92896918D01*
G37*
G04 #@! TD.AperFunction*
G04 #@! TA.AperFunction,Conductor*
G36*
X108073818Y-41385046D02*
G01*
X108123181Y-41415296D01*
X138139981Y-71432096D01*
X138166861Y-71472324D01*
X138176300Y-71519777D01*
X138176300Y-73663423D01*
X138162785Y-73719718D01*
X138125185Y-73763741D01*
X138071698Y-73785896D01*
X138013982Y-73781354D01*
X137964619Y-73751104D01*
X107352696Y-43139181D01*
X107322446Y-43089818D01*
X107317904Y-43032102D01*
X107340059Y-42978615D01*
X107384082Y-42941015D01*
X107440377Y-42927500D01*
X107790464Y-42927500D01*
X107796558Y-42927500D01*
X107833748Y-42920102D01*
X107875922Y-42891922D01*
X107904102Y-42849748D01*
X107911500Y-42812558D01*
X107911500Y-41502977D01*
X107925015Y-41446682D01*
X107962615Y-41402659D01*
X108016102Y-41380504D01*
X108073818Y-41385046D01*
G37*
G04 #@! TD.AperFunction*
G04 #@! TA.AperFunction,Conductor*
G36*
X139627500Y-39397113D02*
G01*
X139672887Y-39442500D01*
X139689500Y-39504500D01*
X139689500Y-140835500D01*
X139672887Y-140897500D01*
X139627500Y-140942887D01*
X139565500Y-140959500D01*
X104909500Y-140959500D01*
X104847500Y-140942887D01*
X104802113Y-140897500D01*
X104785500Y-140835500D01*
X104785500Y-138470000D01*
X105951770Y-138470000D01*
X105952367Y-138476062D01*
X105970045Y-138655559D01*
X105970046Y-138655565D01*
X105970643Y-138661624D01*
X105972410Y-138667450D01*
X105972412Y-138667458D01*
X106024768Y-138840050D01*
X106024770Y-138840055D01*
X106026538Y-138845883D01*
X106029411Y-138851258D01*
X106114431Y-139010321D01*
X106114435Y-139010327D01*
X106117306Y-139015698D01*
X106239459Y-139164541D01*
X106388302Y-139286694D01*
X106393674Y-139289565D01*
X106393678Y-139289568D01*
X106473209Y-139332077D01*
X106558117Y-139377462D01*
X106742376Y-139433357D01*
X106934000Y-139452230D01*
X107125624Y-139433357D01*
X107309883Y-139377462D01*
X107479698Y-139286694D01*
X107628541Y-139164541D01*
X107750694Y-139015698D01*
X107841462Y-138845883D01*
X107897357Y-138661624D01*
X107916230Y-138470000D01*
X107914045Y-138447820D01*
X107897954Y-138284440D01*
X107897357Y-138278376D01*
X107841462Y-138094117D01*
X107750694Y-137924302D01*
X107628541Y-137775459D01*
X107479698Y-137653306D01*
X107474327Y-137650435D01*
X107474321Y-137650431D01*
X107315258Y-137565411D01*
X107309883Y-137562538D01*
X107304055Y-137560770D01*
X107304050Y-137560768D01*
X107131458Y-137508412D01*
X107131450Y-137508410D01*
X107125624Y-137506643D01*
X107119565Y-137506046D01*
X107119559Y-137506045D01*
X106940062Y-137488367D01*
X106934000Y-137487770D01*
X106927938Y-137488367D01*
X106748440Y-137506045D01*
X106748432Y-137506046D01*
X106742376Y-137506643D01*
X106736551Y-137508410D01*
X106736541Y-137508412D01*
X106563949Y-137560768D01*
X106563941Y-137560771D01*
X106558117Y-137562538D01*
X106552745Y-137565409D01*
X106552741Y-137565411D01*
X106393678Y-137650431D01*
X106393667Y-137650438D01*
X106388302Y-137653306D01*
X106383594Y-137657169D01*
X106383589Y-137657173D01*
X106244165Y-137771596D01*
X106244160Y-137771600D01*
X106239459Y-137775459D01*
X106235600Y-137780160D01*
X106235596Y-137780165D01*
X106121173Y-137919589D01*
X106121169Y-137919594D01*
X106117306Y-137924302D01*
X106114438Y-137929667D01*
X106114431Y-137929678D01*
X106029411Y-138088741D01*
X106029409Y-138088745D01*
X106026538Y-138094117D01*
X106024771Y-138099941D01*
X106024768Y-138099949D01*
X105972412Y-138272541D01*
X105972410Y-138272551D01*
X105970643Y-138278376D01*
X105970046Y-138284432D01*
X105970045Y-138284440D01*
X105952367Y-138463938D01*
X105951770Y-138470000D01*
X104785500Y-138470000D01*
X104785500Y-137227765D01*
X134035788Y-137227765D01*
X134036282Y-137232262D01*
X134036283Y-137232267D01*
X134064917Y-137492506D01*
X134064918Y-137492513D01*
X134065414Y-137497018D01*
X134066559Y-137501398D01*
X134066561Y-137501408D01*
X134082080Y-137560768D01*
X134133928Y-137759088D01*
X134135693Y-137763242D01*
X134135696Y-137763250D01*
X134204136Y-137924302D01*
X134239870Y-138008390D01*
X134242226Y-138012251D01*
X134242229Y-138012256D01*
X134378618Y-138235737D01*
X134380982Y-138239610D01*
X134554255Y-138447820D01*
X134557630Y-138450844D01*
X134557631Y-138450845D01*
X134662330Y-138544656D01*
X134755998Y-138628582D01*
X134981910Y-138778044D01*
X135227176Y-138893020D01*
X135486569Y-138971060D01*
X135754561Y-139010500D01*
X135955369Y-139010500D01*
X135957631Y-139010500D01*
X136160156Y-138995677D01*
X136424553Y-138936780D01*
X136677558Y-138840014D01*
X136913777Y-138707441D01*
X137128177Y-138541888D01*
X137316186Y-138346881D01*
X137473799Y-138126579D01*
X137597656Y-137885675D01*
X137685118Y-137629305D01*
X137734319Y-137362933D01*
X137744212Y-137092235D01*
X137714586Y-136822982D01*
X137646072Y-136560912D01*
X137540130Y-136311610D01*
X137399018Y-136080390D01*
X137225745Y-135872180D01*
X137120759Y-135778112D01*
X137027382Y-135694446D01*
X137027378Y-135694442D01*
X137024002Y-135691418D01*
X136798090Y-135541956D01*
X136793996Y-135540036D01*
X136793991Y-135540034D01*
X136556929Y-135428904D01*
X136556925Y-135428902D01*
X136552824Y-135426980D01*
X136548477Y-135425672D01*
X136548474Y-135425671D01*
X136297772Y-135350246D01*
X136297771Y-135350245D01*
X136293431Y-135348940D01*
X136288957Y-135348281D01*
X136288950Y-135348280D01*
X136029913Y-135310158D01*
X136029907Y-135310157D01*
X136025439Y-135309500D01*
X135822369Y-135309500D01*
X135820120Y-135309664D01*
X135820109Y-135309665D01*
X135624363Y-135323992D01*
X135624359Y-135323992D01*
X135619844Y-135324323D01*
X135615426Y-135325307D01*
X135615420Y-135325308D01*
X135359877Y-135382232D01*
X135359861Y-135382236D01*
X135355447Y-135383220D01*
X135351216Y-135384838D01*
X135351210Y-135384840D01*
X135106673Y-135478367D01*
X135106663Y-135478371D01*
X135102442Y-135479986D01*
X135098494Y-135482201D01*
X135098489Y-135482204D01*
X134870176Y-135610340D01*
X134870171Y-135610343D01*
X134866223Y-135612559D01*
X134862639Y-135615325D01*
X134862635Y-135615329D01*
X134655407Y-135775343D01*
X134655394Y-135775354D01*
X134651823Y-135778112D01*
X134648685Y-135781366D01*
X134648678Y-135781373D01*
X134466958Y-135969857D01*
X134466952Y-135969864D01*
X134463814Y-135973119D01*
X134461189Y-135976787D01*
X134461179Y-135976800D01*
X134308834Y-136189740D01*
X134308830Y-136189745D01*
X134306201Y-136193421D01*
X134304132Y-136197444D01*
X134304129Y-136197450D01*
X134184416Y-136430293D01*
X134184411Y-136430304D01*
X134182344Y-136434325D01*
X134180884Y-136438602D01*
X134180879Y-136438616D01*
X134096348Y-136686395D01*
X134096344Y-136686407D01*
X134094882Y-136690695D01*
X134094057Y-136695159D01*
X134094057Y-136695161D01*
X134046504Y-136952606D01*
X134046502Y-136952619D01*
X134045681Y-136957067D01*
X134045515Y-136961593D01*
X134045515Y-136961599D01*
X134036850Y-137198715D01*
X134035788Y-137227765D01*
X104785500Y-137227765D01*
X104785500Y-136119765D01*
X105418020Y-136119765D01*
X105419584Y-136133646D01*
X105419584Y-136133647D01*
X105420920Y-136145503D01*
X105421349Y-136153149D01*
X105421700Y-136156264D01*
X105421700Y-136163221D01*
X105423247Y-136170002D01*
X105423599Y-136173120D01*
X105424881Y-136180662D01*
X105426217Y-136192524D01*
X105426218Y-136192527D01*
X105427782Y-136206406D01*
X105433709Y-136215839D01*
X105436189Y-136226703D01*
X105444897Y-136237622D01*
X105444898Y-136237624D01*
X105452338Y-136246953D01*
X105456759Y-136253184D01*
X105458718Y-136255641D01*
X105462425Y-136261540D01*
X105467351Y-136266466D01*
X105469312Y-136268925D01*
X105474396Y-136274613D01*
X105481839Y-136283946D01*
X105490551Y-136294870D01*
X105500344Y-136299586D01*
X105501537Y-136300652D01*
X106317643Y-137116758D01*
X106318713Y-137117955D01*
X106323430Y-137127749D01*
X106334351Y-137136458D01*
X106343684Y-137143901D01*
X106349383Y-137148994D01*
X106351831Y-137150946D01*
X106356760Y-137155875D01*
X106362660Y-137159582D01*
X106365113Y-137161538D01*
X106371337Y-137165953D01*
X106391597Y-137182111D01*
X106402460Y-137184590D01*
X106411894Y-137190518D01*
X106437633Y-137193417D01*
X106445161Y-137194696D01*
X106448279Y-137195047D01*
X106455079Y-137196600D01*
X106462049Y-137196600D01*
X106465162Y-137196951D01*
X106472796Y-137197379D01*
X106498535Y-137200280D01*
X106508795Y-137196689D01*
X106510392Y-137196600D01*
X107298408Y-137196600D01*
X107300004Y-137196689D01*
X107310265Y-137200280D01*
X107336003Y-137197379D01*
X107343639Y-137196950D01*
X107346745Y-137196600D01*
X107353721Y-137196600D01*
X107360520Y-137195047D01*
X107363648Y-137194695D01*
X107371171Y-137193416D01*
X107396906Y-137190518D01*
X107406339Y-137184590D01*
X107417203Y-137182111D01*
X107428128Y-137173397D01*
X107428130Y-137173397D01*
X107437454Y-137165961D01*
X107443667Y-137161552D01*
X107446130Y-137159587D01*
X107452040Y-137155875D01*
X107456972Y-137150941D01*
X107459424Y-137148987D01*
X107465100Y-137143912D01*
X107485370Y-137127749D01*
X107490087Y-137117951D01*
X107491141Y-137116772D01*
X108104172Y-136503741D01*
X108105351Y-136502687D01*
X108115149Y-136497970D01*
X108131312Y-136477700D01*
X108136387Y-136472024D01*
X108138341Y-136469572D01*
X108143275Y-136464640D01*
X108146987Y-136458730D01*
X108148952Y-136456267D01*
X108153361Y-136450054D01*
X108160797Y-136440730D01*
X108160797Y-136440728D01*
X108169511Y-136429803D01*
X108171990Y-136418939D01*
X108177918Y-136409506D01*
X108180816Y-136383771D01*
X108182095Y-136376248D01*
X108182447Y-136373120D01*
X108184000Y-136366321D01*
X108184000Y-136359345D01*
X108184350Y-136356239D01*
X108184780Y-136348603D01*
X108187680Y-136322865D01*
X108184089Y-136312604D01*
X108184000Y-136311008D01*
X108184000Y-135523392D01*
X108184089Y-135521795D01*
X108187680Y-135511535D01*
X108184779Y-135485796D01*
X108184351Y-135478162D01*
X108184000Y-135475049D01*
X108184000Y-135468079D01*
X108182447Y-135461279D01*
X108182096Y-135458161D01*
X108180817Y-135450631D01*
X108179482Y-135438780D01*
X108177918Y-135424894D01*
X108171990Y-135415460D01*
X108169511Y-135404597D01*
X108153353Y-135384337D01*
X108148938Y-135378113D01*
X108146982Y-135375660D01*
X108143275Y-135369760D01*
X108138346Y-135364831D01*
X108136394Y-135362383D01*
X108131301Y-135356684D01*
X108123858Y-135347351D01*
X108115149Y-135336430D01*
X108105355Y-135331713D01*
X108104158Y-135330643D01*
X107271718Y-134498203D01*
X107240739Y-134446518D01*
X107237781Y-134386332D01*
X107263545Y-134331858D01*
X107309893Y-134297482D01*
X107309883Y-134297462D01*
X107309883Y-134297461D01*
X107479698Y-134206694D01*
X107628541Y-134084541D01*
X107750694Y-133935698D01*
X107841462Y-133765883D01*
X107897357Y-133581624D01*
X107916230Y-133390000D01*
X107897357Y-133198376D01*
X107841462Y-133014117D01*
X107750694Y-132844302D01*
X107628541Y-132695459D01*
X107479698Y-132573306D01*
X107474327Y-132570435D01*
X107474321Y-132570431D01*
X107315258Y-132485411D01*
X107309883Y-132482538D01*
X107304055Y-132480770D01*
X107304050Y-132480768D01*
X107131458Y-132428412D01*
X107131450Y-132428410D01*
X107125624Y-132426643D01*
X107119565Y-132426046D01*
X107119559Y-132426045D01*
X106940062Y-132408367D01*
X106934000Y-132407770D01*
X106927938Y-132408367D01*
X106748440Y-132426045D01*
X106748432Y-132426046D01*
X106742376Y-132426643D01*
X106736551Y-132428410D01*
X106736541Y-132428412D01*
X106563949Y-132480768D01*
X106563941Y-132480771D01*
X106558117Y-132482538D01*
X106552745Y-132485409D01*
X106552741Y-132485411D01*
X106393678Y-132570431D01*
X106393667Y-132570438D01*
X106388302Y-132573306D01*
X106383594Y-132577169D01*
X106383589Y-132577173D01*
X106270365Y-132670095D01*
X106206879Y-132697309D01*
X106138683Y-132686337D01*
X106086938Y-132640582D01*
X106067700Y-132574242D01*
X106067700Y-131665758D01*
X106086938Y-131599418D01*
X106138683Y-131553663D01*
X106206879Y-131542691D01*
X106270364Y-131569904D01*
X106388302Y-131666694D01*
X106393674Y-131669565D01*
X106393678Y-131669568D01*
X106473209Y-131712077D01*
X106558117Y-131757462D01*
X106742376Y-131813357D01*
X106934000Y-131832230D01*
X107125624Y-131813357D01*
X107309883Y-131757462D01*
X107479698Y-131666694D01*
X107628541Y-131544541D01*
X107750694Y-131395698D01*
X107841462Y-131225883D01*
X107897357Y-131041624D01*
X107916230Y-130850000D01*
X107897357Y-130658376D01*
X107841462Y-130474117D01*
X107750694Y-130304302D01*
X107628541Y-130155459D01*
X107525427Y-130070835D01*
X107486673Y-130014840D01*
X107483332Y-129946824D01*
X107516410Y-129887303D01*
X122876672Y-114527041D01*
X122877851Y-114525987D01*
X122887649Y-114521270D01*
X122903812Y-114501000D01*
X122908887Y-114495324D01*
X122910841Y-114492872D01*
X122915775Y-114487940D01*
X122919487Y-114482030D01*
X122921452Y-114479567D01*
X122925861Y-114473354D01*
X122933297Y-114464030D01*
X122933297Y-114464028D01*
X122942011Y-114453103D01*
X122944490Y-114442239D01*
X122950418Y-114432806D01*
X122953316Y-114407071D01*
X122954595Y-114399548D01*
X122954947Y-114396420D01*
X122956500Y-114389621D01*
X122956500Y-114382645D01*
X122956850Y-114379539D01*
X122957280Y-114371903D01*
X122960180Y-114346165D01*
X122956589Y-114335904D01*
X122956500Y-114334308D01*
X122956500Y-108905166D01*
X122969616Y-108849661D01*
X123006190Y-108805899D01*
X123058484Y-108783136D01*
X123115433Y-108786188D01*
X123214235Y-108815200D01*
X123328295Y-108815200D01*
X123337165Y-108815200D01*
X123455116Y-108780566D01*
X123558532Y-108714105D01*
X123639034Y-108621201D01*
X123690101Y-108509379D01*
X123707596Y-108387700D01*
X123690101Y-108266021D01*
X123654223Y-108187458D01*
X123642717Y-108162263D01*
X123642715Y-108162261D01*
X123639034Y-108154199D01*
X123558532Y-108061295D01*
X123523661Y-108038885D01*
X123481868Y-107993996D01*
X123466700Y-107934569D01*
X123466700Y-103316001D01*
X123479816Y-103260496D01*
X123516390Y-103216734D01*
X123568684Y-103193971D01*
X123625633Y-103197023D01*
X123723635Y-103225800D01*
X123837695Y-103225800D01*
X123846565Y-103225800D01*
X123964516Y-103191166D01*
X124067932Y-103124705D01*
X124148434Y-103031801D01*
X124199501Y-102919979D01*
X124216996Y-102798300D01*
X124199501Y-102676621D01*
X124148434Y-102564799D01*
X124067932Y-102471895D01*
X124033061Y-102449485D01*
X123991268Y-102404596D01*
X123976100Y-102345169D01*
X123976100Y-98040892D01*
X123989216Y-97985387D01*
X124025790Y-97941625D01*
X124078084Y-97918862D01*
X124135034Y-97921914D01*
X124143743Y-97924472D01*
X124205255Y-97942534D01*
X124214335Y-97945200D01*
X124328395Y-97945200D01*
X124337265Y-97945200D01*
X124455216Y-97910566D01*
X124558632Y-97844105D01*
X124639134Y-97751201D01*
X124690201Y-97639379D01*
X124707696Y-97517700D01*
X124696192Y-97437690D01*
X124701275Y-97380886D01*
X124731247Y-97332366D01*
X124877572Y-97186041D01*
X124878751Y-97184987D01*
X124888549Y-97180270D01*
X124904712Y-97160000D01*
X124909787Y-97154324D01*
X124911741Y-97151872D01*
X124916675Y-97146940D01*
X124920387Y-97141030D01*
X124922352Y-97138567D01*
X124926761Y-97132354D01*
X124934197Y-97123030D01*
X124934197Y-97123028D01*
X124942911Y-97112103D01*
X124945390Y-97101239D01*
X124951318Y-97091806D01*
X124954216Y-97066071D01*
X124955495Y-97058548D01*
X124955847Y-97055420D01*
X124957400Y-97048621D01*
X124957400Y-97041645D01*
X124957750Y-97038539D01*
X124958180Y-97030903D01*
X124959239Y-97021500D01*
X124961080Y-97005165D01*
X124957489Y-96994904D01*
X124957400Y-96993308D01*
X124957400Y-96523160D01*
X124970516Y-96467655D01*
X125007090Y-96423893D01*
X125059384Y-96401130D01*
X125116333Y-96404182D01*
X125190635Y-96426000D01*
X125304695Y-96426000D01*
X125313565Y-96426000D01*
X125431516Y-96391366D01*
X125534932Y-96324905D01*
X125615434Y-96232001D01*
X125666501Y-96120179D01*
X125683996Y-95998500D01*
X125666501Y-95876821D01*
X125615434Y-95764999D01*
X125534932Y-95672095D01*
X125525266Y-95665883D01*
X125438975Y-95610427D01*
X125438971Y-95610425D01*
X125431516Y-95605634D01*
X125423007Y-95603135D01*
X125423006Y-95603135D01*
X125383834Y-95591633D01*
X125354564Y-95583038D01*
X125308297Y-95557775D01*
X125276706Y-95515573D01*
X125265500Y-95464062D01*
X125265500Y-94811277D01*
X125279015Y-94754982D01*
X125316615Y-94710959D01*
X125370102Y-94688804D01*
X125427818Y-94693346D01*
X125477181Y-94723596D01*
X125834743Y-95081158D01*
X125835813Y-95082355D01*
X125840530Y-95092149D01*
X125860784Y-95108301D01*
X125866483Y-95113394D01*
X125868931Y-95115346D01*
X125873860Y-95120275D01*
X125879760Y-95123982D01*
X125882213Y-95125938D01*
X125888437Y-95130353D01*
X125908697Y-95146511D01*
X125919560Y-95148990D01*
X125928994Y-95154918D01*
X125954733Y-95157817D01*
X125962261Y-95159096D01*
X125965379Y-95159447D01*
X125972179Y-95161000D01*
X125979149Y-95161000D01*
X125982262Y-95161351D01*
X125989896Y-95161779D01*
X126015635Y-95164680D01*
X126025895Y-95161089D01*
X126027492Y-95161000D01*
X131250903Y-95161000D01*
X131312109Y-95177158D01*
X131357364Y-95221423D01*
X131374873Y-95282256D01*
X131360072Y-95343805D01*
X131316820Y-95390028D01*
X131316342Y-95390328D01*
X131315002Y-95391067D01*
X131304397Y-95393489D01*
X131293480Y-95402194D01*
X131293473Y-95402198D01*
X131284137Y-95409644D01*
X131277894Y-95414074D01*
X131275445Y-95416026D01*
X131269560Y-95419725D01*
X131264643Y-95424640D01*
X131262208Y-95426583D01*
X131256491Y-95431692D01*
X131247149Y-95439142D01*
X131247147Y-95439144D01*
X131236230Y-95447851D01*
X131231514Y-95457641D01*
X131230443Y-95458840D01*
X130006540Y-96682743D01*
X130005341Y-96683814D01*
X129995551Y-96688530D01*
X129986844Y-96699447D01*
X129986842Y-96699449D01*
X129979392Y-96708791D01*
X129974283Y-96714508D01*
X129972340Y-96716943D01*
X129967425Y-96721860D01*
X129963726Y-96727745D01*
X129961774Y-96730194D01*
X129957344Y-96736437D01*
X129949898Y-96745773D01*
X129949894Y-96745780D01*
X129941189Y-96756697D01*
X129938709Y-96767560D01*
X129932782Y-96776994D01*
X129931218Y-96790872D01*
X129931218Y-96790873D01*
X129929882Y-96802731D01*
X129928600Y-96810276D01*
X129928249Y-96813391D01*
X129926700Y-96820179D01*
X129926700Y-96827144D01*
X129926349Y-96830260D01*
X129925920Y-96837897D01*
X129924808Y-96847770D01*
X129923020Y-96863635D01*
X129926610Y-96873895D01*
X129926700Y-96875492D01*
X129926700Y-98576608D01*
X129926610Y-98578204D01*
X129923020Y-98588465D01*
X129924584Y-98602346D01*
X129924584Y-98602347D01*
X129925920Y-98614203D01*
X129926349Y-98621849D01*
X129926700Y-98624964D01*
X129926700Y-98631921D01*
X129928247Y-98638702D01*
X129928599Y-98641820D01*
X129929881Y-98649362D01*
X129931217Y-98661224D01*
X129931218Y-98661227D01*
X129932782Y-98675106D01*
X129938709Y-98684539D01*
X129941189Y-98695403D01*
X129949897Y-98706322D01*
X129949898Y-98706324D01*
X129957338Y-98715653D01*
X129961759Y-98721884D01*
X129963718Y-98724341D01*
X129967425Y-98730240D01*
X129972351Y-98735166D01*
X129974312Y-98737625D01*
X129979396Y-98743313D01*
X129995551Y-98763570D01*
X130005344Y-98768286D01*
X130006537Y-98769352D01*
X130188743Y-98951558D01*
X130189813Y-98952755D01*
X130194530Y-98962549D01*
X130205451Y-98971258D01*
X130214784Y-98978701D01*
X130220483Y-98983794D01*
X130222931Y-98985746D01*
X130227860Y-98990675D01*
X130233760Y-98994382D01*
X130236213Y-98996338D01*
X130242437Y-99000753D01*
X130262697Y-99016911D01*
X130273560Y-99019390D01*
X130282994Y-99025318D01*
X130308733Y-99028217D01*
X130316261Y-99029496D01*
X130319379Y-99029847D01*
X130326179Y-99031400D01*
X130333149Y-99031400D01*
X130336262Y-99031751D01*
X130343896Y-99032179D01*
X130369635Y-99035080D01*
X130379895Y-99031489D01*
X130381492Y-99031400D01*
X135468308Y-99031400D01*
X135469904Y-99031489D01*
X135480165Y-99035080D01*
X135505903Y-99032179D01*
X135513539Y-99031750D01*
X135516645Y-99031400D01*
X135523621Y-99031400D01*
X135530420Y-99029847D01*
X135533548Y-99029495D01*
X135541071Y-99028216D01*
X135566806Y-99025318D01*
X135576239Y-99019390D01*
X135587103Y-99016911D01*
X135598028Y-99008197D01*
X135598030Y-99008197D01*
X135607354Y-99000761D01*
X135613567Y-98996352D01*
X135616030Y-98994387D01*
X135621940Y-98990675D01*
X135626872Y-98985741D01*
X135629324Y-98983787D01*
X135635000Y-98978712D01*
X135655270Y-98962549D01*
X135659987Y-98952751D01*
X135661041Y-98951572D01*
X138478472Y-96134141D01*
X138479651Y-96133087D01*
X138489449Y-96128370D01*
X138505612Y-96108100D01*
X138510689Y-96102421D01*
X138512640Y-96099974D01*
X138517575Y-96095040D01*
X138521288Y-96089128D01*
X138523244Y-96086677D01*
X138527651Y-96080465D01*
X138543811Y-96060203D01*
X138546289Y-96049341D01*
X138552219Y-96039906D01*
X138555119Y-96014158D01*
X138556399Y-96006628D01*
X138556750Y-96003510D01*
X138558300Y-95996721D01*
X138558300Y-95989756D01*
X138558651Y-95986641D01*
X138559080Y-95979015D01*
X138560416Y-95967149D01*
X138560415Y-95967148D01*
X138561980Y-95953265D01*
X138558390Y-95943005D01*
X138558300Y-95941402D01*
X138558300Y-71423092D01*
X138558389Y-71421495D01*
X138561980Y-71411235D01*
X138559079Y-71385496D01*
X138558651Y-71377862D01*
X138558300Y-71374749D01*
X138558300Y-71367779D01*
X138556747Y-71360979D01*
X138556396Y-71357861D01*
X138555117Y-71350331D01*
X138553782Y-71338480D01*
X138552218Y-71324594D01*
X138546290Y-71315160D01*
X138543811Y-71304297D01*
X138527653Y-71284037D01*
X138523238Y-71277813D01*
X138521282Y-71275360D01*
X138517575Y-71269460D01*
X138512646Y-71264531D01*
X138510694Y-71262083D01*
X138505601Y-71256384D01*
X138498158Y-71247051D01*
X138489449Y-71236130D01*
X138479655Y-71231413D01*
X138478458Y-71230343D01*
X110495880Y-43247765D01*
X134035788Y-43247765D01*
X134036282Y-43252262D01*
X134036283Y-43252267D01*
X134064917Y-43512506D01*
X134064918Y-43512513D01*
X134065414Y-43517018D01*
X134066559Y-43521398D01*
X134066561Y-43521408D01*
X134097670Y-43640400D01*
X134133928Y-43779088D01*
X134135693Y-43783242D01*
X134135696Y-43783250D01*
X134204136Y-43944302D01*
X134239870Y-44028390D01*
X134242226Y-44032251D01*
X134242229Y-44032256D01*
X134378618Y-44255737D01*
X134380982Y-44259610D01*
X134383885Y-44263098D01*
X134549307Y-44461875D01*
X134554255Y-44467820D01*
X134557630Y-44470844D01*
X134557631Y-44470845D01*
X134662330Y-44564656D01*
X134755998Y-44648582D01*
X134981910Y-44798044D01*
X135227176Y-44913020D01*
X135486569Y-44991060D01*
X135754561Y-45030500D01*
X135955369Y-45030500D01*
X135957631Y-45030500D01*
X136160156Y-45015677D01*
X136424553Y-44956780D01*
X136677558Y-44860014D01*
X136913777Y-44727441D01*
X137128177Y-44561888D01*
X137316186Y-44366881D01*
X137473799Y-44146579D01*
X137597656Y-43905675D01*
X137685118Y-43649305D01*
X137734319Y-43382933D01*
X137744212Y-43112235D01*
X137714586Y-42842982D01*
X137646072Y-42580912D01*
X137540130Y-42331610D01*
X137399018Y-42100390D01*
X137225745Y-41892180D01*
X137120759Y-41798112D01*
X137027382Y-41714446D01*
X137027378Y-41714442D01*
X137024002Y-41711418D01*
X136798090Y-41561956D01*
X136793996Y-41560036D01*
X136793991Y-41560034D01*
X136556929Y-41448904D01*
X136556925Y-41448902D01*
X136552824Y-41446980D01*
X136548477Y-41445672D01*
X136548474Y-41445671D01*
X136297772Y-41370246D01*
X136297771Y-41370245D01*
X136293431Y-41368940D01*
X136288957Y-41368281D01*
X136288950Y-41368280D01*
X136029913Y-41330158D01*
X136029907Y-41330157D01*
X136025439Y-41329500D01*
X135822369Y-41329500D01*
X135820120Y-41329664D01*
X135820109Y-41329665D01*
X135624363Y-41343992D01*
X135624359Y-41343992D01*
X135619844Y-41344323D01*
X135615426Y-41345307D01*
X135615420Y-41345308D01*
X135359877Y-41402232D01*
X135359861Y-41402236D01*
X135355447Y-41403220D01*
X135351216Y-41404838D01*
X135351210Y-41404840D01*
X135106673Y-41498367D01*
X135106663Y-41498371D01*
X135102442Y-41499986D01*
X135098494Y-41502201D01*
X135098489Y-41502204D01*
X134870176Y-41630340D01*
X134870171Y-41630343D01*
X134866223Y-41632559D01*
X134862639Y-41635325D01*
X134862635Y-41635329D01*
X134655407Y-41795343D01*
X134655394Y-41795354D01*
X134651823Y-41798112D01*
X134648685Y-41801366D01*
X134648678Y-41801373D01*
X134466958Y-41989857D01*
X134466952Y-41989864D01*
X134463814Y-41993119D01*
X134461189Y-41996787D01*
X134461179Y-41996800D01*
X134308834Y-42209740D01*
X134308830Y-42209745D01*
X134306201Y-42213421D01*
X134304132Y-42217444D01*
X134304129Y-42217450D01*
X134184416Y-42450293D01*
X134184411Y-42450304D01*
X134182344Y-42454325D01*
X134180884Y-42458602D01*
X134180879Y-42458616D01*
X134096348Y-42706395D01*
X134096344Y-42706407D01*
X134094882Y-42710695D01*
X134094057Y-42715159D01*
X134094057Y-42715161D01*
X134046504Y-42972606D01*
X134046502Y-42972619D01*
X134045681Y-42977067D01*
X134045515Y-42981593D01*
X134045515Y-42981599D01*
X134035965Y-43242926D01*
X134035788Y-43247765D01*
X110495880Y-43247765D01*
X108046252Y-40798137D01*
X108045186Y-40796944D01*
X108040470Y-40787151D01*
X108020213Y-40770996D01*
X108014525Y-40765912D01*
X108012066Y-40763951D01*
X108007140Y-40759025D01*
X108001241Y-40755318D01*
X107998784Y-40753359D01*
X107992553Y-40748938D01*
X107983224Y-40741498D01*
X107983222Y-40741497D01*
X107972303Y-40732789D01*
X107961439Y-40730309D01*
X107952006Y-40724382D01*
X107938127Y-40722818D01*
X107938124Y-40722817D01*
X107926262Y-40721481D01*
X107918720Y-40720199D01*
X107915602Y-40719847D01*
X107908821Y-40718300D01*
X107901864Y-40718300D01*
X107898749Y-40717949D01*
X107891103Y-40717520D01*
X107879246Y-40716184D01*
X107865365Y-40714620D01*
X107855104Y-40718210D01*
X107853508Y-40718300D01*
X105964192Y-40718300D01*
X105962595Y-40718210D01*
X105952335Y-40714620D01*
X105938453Y-40716184D01*
X105926597Y-40717520D01*
X105918960Y-40717949D01*
X105915844Y-40718300D01*
X105908879Y-40718300D01*
X105902091Y-40719849D01*
X105898976Y-40720200D01*
X105891431Y-40721482D01*
X105879573Y-40722818D01*
X105879572Y-40722818D01*
X105865694Y-40724382D01*
X105856260Y-40730309D01*
X105845397Y-40732789D01*
X105834480Y-40741494D01*
X105834473Y-40741498D01*
X105825137Y-40748944D01*
X105818894Y-40753374D01*
X105816445Y-40755326D01*
X105810560Y-40759025D01*
X105805643Y-40763940D01*
X105803208Y-40765883D01*
X105797491Y-40770992D01*
X105788148Y-40778443D01*
X105788146Y-40778444D01*
X105777230Y-40787151D01*
X105775254Y-40791254D01*
X105771151Y-40793230D01*
X105762444Y-40804146D01*
X105762443Y-40804148D01*
X105754992Y-40813491D01*
X105749883Y-40819208D01*
X105747940Y-40821643D01*
X105743025Y-40826560D01*
X105739326Y-40832445D01*
X105737374Y-40834894D01*
X105732944Y-40841137D01*
X105725498Y-40850473D01*
X105725494Y-40850480D01*
X105716789Y-40861397D01*
X105714309Y-40872260D01*
X105708382Y-40881694D01*
X105706818Y-40895572D01*
X105706818Y-40895573D01*
X105705482Y-40907431D01*
X105704200Y-40914976D01*
X105703849Y-40918091D01*
X105702300Y-40924879D01*
X105702300Y-40931844D01*
X105701949Y-40934960D01*
X105701520Y-40942596D01*
X105698620Y-40968335D01*
X105702210Y-40978595D01*
X105702300Y-40980192D01*
X105702300Y-42895208D01*
X105702210Y-42896804D01*
X105698620Y-42907065D01*
X105700184Y-42920946D01*
X105700184Y-42920947D01*
X105701520Y-42932803D01*
X105701949Y-42940449D01*
X105702300Y-42943564D01*
X105702300Y-42950521D01*
X105703847Y-42957302D01*
X105704199Y-42960420D01*
X105705481Y-42967962D01*
X105706817Y-42979824D01*
X105706818Y-42979827D01*
X105708382Y-42993706D01*
X105714309Y-43003139D01*
X105716789Y-43014003D01*
X105725497Y-43024922D01*
X105725498Y-43024924D01*
X105732938Y-43034253D01*
X105737359Y-43040484D01*
X105739318Y-43042941D01*
X105743025Y-43048840D01*
X105747951Y-43053766D01*
X105749912Y-43056225D01*
X105754996Y-43061913D01*
X105771151Y-43082170D01*
X105780944Y-43086886D01*
X105782137Y-43087952D01*
X106254743Y-43560558D01*
X106255813Y-43561755D01*
X106260530Y-43571549D01*
X106271451Y-43580258D01*
X106280163Y-43591182D01*
X106279504Y-43591707D01*
X106302599Y-43620561D01*
X106315067Y-43673884D01*
X106303351Y-43727378D01*
X106269737Y-43770610D01*
X106244163Y-43791598D01*
X106244160Y-43791600D01*
X106239459Y-43795459D01*
X106235600Y-43800160D01*
X106235596Y-43800165D01*
X106121173Y-43939589D01*
X106121169Y-43939594D01*
X106117306Y-43944302D01*
X106114438Y-43949667D01*
X106114431Y-43949678D01*
X106029411Y-44108741D01*
X106029409Y-44108745D01*
X106026538Y-44114117D01*
X106024771Y-44119941D01*
X106024768Y-44119949D01*
X105972412Y-44292541D01*
X105972410Y-44292551D01*
X105970643Y-44298376D01*
X105970046Y-44304432D01*
X105970045Y-44304440D01*
X105952367Y-44483938D01*
X105951770Y-44490000D01*
X105952367Y-44496062D01*
X105970045Y-44675559D01*
X105970046Y-44675565D01*
X105970643Y-44681624D01*
X105972410Y-44687450D01*
X105972412Y-44687458D01*
X106024768Y-44860050D01*
X106024770Y-44860055D01*
X106026538Y-44865883D01*
X106029411Y-44871258D01*
X106114431Y-45030321D01*
X106114435Y-45030327D01*
X106117306Y-45035698D01*
X106239459Y-45184541D01*
X106388302Y-45306694D01*
X106393674Y-45309565D01*
X106393678Y-45309568D01*
X106473209Y-45352078D01*
X106558117Y-45397462D01*
X106737943Y-45452012D01*
X106794815Y-45488505D01*
X106824107Y-45549402D01*
X106817119Y-45616616D01*
X106775925Y-45670185D01*
X106712759Y-45694199D01*
X106704074Y-45694959D01*
X106693446Y-45696833D01*
X106475736Y-45755168D01*
X106465602Y-45758856D01*
X106261332Y-45854110D01*
X106251982Y-45859508D01*
X106067357Y-45988784D01*
X106059092Y-45995719D01*
X105899719Y-46155092D01*
X105892784Y-46163357D01*
X105763508Y-46347982D01*
X105758110Y-46357332D01*
X105662856Y-46561602D01*
X105659168Y-46571736D01*
X105607056Y-46766219D01*
X105606688Y-46777448D01*
X105617631Y-46780000D01*
X108250369Y-46780000D01*
X108261311Y-46777448D01*
X108260943Y-46766219D01*
X108208831Y-46571736D01*
X108205143Y-46561602D01*
X108109889Y-46357332D01*
X108104491Y-46347982D01*
X107975215Y-46163357D01*
X107968280Y-46155092D01*
X107808909Y-45995721D01*
X107800643Y-45988784D01*
X107616008Y-45859501D01*
X107606676Y-45854113D01*
X107402397Y-45758856D01*
X107392263Y-45755168D01*
X107174553Y-45696833D01*
X107163924Y-45694959D01*
X107155241Y-45694199D01*
X107092075Y-45670185D01*
X107050880Y-45616617D01*
X107043892Y-45549403D01*
X107073184Y-45488505D01*
X107130054Y-45452013D01*
X107309883Y-45397462D01*
X107479698Y-45306694D01*
X107628541Y-45184541D01*
X107750694Y-45035698D01*
X107841462Y-44865883D01*
X107897357Y-44681624D01*
X107912683Y-44526007D01*
X107938331Y-44461875D01*
X107994311Y-44421412D01*
X108063254Y-44417176D01*
X108123767Y-44450482D01*
X137865381Y-74192096D01*
X137892261Y-74232324D01*
X137901700Y-74279777D01*
X137901700Y-82507968D01*
X137882691Y-82573945D01*
X137831491Y-82619693D01*
X137763799Y-82631186D01*
X137704768Y-82606724D01*
X137699749Y-82600430D01*
X137689954Y-82595712D01*
X137688758Y-82594643D01*
X108133552Y-53039437D01*
X108132486Y-53038244D01*
X108127770Y-53028451D01*
X108116205Y-53019228D01*
X108107513Y-53012296D01*
X108101825Y-53007212D01*
X108099366Y-53005251D01*
X108094440Y-53000325D01*
X108088541Y-52996618D01*
X108086084Y-52994659D01*
X108079853Y-52990238D01*
X108070524Y-52982798D01*
X108070522Y-52982797D01*
X108059603Y-52974089D01*
X108048739Y-52971609D01*
X108039306Y-52965682D01*
X108025427Y-52964118D01*
X108025424Y-52964117D01*
X108013562Y-52962781D01*
X108006020Y-52961499D01*
X108002902Y-52961147D01*
X107996121Y-52959600D01*
X107989164Y-52959600D01*
X107986049Y-52959249D01*
X107978403Y-52958820D01*
X107966546Y-52957484D01*
X107952665Y-52955920D01*
X107942404Y-52959510D01*
X107940808Y-52959600D01*
X107763463Y-52959600D01*
X107697123Y-52940362D01*
X107651368Y-52888617D01*
X107640396Y-52820421D01*
X107667610Y-52756935D01*
X107750694Y-52655698D01*
X107841462Y-52485883D01*
X107897357Y-52301624D01*
X107916230Y-52110000D01*
X107897357Y-51918376D01*
X107841462Y-51734117D01*
X107750694Y-51564302D01*
X107628541Y-51415459D01*
X107479698Y-51293306D01*
X107474327Y-51290435D01*
X107474321Y-51290431D01*
X107315258Y-51205411D01*
X107309883Y-51202538D01*
X107304055Y-51200770D01*
X107304050Y-51200768D01*
X107131458Y-51148412D01*
X107131450Y-51148410D01*
X107125624Y-51146643D01*
X107119565Y-51146046D01*
X107119559Y-51146045D01*
X106940062Y-51128367D01*
X106934000Y-51127770D01*
X106927938Y-51128367D01*
X106748440Y-51146045D01*
X106748432Y-51146046D01*
X106742376Y-51146643D01*
X106736551Y-51148410D01*
X106736541Y-51148412D01*
X106563949Y-51200768D01*
X106563941Y-51200771D01*
X106558117Y-51202538D01*
X106552745Y-51205409D01*
X106552741Y-51205411D01*
X106393678Y-51290431D01*
X106393667Y-51290438D01*
X106388302Y-51293306D01*
X106383594Y-51297169D01*
X106383589Y-51297173D01*
X106244165Y-51411596D01*
X106244160Y-51411600D01*
X106239459Y-51415459D01*
X106235600Y-51420160D01*
X106235596Y-51420165D01*
X106121173Y-51559589D01*
X106121169Y-51559594D01*
X106117306Y-51564302D01*
X106114438Y-51569667D01*
X106114431Y-51569678D01*
X106029411Y-51728741D01*
X106029409Y-51728745D01*
X106026538Y-51734117D01*
X106024771Y-51739941D01*
X106024768Y-51739949D01*
X105972412Y-51912541D01*
X105972410Y-51912551D01*
X105970643Y-51918376D01*
X105970046Y-51924432D01*
X105970045Y-51924440D01*
X105952367Y-52103938D01*
X105951770Y-52110000D01*
X105952367Y-52116062D01*
X105970045Y-52295559D01*
X105970046Y-52295565D01*
X105970643Y-52301624D01*
X105972410Y-52307450D01*
X105972412Y-52307458D01*
X106024768Y-52480050D01*
X106024770Y-52480055D01*
X106026538Y-52485883D01*
X106029411Y-52491258D01*
X106114431Y-52650321D01*
X106114435Y-52650327D01*
X106117306Y-52655698D01*
X106121172Y-52660409D01*
X106121173Y-52660410D01*
X106235596Y-52799834D01*
X106239459Y-52804541D01*
X106388302Y-52926694D01*
X106393674Y-52929565D01*
X106393678Y-52929568D01*
X106461243Y-52965682D01*
X106558117Y-53017462D01*
X106654998Y-53046851D01*
X106700759Y-53072282D01*
X106731947Y-53114334D01*
X106743000Y-53165510D01*
X106743000Y-53194195D01*
X106749062Y-53206784D01*
X106750370Y-53212511D01*
X106751833Y-53216691D01*
X106754379Y-53221980D01*
X106757489Y-53235603D01*
X106766198Y-53246525D01*
X106768743Y-53251809D01*
X106771112Y-53255578D01*
X106774767Y-53260162D01*
X106780830Y-53272749D01*
X106791751Y-53281458D01*
X106795412Y-53286048D01*
X106798552Y-53289188D01*
X106803141Y-53292847D01*
X106811851Y-53303770D01*
X106824438Y-53309831D01*
X106829029Y-53313493D01*
X106832786Y-53315853D01*
X106838070Y-53318397D01*
X106848997Y-53327111D01*
X106862623Y-53330220D01*
X106867916Y-53332769D01*
X106872083Y-53334227D01*
X106877811Y-53335534D01*
X106890405Y-53341600D01*
X106912479Y-53341600D01*
X106977595Y-53341600D01*
X107844123Y-53341600D01*
X107891576Y-53351039D01*
X107931804Y-53377919D01*
X111341204Y-56787319D01*
X111371454Y-56836682D01*
X111375996Y-56894398D01*
X111353841Y-56947885D01*
X111309818Y-56985485D01*
X111253523Y-56999000D01*
X107989510Y-56999000D01*
X107938334Y-56987947D01*
X107896282Y-56956759D01*
X107870851Y-56910998D01*
X107841462Y-56814117D01*
X107750694Y-56644302D01*
X107628541Y-56495459D01*
X107479698Y-56373306D01*
X107474327Y-56370435D01*
X107474321Y-56370431D01*
X107315258Y-56285411D01*
X107309883Y-56282538D01*
X107304055Y-56280770D01*
X107304050Y-56280768D01*
X107131458Y-56228412D01*
X107131450Y-56228410D01*
X107125624Y-56226643D01*
X107119565Y-56226046D01*
X107119559Y-56226045D01*
X106940062Y-56208367D01*
X106934000Y-56207770D01*
X106927938Y-56208367D01*
X106748440Y-56226045D01*
X106748432Y-56226046D01*
X106742376Y-56226643D01*
X106736551Y-56228410D01*
X106736541Y-56228412D01*
X106563949Y-56280768D01*
X106563941Y-56280771D01*
X106558117Y-56282538D01*
X106552745Y-56285409D01*
X106552741Y-56285411D01*
X106393678Y-56370431D01*
X106393667Y-56370438D01*
X106388302Y-56373306D01*
X106383594Y-56377169D01*
X106383589Y-56377173D01*
X106244165Y-56491596D01*
X106244160Y-56491600D01*
X106239459Y-56495459D01*
X106235600Y-56500160D01*
X106235596Y-56500165D01*
X106121173Y-56639589D01*
X106121169Y-56639594D01*
X106117306Y-56644302D01*
X106114438Y-56649667D01*
X106114431Y-56649678D01*
X106029411Y-56808741D01*
X106029409Y-56808745D01*
X106026538Y-56814117D01*
X106024771Y-56819941D01*
X106024768Y-56819949D01*
X105972412Y-56992541D01*
X105972410Y-56992551D01*
X105970643Y-56998376D01*
X105970046Y-57004432D01*
X105970045Y-57004440D01*
X105952367Y-57183938D01*
X105951770Y-57190000D01*
X105952367Y-57196062D01*
X105970045Y-57375559D01*
X105970046Y-57375565D01*
X105970643Y-57381624D01*
X105972410Y-57387450D01*
X105972412Y-57387458D01*
X106024768Y-57560050D01*
X106024770Y-57560055D01*
X106026538Y-57565883D01*
X106029411Y-57571258D01*
X106114431Y-57730321D01*
X106114435Y-57730327D01*
X106117306Y-57735698D01*
X106239459Y-57884541D01*
X106388302Y-58006694D01*
X106393674Y-58009565D01*
X106393678Y-58009568D01*
X106473209Y-58052078D01*
X106558117Y-58097462D01*
X106742376Y-58153357D01*
X106934000Y-58172230D01*
X107125624Y-58153357D01*
X107309883Y-58097462D01*
X107479698Y-58006694D01*
X107628541Y-57884541D01*
X107750694Y-57735698D01*
X107841462Y-57565883D01*
X107870851Y-57469001D01*
X107896282Y-57423241D01*
X107938334Y-57392053D01*
X107989510Y-57381000D01*
X111423823Y-57381000D01*
X111471276Y-57390439D01*
X111511504Y-57417319D01*
X115961504Y-61867319D01*
X115991754Y-61916682D01*
X115996296Y-61974398D01*
X115974141Y-62027885D01*
X115930118Y-62065485D01*
X115873823Y-62079000D01*
X107989510Y-62079000D01*
X107938334Y-62067947D01*
X107896282Y-62036759D01*
X107870851Y-61990998D01*
X107841462Y-61894117D01*
X107750694Y-61724302D01*
X107628541Y-61575459D01*
X107479698Y-61453306D01*
X107474327Y-61450435D01*
X107474321Y-61450431D01*
X107315258Y-61365411D01*
X107309883Y-61362538D01*
X107304055Y-61360770D01*
X107304050Y-61360768D01*
X107131458Y-61308412D01*
X107131450Y-61308410D01*
X107125624Y-61306643D01*
X107119565Y-61306046D01*
X107119559Y-61306045D01*
X106940062Y-61288367D01*
X106934000Y-61287770D01*
X106927938Y-61288367D01*
X106748440Y-61306045D01*
X106748432Y-61306046D01*
X106742376Y-61306643D01*
X106736551Y-61308410D01*
X106736541Y-61308412D01*
X106563949Y-61360768D01*
X106563941Y-61360771D01*
X106558117Y-61362538D01*
X106552745Y-61365409D01*
X106552741Y-61365411D01*
X106393678Y-61450431D01*
X106393667Y-61450438D01*
X106388302Y-61453306D01*
X106383594Y-61457169D01*
X106383589Y-61457173D01*
X106244165Y-61571596D01*
X106244160Y-61571600D01*
X106239459Y-61575459D01*
X106235600Y-61580160D01*
X106235596Y-61580165D01*
X106121173Y-61719589D01*
X106121169Y-61719594D01*
X106117306Y-61724302D01*
X106114438Y-61729667D01*
X106114431Y-61729678D01*
X106029411Y-61888741D01*
X106029409Y-61888745D01*
X106026538Y-61894117D01*
X106024771Y-61899941D01*
X106024768Y-61899949D01*
X105972412Y-62072541D01*
X105972410Y-62072551D01*
X105970643Y-62078376D01*
X105970046Y-62084432D01*
X105970045Y-62084440D01*
X105952367Y-62263938D01*
X105951770Y-62270000D01*
X105952367Y-62276062D01*
X105970045Y-62455559D01*
X105970046Y-62455565D01*
X105970643Y-62461624D01*
X105972410Y-62467450D01*
X105972412Y-62467458D01*
X106024768Y-62640050D01*
X106024770Y-62640055D01*
X106026538Y-62645883D01*
X106029411Y-62651258D01*
X106114431Y-62810321D01*
X106114435Y-62810327D01*
X106117306Y-62815698D01*
X106239459Y-62964541D01*
X106388302Y-63086694D01*
X106393674Y-63089565D01*
X106393678Y-63089568D01*
X106473209Y-63132077D01*
X106558117Y-63177462D01*
X106742376Y-63233357D01*
X106934000Y-63252230D01*
X107125624Y-63233357D01*
X107309883Y-63177462D01*
X107479698Y-63086694D01*
X107628541Y-62964541D01*
X107750694Y-62815698D01*
X107841462Y-62645883D01*
X107870851Y-62549001D01*
X107896282Y-62503241D01*
X107938334Y-62472053D01*
X107989510Y-62461000D01*
X116144323Y-62461000D01*
X116191776Y-62470439D01*
X116232004Y-62497319D01*
X125762004Y-72027319D01*
X125792254Y-72076682D01*
X125796796Y-72134398D01*
X125774641Y-72187885D01*
X125730618Y-72225485D01*
X125674323Y-72239000D01*
X107996121Y-72239000D01*
X107989510Y-72239000D01*
X107938334Y-72227947D01*
X107896282Y-72196759D01*
X107870851Y-72150998D01*
X107841462Y-72054117D01*
X107750694Y-71884302D01*
X107628541Y-71735459D01*
X107479698Y-71613306D01*
X107474327Y-71610435D01*
X107474321Y-71610431D01*
X107315258Y-71525411D01*
X107309883Y-71522538D01*
X107304055Y-71520770D01*
X107304050Y-71520768D01*
X107131458Y-71468412D01*
X107131450Y-71468410D01*
X107125624Y-71466643D01*
X107119565Y-71466046D01*
X107119559Y-71466045D01*
X106940062Y-71448367D01*
X106934000Y-71447770D01*
X106927938Y-71448367D01*
X106748440Y-71466045D01*
X106748432Y-71466046D01*
X106742376Y-71466643D01*
X106736551Y-71468410D01*
X106736541Y-71468412D01*
X106563949Y-71520768D01*
X106563941Y-71520771D01*
X106558117Y-71522538D01*
X106552745Y-71525409D01*
X106552741Y-71525411D01*
X106393678Y-71610431D01*
X106393667Y-71610438D01*
X106388302Y-71613306D01*
X106383594Y-71617169D01*
X106383589Y-71617173D01*
X106244165Y-71731596D01*
X106244160Y-71731600D01*
X106239459Y-71735459D01*
X106235600Y-71740160D01*
X106235596Y-71740165D01*
X106121173Y-71879589D01*
X106121169Y-71879594D01*
X106117306Y-71884302D01*
X106114438Y-71889667D01*
X106114431Y-71889678D01*
X106029411Y-72048741D01*
X106029409Y-72048745D01*
X106026538Y-72054117D01*
X106024771Y-72059941D01*
X106024768Y-72059949D01*
X105972412Y-72232541D01*
X105972410Y-72232551D01*
X105970643Y-72238376D01*
X105970046Y-72244432D01*
X105970045Y-72244440D01*
X105952367Y-72423938D01*
X105951770Y-72430000D01*
X105952367Y-72436062D01*
X105970045Y-72615559D01*
X105970046Y-72615565D01*
X105970643Y-72621624D01*
X105972410Y-72627450D01*
X105972412Y-72627458D01*
X106024768Y-72800050D01*
X106024770Y-72800055D01*
X106026538Y-72805883D01*
X106029411Y-72811258D01*
X106114431Y-72970321D01*
X106114435Y-72970327D01*
X106117306Y-72975698D01*
X106239459Y-73124541D01*
X106388302Y-73246694D01*
X106393674Y-73249565D01*
X106393678Y-73249568D01*
X106473209Y-73292078D01*
X106558117Y-73337462D01*
X106742376Y-73393357D01*
X106934000Y-73412230D01*
X107125624Y-73393357D01*
X107309883Y-73337462D01*
X107479698Y-73246694D01*
X107628541Y-73124541D01*
X107750694Y-72975698D01*
X107841462Y-72805883D01*
X107870851Y-72709001D01*
X107896282Y-72663241D01*
X107938334Y-72632053D01*
X107989510Y-72621000D01*
X107996121Y-72621000D01*
X125922623Y-72621000D01*
X125970076Y-72630439D01*
X126010304Y-72657319D01*
X130862985Y-77510000D01*
X135542605Y-82189619D01*
X135572855Y-82238982D01*
X135577397Y-82296698D01*
X135555242Y-82350185D01*
X135511219Y-82387785D01*
X135454924Y-82401300D01*
X128946898Y-82401300D01*
X128945294Y-82401209D01*
X128935035Y-82397620D01*
X128921155Y-82399183D01*
X128921150Y-82399183D01*
X128909285Y-82400520D01*
X128901661Y-82400948D01*
X128898535Y-82401300D01*
X128891579Y-82401300D01*
X128884800Y-82402846D01*
X128881687Y-82403197D01*
X128874145Y-82404479D01*
X128862275Y-82405816D01*
X128862271Y-82405817D01*
X128848394Y-82407381D01*
X128838958Y-82413310D01*
X128828097Y-82415789D01*
X128817177Y-82424496D01*
X128817175Y-82424498D01*
X128807842Y-82431941D01*
X128801587Y-82436379D01*
X128799144Y-82438326D01*
X128793260Y-82442025D01*
X128788342Y-82446941D01*
X128785911Y-82448881D01*
X128780191Y-82453992D01*
X128770849Y-82461442D01*
X128770847Y-82461444D01*
X128759930Y-82470151D01*
X128755214Y-82479941D01*
X128754143Y-82481140D01*
X108116592Y-103118691D01*
X108064906Y-103149671D01*
X108004720Y-103152627D01*
X107950246Y-103126863D01*
X107914350Y-103078462D01*
X107905508Y-103018858D01*
X107916230Y-102910000D01*
X107897357Y-102718376D01*
X107841462Y-102534117D01*
X107750694Y-102364302D01*
X107628541Y-102215459D01*
X107479698Y-102093306D01*
X107474327Y-102090435D01*
X107474321Y-102090431D01*
X107315258Y-102005411D01*
X107309883Y-102002538D01*
X107304055Y-102000770D01*
X107304050Y-102000768D01*
X107131458Y-101948412D01*
X107131450Y-101948410D01*
X107125624Y-101946643D01*
X107119565Y-101946046D01*
X107119559Y-101946045D01*
X106940062Y-101928367D01*
X106934000Y-101927770D01*
X106927938Y-101928367D01*
X106748440Y-101946045D01*
X106748432Y-101946046D01*
X106742376Y-101946643D01*
X106736551Y-101948410D01*
X106736541Y-101948412D01*
X106563949Y-102000768D01*
X106563941Y-102000771D01*
X106558117Y-102002538D01*
X106552745Y-102005409D01*
X106552741Y-102005411D01*
X106393678Y-102090431D01*
X106393667Y-102090438D01*
X106388302Y-102093306D01*
X106383594Y-102097169D01*
X106383589Y-102097173D01*
X106244165Y-102211596D01*
X106244160Y-102211600D01*
X106239459Y-102215459D01*
X106235600Y-102220160D01*
X106235596Y-102220165D01*
X106121173Y-102359589D01*
X106121169Y-102359594D01*
X106117306Y-102364302D01*
X106114438Y-102369667D01*
X106114431Y-102369678D01*
X106029411Y-102528741D01*
X106029409Y-102528745D01*
X106026538Y-102534117D01*
X106024771Y-102539941D01*
X106024768Y-102539949D01*
X105972412Y-102712541D01*
X105972410Y-102712551D01*
X105970643Y-102718376D01*
X105970046Y-102724432D01*
X105970045Y-102724440D01*
X105952367Y-102903938D01*
X105951770Y-102910000D01*
X105952367Y-102916060D01*
X105952367Y-102916062D01*
X105970045Y-103095559D01*
X105970046Y-103095565D01*
X105970643Y-103101624D01*
X105972410Y-103107450D01*
X105972412Y-103107458D01*
X106024768Y-103280050D01*
X106024770Y-103280055D01*
X106026538Y-103285883D01*
X106029411Y-103291258D01*
X106114431Y-103450321D01*
X106114435Y-103450327D01*
X106117306Y-103455698D01*
X106239459Y-103604541D01*
X106388302Y-103726694D01*
X106393674Y-103729565D01*
X106393678Y-103729568D01*
X106419227Y-103743224D01*
X106558117Y-103817462D01*
X106742376Y-103873357D01*
X106934000Y-103892230D01*
X107125624Y-103873357D01*
X107309883Y-103817462D01*
X107479698Y-103726694D01*
X107580936Y-103643609D01*
X107644421Y-103616396D01*
X107712617Y-103627368D01*
X107764362Y-103673123D01*
X107783600Y-103739463D01*
X107783600Y-104620537D01*
X107764362Y-104686877D01*
X107712617Y-104732632D01*
X107644421Y-104743604D01*
X107580936Y-104716390D01*
X107479698Y-104633306D01*
X107474327Y-104630435D01*
X107474321Y-104630431D01*
X107315258Y-104545411D01*
X107309883Y-104542538D01*
X107304055Y-104540770D01*
X107304050Y-104540768D01*
X107131458Y-104488412D01*
X107131450Y-104488410D01*
X107125624Y-104486643D01*
X107119565Y-104486046D01*
X107119559Y-104486045D01*
X106940062Y-104468367D01*
X106934000Y-104467770D01*
X106927938Y-104468367D01*
X106748440Y-104486045D01*
X106748432Y-104486046D01*
X106742376Y-104486643D01*
X106736551Y-104488410D01*
X106736541Y-104488412D01*
X106563949Y-104540768D01*
X106563941Y-104540771D01*
X106558117Y-104542538D01*
X106552745Y-104545409D01*
X106552741Y-104545411D01*
X106393678Y-104630431D01*
X106393667Y-104630438D01*
X106388302Y-104633306D01*
X106383594Y-104637169D01*
X106383589Y-104637173D01*
X106244165Y-104751596D01*
X106244160Y-104751600D01*
X106239459Y-104755459D01*
X106235600Y-104760160D01*
X106235596Y-104760165D01*
X106121173Y-104899589D01*
X106121169Y-104899594D01*
X106117306Y-104904302D01*
X106114438Y-104909667D01*
X106114431Y-104909678D01*
X106029411Y-105068741D01*
X106029409Y-105068745D01*
X106026538Y-105074117D01*
X106024771Y-105079941D01*
X106024768Y-105079949D01*
X105972412Y-105252541D01*
X105972410Y-105252551D01*
X105970643Y-105258376D01*
X105970046Y-105264432D01*
X105970045Y-105264440D01*
X105952367Y-105443938D01*
X105951770Y-105450000D01*
X105952367Y-105456062D01*
X105970045Y-105635559D01*
X105970046Y-105635565D01*
X105970643Y-105641624D01*
X105972410Y-105647450D01*
X105972412Y-105647458D01*
X106024768Y-105820050D01*
X106024770Y-105820055D01*
X106026538Y-105825883D01*
X106029411Y-105831258D01*
X106114431Y-105990321D01*
X106114435Y-105990327D01*
X106117306Y-105995698D01*
X106239459Y-106144541D01*
X106388302Y-106266694D01*
X106393674Y-106269565D01*
X106393678Y-106269568D01*
X106436774Y-106292603D01*
X106558117Y-106357462D01*
X106742376Y-106413357D01*
X106897989Y-106428683D01*
X106962123Y-106454331D01*
X107002586Y-106510311D01*
X107006822Y-106579254D01*
X106973516Y-106639767D01*
X106822840Y-106790443D01*
X106821641Y-106791514D01*
X106811851Y-106796230D01*
X106803144Y-106807147D01*
X106803142Y-106807149D01*
X106795692Y-106816491D01*
X106790583Y-106822208D01*
X106788640Y-106824643D01*
X106783725Y-106829560D01*
X106780026Y-106835445D01*
X106778074Y-106837894D01*
X106773644Y-106844137D01*
X106766198Y-106853473D01*
X106766194Y-106853480D01*
X106757489Y-106864397D01*
X106755009Y-106875260D01*
X106749082Y-106884694D01*
X106747518Y-106898572D01*
X106747518Y-106898573D01*
X106746182Y-106910431D01*
X106744900Y-106917976D01*
X106744549Y-106921091D01*
X106743000Y-106927879D01*
X106743000Y-106934843D01*
X106742649Y-106937959D01*
X106742220Y-106945599D01*
X106741896Y-106948474D01*
X106727482Y-106994063D01*
X106696891Y-107030808D01*
X106654672Y-107053248D01*
X106563949Y-107080768D01*
X106563941Y-107080771D01*
X106558117Y-107082538D01*
X106552745Y-107085409D01*
X106552741Y-107085411D01*
X106393678Y-107170431D01*
X106393667Y-107170438D01*
X106388302Y-107173306D01*
X106383594Y-107177169D01*
X106383589Y-107177173D01*
X106244165Y-107291596D01*
X106244160Y-107291600D01*
X106239459Y-107295459D01*
X106235600Y-107300160D01*
X106235596Y-107300165D01*
X106121173Y-107439589D01*
X106121169Y-107439594D01*
X106117306Y-107444302D01*
X106114438Y-107449667D01*
X106114431Y-107449678D01*
X106029411Y-107608741D01*
X106029409Y-107608745D01*
X106026538Y-107614117D01*
X106024771Y-107619941D01*
X106024768Y-107619949D01*
X105972412Y-107792541D01*
X105972410Y-107792551D01*
X105970643Y-107798376D01*
X105970046Y-107804432D01*
X105970045Y-107804440D01*
X105958635Y-107920296D01*
X105951770Y-107990000D01*
X105952367Y-107996062D01*
X105970045Y-108175559D01*
X105970046Y-108175565D01*
X105970643Y-108181624D01*
X105972410Y-108187450D01*
X105972412Y-108187458D01*
X106024768Y-108360050D01*
X106024770Y-108360055D01*
X106026538Y-108365883D01*
X106029411Y-108371258D01*
X106114431Y-108530321D01*
X106114435Y-108530327D01*
X106117306Y-108535698D01*
X106239459Y-108684541D01*
X106388302Y-108806694D01*
X106393674Y-108809565D01*
X106393678Y-108809568D01*
X106468688Y-108849661D01*
X106558117Y-108897462D01*
X106742376Y-108953357D01*
X106934000Y-108972230D01*
X107125624Y-108953357D01*
X107309883Y-108897462D01*
X107479698Y-108806694D01*
X107628541Y-108684541D01*
X107750694Y-108535698D01*
X107804441Y-108435143D01*
X107849010Y-108387869D01*
X107911366Y-108369620D01*
X107974389Y-108385407D01*
X108020779Y-108430895D01*
X108037800Y-108493596D01*
X108037800Y-110026404D01*
X108020779Y-110089105D01*
X107974389Y-110134593D01*
X107911366Y-110150380D01*
X107849010Y-110132131D01*
X107804442Y-110084857D01*
X107753568Y-109989679D01*
X107750694Y-109984302D01*
X107628541Y-109835459D01*
X107479698Y-109713306D01*
X107474327Y-109710435D01*
X107474321Y-109710431D01*
X107315258Y-109625411D01*
X107309883Y-109622538D01*
X107304055Y-109620770D01*
X107304050Y-109620768D01*
X107131458Y-109568412D01*
X107131450Y-109568410D01*
X107125624Y-109566643D01*
X107119565Y-109566046D01*
X107119559Y-109566045D01*
X106940062Y-109548367D01*
X106934000Y-109547770D01*
X106927938Y-109548367D01*
X106748440Y-109566045D01*
X106748432Y-109566046D01*
X106742376Y-109566643D01*
X106736551Y-109568410D01*
X106736541Y-109568412D01*
X106563949Y-109620768D01*
X106563941Y-109620771D01*
X106558117Y-109622538D01*
X106552745Y-109625409D01*
X106552741Y-109625411D01*
X106393678Y-109710431D01*
X106393667Y-109710438D01*
X106388302Y-109713306D01*
X106383594Y-109717169D01*
X106383589Y-109717173D01*
X106244165Y-109831596D01*
X106244160Y-109831600D01*
X106239459Y-109835459D01*
X106235600Y-109840160D01*
X106235596Y-109840165D01*
X106121173Y-109979589D01*
X106121169Y-109979594D01*
X106117306Y-109984302D01*
X106114438Y-109989667D01*
X106114431Y-109989678D01*
X106029411Y-110148741D01*
X106029409Y-110148745D01*
X106026538Y-110154117D01*
X106024771Y-110159941D01*
X106024768Y-110159949D01*
X105972412Y-110332541D01*
X105972410Y-110332551D01*
X105970643Y-110338376D01*
X105970046Y-110344432D01*
X105970045Y-110344440D01*
X105952367Y-110523938D01*
X105951770Y-110530000D01*
X105952367Y-110536062D01*
X105970045Y-110715559D01*
X105970046Y-110715565D01*
X105970643Y-110721624D01*
X105972410Y-110727450D01*
X105972412Y-110727458D01*
X106024768Y-110900050D01*
X106024770Y-110900055D01*
X106026538Y-110905883D01*
X106029411Y-110911258D01*
X106114431Y-111070321D01*
X106114435Y-111070327D01*
X106117306Y-111075698D01*
X106239459Y-111224541D01*
X106388302Y-111346694D01*
X106393674Y-111349565D01*
X106393678Y-111349568D01*
X106473209Y-111392078D01*
X106558117Y-111437462D01*
X106742376Y-111493357D01*
X106897989Y-111508683D01*
X106962123Y-111534331D01*
X107002586Y-111590311D01*
X107006822Y-111659254D01*
X106973516Y-111719767D01*
X106822840Y-111870443D01*
X106821641Y-111871514D01*
X106811851Y-111876230D01*
X106803144Y-111887147D01*
X106803142Y-111887149D01*
X106795692Y-111896491D01*
X106790583Y-111902208D01*
X106788640Y-111904643D01*
X106783725Y-111909560D01*
X106780026Y-111915445D01*
X106778074Y-111917894D01*
X106773644Y-111924137D01*
X106766198Y-111933473D01*
X106766194Y-111933480D01*
X106757489Y-111944397D01*
X106755009Y-111955260D01*
X106749082Y-111964694D01*
X106747518Y-111978572D01*
X106747518Y-111978573D01*
X106746182Y-111990431D01*
X106744900Y-111997976D01*
X106744549Y-112001091D01*
X106743000Y-112007879D01*
X106743000Y-112014843D01*
X106742649Y-112017959D01*
X106742220Y-112025599D01*
X106741896Y-112028474D01*
X106727482Y-112074063D01*
X106696891Y-112110808D01*
X106654672Y-112133248D01*
X106563949Y-112160768D01*
X106563941Y-112160771D01*
X106558117Y-112162538D01*
X106552745Y-112165409D01*
X106552741Y-112165411D01*
X106393678Y-112250431D01*
X106393667Y-112250438D01*
X106388302Y-112253306D01*
X106383594Y-112257169D01*
X106383589Y-112257173D01*
X106244165Y-112371596D01*
X106244160Y-112371600D01*
X106239459Y-112375459D01*
X106235600Y-112380160D01*
X106235596Y-112380165D01*
X106121173Y-112519589D01*
X106121169Y-112519594D01*
X106117306Y-112524302D01*
X106114438Y-112529667D01*
X106114431Y-112529678D01*
X106029411Y-112688741D01*
X106029409Y-112688745D01*
X106026538Y-112694117D01*
X106024771Y-112699941D01*
X106024768Y-112699949D01*
X105972412Y-112872541D01*
X105972410Y-112872551D01*
X105970643Y-112878376D01*
X105970046Y-112884432D01*
X105970045Y-112884440D01*
X105952367Y-113063938D01*
X105951770Y-113070000D01*
X105952367Y-113076062D01*
X105970045Y-113255559D01*
X105970046Y-113255565D01*
X105970643Y-113261624D01*
X105972410Y-113267450D01*
X105972412Y-113267458D01*
X106024768Y-113440050D01*
X106024770Y-113440055D01*
X106026538Y-113445883D01*
X106029411Y-113451258D01*
X106114431Y-113610321D01*
X106114435Y-113610327D01*
X106117306Y-113615698D01*
X106239459Y-113764541D01*
X106388302Y-113886694D01*
X106393674Y-113889565D01*
X106393678Y-113889568D01*
X106473209Y-113932078D01*
X106558117Y-113977462D01*
X106742376Y-114033357D01*
X106934000Y-114052230D01*
X107125624Y-114033357D01*
X107309883Y-113977462D01*
X107479698Y-113886694D01*
X107628541Y-113764541D01*
X107750694Y-113615698D01*
X107841462Y-113445883D01*
X107897357Y-113261624D01*
X107916230Y-113070000D01*
X107897357Y-112878376D01*
X107841462Y-112694117D01*
X107750694Y-112524302D01*
X107628541Y-112375459D01*
X107479698Y-112253306D01*
X107474327Y-112250435D01*
X107474321Y-112250431D01*
X107315257Y-112165410D01*
X107315253Y-112165408D01*
X107310013Y-112162607D01*
X107310011Y-112162606D01*
X107309883Y-112162538D01*
X107309893Y-112162518D01*
X107263540Y-112128137D01*
X107237780Y-112073664D01*
X107240738Y-112013480D01*
X107271715Y-111961798D01*
X108339972Y-110893541D01*
X108341151Y-110892487D01*
X108350949Y-110887770D01*
X108367112Y-110867500D01*
X108372189Y-110861821D01*
X108374140Y-110859374D01*
X108379075Y-110854440D01*
X108382788Y-110848528D01*
X108384744Y-110846077D01*
X108389151Y-110839865D01*
X108405311Y-110819603D01*
X108407789Y-110808741D01*
X108413719Y-110799306D01*
X108416619Y-110773558D01*
X108417899Y-110766028D01*
X108418250Y-110762910D01*
X108419800Y-110756121D01*
X108419800Y-110749156D01*
X108420151Y-110746041D01*
X108420580Y-110738415D01*
X108421916Y-110726549D01*
X108421915Y-110726548D01*
X108423480Y-110712665D01*
X108419890Y-110702405D01*
X108419800Y-110700802D01*
X108419800Y-103790677D01*
X108429239Y-103743224D01*
X108456119Y-103702996D01*
X116944119Y-95214996D01*
X116993482Y-95184746D01*
X117051198Y-95180204D01*
X117104685Y-95202359D01*
X117142285Y-95246382D01*
X117155800Y-95302677D01*
X117155800Y-106566123D01*
X117146361Y-106613576D01*
X117119481Y-106653804D01*
X108123767Y-115649516D01*
X108063254Y-115682822D01*
X107994311Y-115678586D01*
X107938331Y-115638123D01*
X107912683Y-115573989D01*
X107897954Y-115424440D01*
X107897357Y-115418376D01*
X107841462Y-115234117D01*
X107750694Y-115064302D01*
X107628541Y-114915459D01*
X107479698Y-114793306D01*
X107474327Y-114790435D01*
X107474321Y-114790431D01*
X107315258Y-114705411D01*
X107309883Y-114702538D01*
X107304055Y-114700770D01*
X107304050Y-114700768D01*
X107131458Y-114648412D01*
X107131450Y-114648410D01*
X107125624Y-114646643D01*
X107119565Y-114646046D01*
X107119559Y-114646045D01*
X106940062Y-114628367D01*
X106934000Y-114627770D01*
X106927938Y-114628367D01*
X106748440Y-114646045D01*
X106748432Y-114646046D01*
X106742376Y-114646643D01*
X106736551Y-114648410D01*
X106736541Y-114648412D01*
X106563949Y-114700768D01*
X106563941Y-114700771D01*
X106558117Y-114702538D01*
X106552745Y-114705409D01*
X106552741Y-114705411D01*
X106393678Y-114790431D01*
X106393667Y-114790438D01*
X106388302Y-114793306D01*
X106383594Y-114797169D01*
X106383589Y-114797173D01*
X106244165Y-114911596D01*
X106244160Y-114911600D01*
X106239459Y-114915459D01*
X106235600Y-114920160D01*
X106235596Y-114920165D01*
X106121173Y-115059589D01*
X106121169Y-115059594D01*
X106117306Y-115064302D01*
X106114438Y-115069667D01*
X106114431Y-115069678D01*
X106029411Y-115228741D01*
X106029409Y-115228745D01*
X106026538Y-115234117D01*
X106024771Y-115239941D01*
X106024768Y-115239949D01*
X105972412Y-115412541D01*
X105972410Y-115412551D01*
X105970643Y-115418376D01*
X105970046Y-115424432D01*
X105970045Y-115424440D01*
X105955317Y-115573989D01*
X105951770Y-115610000D01*
X105952367Y-115616062D01*
X105970045Y-115795559D01*
X105970046Y-115795565D01*
X105970643Y-115801624D01*
X105972410Y-115807450D01*
X105972412Y-115807458D01*
X106024768Y-115980050D01*
X106024770Y-115980055D01*
X106026538Y-115985883D01*
X106029411Y-115991258D01*
X106114431Y-116150321D01*
X106114435Y-116150327D01*
X106117306Y-116155698D01*
X106239459Y-116304541D01*
X106388302Y-116426694D01*
X106393674Y-116429565D01*
X106393678Y-116429568D01*
X106473209Y-116472077D01*
X106558117Y-116517462D01*
X106742376Y-116573357D01*
X106897989Y-116588683D01*
X106962123Y-116614331D01*
X107002586Y-116670311D01*
X107006822Y-116739254D01*
X106973516Y-116799767D01*
X106822840Y-116950443D01*
X106821641Y-116951514D01*
X106811851Y-116956230D01*
X106803144Y-116967147D01*
X106803142Y-116967149D01*
X106795692Y-116976491D01*
X106790583Y-116982208D01*
X106788640Y-116984643D01*
X106783725Y-116989560D01*
X106780026Y-116995445D01*
X106778074Y-116997894D01*
X106773644Y-117004137D01*
X106766198Y-117013473D01*
X106766194Y-117013480D01*
X106757489Y-117024397D01*
X106755009Y-117035260D01*
X106749082Y-117044694D01*
X106747518Y-117058572D01*
X106747518Y-117058573D01*
X106746182Y-117070431D01*
X106744900Y-117077976D01*
X106744549Y-117081091D01*
X106743000Y-117087879D01*
X106743000Y-117094843D01*
X106742649Y-117097959D01*
X106742220Y-117105599D01*
X106741896Y-117108474D01*
X106727482Y-117154063D01*
X106696891Y-117190808D01*
X106654672Y-117213248D01*
X106563949Y-117240768D01*
X106563941Y-117240771D01*
X106558117Y-117242538D01*
X106552745Y-117245409D01*
X106552741Y-117245411D01*
X106393678Y-117330431D01*
X106393667Y-117330438D01*
X106388302Y-117333306D01*
X106383594Y-117337169D01*
X106383589Y-117337173D01*
X106244165Y-117451596D01*
X106244160Y-117451600D01*
X106239459Y-117455459D01*
X106235600Y-117460160D01*
X106235596Y-117460165D01*
X106121173Y-117599589D01*
X106121169Y-117599594D01*
X106117306Y-117604302D01*
X106114438Y-117609667D01*
X106114431Y-117609678D01*
X106029411Y-117768741D01*
X106029409Y-117768745D01*
X106026538Y-117774117D01*
X106024771Y-117779941D01*
X106024768Y-117779949D01*
X105972412Y-117952541D01*
X105972410Y-117952551D01*
X105970643Y-117958376D01*
X105970046Y-117964432D01*
X105970045Y-117964440D01*
X105952367Y-118143938D01*
X105951770Y-118150000D01*
X105952367Y-118156062D01*
X105970045Y-118335559D01*
X105970046Y-118335565D01*
X105970643Y-118341624D01*
X105972410Y-118347450D01*
X105972412Y-118347458D01*
X106024768Y-118520050D01*
X106024770Y-118520055D01*
X106026538Y-118525883D01*
X106029411Y-118531258D01*
X106114431Y-118690321D01*
X106114435Y-118690327D01*
X106117306Y-118695698D01*
X106239459Y-118844541D01*
X106388302Y-118966694D01*
X106393674Y-118969565D01*
X106393678Y-118969568D01*
X106473209Y-119012077D01*
X106558117Y-119057462D01*
X106742376Y-119113357D01*
X106934000Y-119132230D01*
X107125624Y-119113357D01*
X107309883Y-119057462D01*
X107479698Y-118966694D01*
X107628541Y-118844541D01*
X107750694Y-118695698D01*
X107841462Y-118525883D01*
X107897357Y-118341624D01*
X107916230Y-118150000D01*
X107897357Y-117958376D01*
X107841462Y-117774117D01*
X107750694Y-117604302D01*
X107628541Y-117455459D01*
X107479698Y-117333306D01*
X107474327Y-117330435D01*
X107474321Y-117330431D01*
X107315257Y-117245410D01*
X107315253Y-117245408D01*
X107310013Y-117242607D01*
X107310011Y-117242606D01*
X107309883Y-117242538D01*
X107309893Y-117242518D01*
X107263540Y-117208137D01*
X107237780Y-117153664D01*
X107240738Y-117093480D01*
X107271715Y-117041798D01*
X117457972Y-106855541D01*
X117459151Y-106854487D01*
X117468949Y-106849770D01*
X117485112Y-106829500D01*
X117490187Y-106823824D01*
X117492141Y-106821372D01*
X117497075Y-106816440D01*
X117500787Y-106810530D01*
X117502752Y-106808067D01*
X117507161Y-106801854D01*
X117514597Y-106792530D01*
X117514597Y-106792528D01*
X117523311Y-106781603D01*
X117525790Y-106770739D01*
X117531718Y-106761306D01*
X117534616Y-106735571D01*
X117535895Y-106728048D01*
X117536247Y-106724920D01*
X117537800Y-106718121D01*
X117537800Y-106711145D01*
X117538150Y-106708039D01*
X117538580Y-106700403D01*
X117541480Y-106674665D01*
X117537889Y-106664404D01*
X117537800Y-106662808D01*
X117537800Y-95053677D01*
X117547239Y-95006224D01*
X117574119Y-94965996D01*
X119394155Y-93145960D01*
X121219119Y-91320994D01*
X121268482Y-91290745D01*
X121326198Y-91286203D01*
X121379685Y-91308358D01*
X121417285Y-91352381D01*
X121430800Y-91408676D01*
X121430800Y-107371123D01*
X121421361Y-107418576D01*
X121394481Y-107458804D01*
X108123767Y-120729516D01*
X108063254Y-120762822D01*
X107994311Y-120758586D01*
X107938331Y-120718123D01*
X107912683Y-120653989D01*
X107897954Y-120504440D01*
X107897357Y-120498376D01*
X107841462Y-120314117D01*
X107750694Y-120144302D01*
X107628541Y-119995459D01*
X107479698Y-119873306D01*
X107474327Y-119870435D01*
X107474321Y-119870431D01*
X107315258Y-119785411D01*
X107309883Y-119782538D01*
X107304055Y-119780770D01*
X107304050Y-119780768D01*
X107131458Y-119728412D01*
X107131450Y-119728410D01*
X107125624Y-119726643D01*
X107119565Y-119726046D01*
X107119559Y-119726045D01*
X106940062Y-119708367D01*
X106934000Y-119707770D01*
X106927938Y-119708367D01*
X106748440Y-119726045D01*
X106748432Y-119726046D01*
X106742376Y-119726643D01*
X106736551Y-119728410D01*
X106736541Y-119728412D01*
X106563949Y-119780768D01*
X106563941Y-119780771D01*
X106558117Y-119782538D01*
X106552745Y-119785409D01*
X106552741Y-119785411D01*
X106393678Y-119870431D01*
X106393667Y-119870438D01*
X106388302Y-119873306D01*
X106383594Y-119877169D01*
X106383589Y-119877173D01*
X106244165Y-119991596D01*
X106244160Y-119991600D01*
X106239459Y-119995459D01*
X106235600Y-120000160D01*
X106235596Y-120000165D01*
X106121173Y-120139589D01*
X106121169Y-120139594D01*
X106117306Y-120144302D01*
X106114438Y-120149667D01*
X106114431Y-120149678D01*
X106029411Y-120308741D01*
X106029409Y-120308745D01*
X106026538Y-120314117D01*
X106024771Y-120319941D01*
X106024768Y-120319949D01*
X105972412Y-120492541D01*
X105972410Y-120492551D01*
X105970643Y-120498376D01*
X105970046Y-120504432D01*
X105970045Y-120504440D01*
X105955317Y-120653989D01*
X105951770Y-120690000D01*
X105952367Y-120696062D01*
X105970045Y-120875559D01*
X105970046Y-120875565D01*
X105970643Y-120881624D01*
X105972410Y-120887450D01*
X105972412Y-120887458D01*
X106024768Y-121060050D01*
X106024770Y-121060055D01*
X106026538Y-121065883D01*
X106029411Y-121071258D01*
X106114431Y-121230321D01*
X106114435Y-121230327D01*
X106117306Y-121235698D01*
X106239459Y-121384541D01*
X106388302Y-121506694D01*
X106393674Y-121509565D01*
X106393678Y-121509568D01*
X106473209Y-121552078D01*
X106558117Y-121597462D01*
X106742376Y-121653357D01*
X106897989Y-121668683D01*
X106962123Y-121694331D01*
X107002586Y-121750311D01*
X107006822Y-121819254D01*
X106973516Y-121879767D01*
X106822840Y-122030443D01*
X106821641Y-122031514D01*
X106811851Y-122036230D01*
X106803144Y-122047147D01*
X106803142Y-122047149D01*
X106795692Y-122056491D01*
X106790583Y-122062208D01*
X106788640Y-122064643D01*
X106783725Y-122069560D01*
X106780026Y-122075445D01*
X106778074Y-122077894D01*
X106773644Y-122084137D01*
X106766198Y-122093473D01*
X106766194Y-122093480D01*
X106757489Y-122104397D01*
X106755009Y-122115260D01*
X106749082Y-122124694D01*
X106747518Y-122138572D01*
X106747518Y-122138573D01*
X106746182Y-122150431D01*
X106744900Y-122157976D01*
X106744549Y-122161091D01*
X106743000Y-122167879D01*
X106743000Y-122174843D01*
X106742649Y-122177959D01*
X106742220Y-122185599D01*
X106741896Y-122188474D01*
X106727482Y-122234063D01*
X106696891Y-122270808D01*
X106654672Y-122293248D01*
X106563949Y-122320768D01*
X106563941Y-122320771D01*
X106558117Y-122322538D01*
X106552745Y-122325409D01*
X106552741Y-122325411D01*
X106393678Y-122410431D01*
X106393667Y-122410438D01*
X106388302Y-122413306D01*
X106383594Y-122417169D01*
X106383589Y-122417173D01*
X106244165Y-122531596D01*
X106244160Y-122531600D01*
X106239459Y-122535459D01*
X106235600Y-122540160D01*
X106235596Y-122540165D01*
X106121173Y-122679589D01*
X106121169Y-122679594D01*
X106117306Y-122684302D01*
X106114438Y-122689667D01*
X106114431Y-122689678D01*
X106029411Y-122848741D01*
X106029409Y-122848745D01*
X106026538Y-122854117D01*
X106024771Y-122859941D01*
X106024768Y-122859949D01*
X105972412Y-123032541D01*
X105972410Y-123032551D01*
X105970643Y-123038376D01*
X105970046Y-123044432D01*
X105970045Y-123044440D01*
X105952367Y-123223938D01*
X105951770Y-123230000D01*
X105952367Y-123236062D01*
X105970045Y-123415559D01*
X105970046Y-123415565D01*
X105970643Y-123421624D01*
X105972410Y-123427450D01*
X105972412Y-123427458D01*
X106024768Y-123600050D01*
X106024770Y-123600055D01*
X106026538Y-123605883D01*
X106029411Y-123611258D01*
X106114431Y-123770321D01*
X106114435Y-123770327D01*
X106117306Y-123775698D01*
X106239459Y-123924541D01*
X106388302Y-124046694D01*
X106393674Y-124049565D01*
X106393678Y-124049568D01*
X106553058Y-124134758D01*
X106595986Y-124172716D01*
X106617263Y-124225921D01*
X106612346Y-124283013D01*
X106582286Y-124331797D01*
X105501540Y-125412543D01*
X105500341Y-125413614D01*
X105490551Y-125418330D01*
X105481844Y-125429247D01*
X105481842Y-125429249D01*
X105474392Y-125438591D01*
X105469283Y-125444308D01*
X105467340Y-125446743D01*
X105462425Y-125451660D01*
X105458726Y-125457545D01*
X105456774Y-125459994D01*
X105452344Y-125466237D01*
X105444898Y-125475573D01*
X105444894Y-125475580D01*
X105436189Y-125486497D01*
X105433709Y-125497360D01*
X105427782Y-125506794D01*
X105426218Y-125520672D01*
X105426218Y-125520673D01*
X105424882Y-125532531D01*
X105423600Y-125540076D01*
X105423249Y-125543191D01*
X105421700Y-125549979D01*
X105421700Y-125556944D01*
X105421349Y-125560060D01*
X105420920Y-125567697D01*
X105419717Y-125578376D01*
X105418020Y-125593435D01*
X105421610Y-125603695D01*
X105421700Y-125605292D01*
X105421700Y-136107908D01*
X105421610Y-136109504D01*
X105418020Y-136119765D01*
X104785500Y-136119765D01*
X104785500Y-100370000D01*
X105951770Y-100370000D01*
X105952367Y-100376062D01*
X105970045Y-100555559D01*
X105970046Y-100555565D01*
X105970643Y-100561624D01*
X105972410Y-100567450D01*
X105972412Y-100567458D01*
X106024768Y-100740050D01*
X106024770Y-100740055D01*
X106026538Y-100745883D01*
X106029411Y-100751258D01*
X106114431Y-100910321D01*
X106114435Y-100910327D01*
X106117306Y-100915698D01*
X106239459Y-101064541D01*
X106388302Y-101186694D01*
X106393674Y-101189565D01*
X106393678Y-101189568D01*
X106473209Y-101232077D01*
X106558117Y-101277462D01*
X106742376Y-101333357D01*
X106934000Y-101352230D01*
X107125624Y-101333357D01*
X107309883Y-101277462D01*
X107479698Y-101186694D01*
X107628541Y-101064541D01*
X107750694Y-100915698D01*
X107841462Y-100745883D01*
X107897357Y-100561624D01*
X107916230Y-100370000D01*
X107897357Y-100178376D01*
X107841462Y-99994117D01*
X107750694Y-99824302D01*
X107628541Y-99675459D01*
X107479698Y-99553306D01*
X107474327Y-99550435D01*
X107474321Y-99550431D01*
X107315258Y-99465411D01*
X107309883Y-99462538D01*
X107304055Y-99460770D01*
X107304050Y-99460768D01*
X107131458Y-99408412D01*
X107131450Y-99408410D01*
X107125624Y-99406643D01*
X107119565Y-99406046D01*
X107119559Y-99406045D01*
X106940062Y-99388367D01*
X106934000Y-99387770D01*
X106927938Y-99388367D01*
X106748440Y-99406045D01*
X106748432Y-99406046D01*
X106742376Y-99406643D01*
X106736551Y-99408410D01*
X106736541Y-99408412D01*
X106563949Y-99460768D01*
X106563941Y-99460771D01*
X106558117Y-99462538D01*
X106552745Y-99465409D01*
X106552741Y-99465411D01*
X106393678Y-99550431D01*
X106393667Y-99550438D01*
X106388302Y-99553306D01*
X106383594Y-99557169D01*
X106383589Y-99557173D01*
X106244165Y-99671596D01*
X106244160Y-99671600D01*
X106239459Y-99675459D01*
X106235600Y-99680160D01*
X106235596Y-99680165D01*
X106121173Y-99819589D01*
X106121169Y-99819594D01*
X106117306Y-99824302D01*
X106114438Y-99829667D01*
X106114431Y-99829678D01*
X106029411Y-99988741D01*
X106029409Y-99988745D01*
X106026538Y-99994117D01*
X106024771Y-99999941D01*
X106024768Y-99999949D01*
X105972412Y-100172541D01*
X105972410Y-100172551D01*
X105970643Y-100178376D01*
X105970046Y-100184432D01*
X105970045Y-100184440D01*
X105952367Y-100363938D01*
X105951770Y-100370000D01*
X104785500Y-100370000D01*
X104785500Y-97830000D01*
X105951770Y-97830000D01*
X105952367Y-97836062D01*
X105970045Y-98015559D01*
X105970046Y-98015565D01*
X105970643Y-98021624D01*
X105972410Y-98027450D01*
X105972412Y-98027458D01*
X106024768Y-98200050D01*
X106024770Y-98200055D01*
X106026538Y-98205883D01*
X106029411Y-98211258D01*
X106114431Y-98370321D01*
X106114435Y-98370327D01*
X106117306Y-98375698D01*
X106121172Y-98380409D01*
X106121173Y-98380410D01*
X106235596Y-98519834D01*
X106239459Y-98524541D01*
X106388302Y-98646694D01*
X106393674Y-98649565D01*
X106393678Y-98649568D01*
X106459105Y-98684539D01*
X106558117Y-98737462D01*
X106742376Y-98793357D01*
X106934000Y-98812230D01*
X107125624Y-98793357D01*
X107309883Y-98737462D01*
X107479698Y-98646694D01*
X107628541Y-98524541D01*
X107750694Y-98375698D01*
X107841462Y-98205883D01*
X107897357Y-98021624D01*
X107916230Y-97830000D01*
X107897357Y-97638376D01*
X107841462Y-97454117D01*
X107796077Y-97369209D01*
X107753568Y-97289678D01*
X107753565Y-97289674D01*
X107750694Y-97284302D01*
X107628541Y-97135459D01*
X107616993Y-97125982D01*
X107484410Y-97017173D01*
X107484409Y-97017172D01*
X107479698Y-97013306D01*
X107474327Y-97010435D01*
X107474321Y-97010431D01*
X107315258Y-96925411D01*
X107309883Y-96922538D01*
X107304055Y-96920770D01*
X107304050Y-96920768D01*
X107131458Y-96868412D01*
X107131450Y-96868410D01*
X107125624Y-96866643D01*
X107119565Y-96866046D01*
X107119559Y-96866045D01*
X106940062Y-96848367D01*
X106934000Y-96847770D01*
X106927938Y-96848367D01*
X106748440Y-96866045D01*
X106748432Y-96866046D01*
X106742376Y-96866643D01*
X106736551Y-96868410D01*
X106736541Y-96868412D01*
X106563949Y-96920768D01*
X106563941Y-96920771D01*
X106558117Y-96922538D01*
X106552745Y-96925409D01*
X106552741Y-96925411D01*
X106393678Y-97010431D01*
X106393667Y-97010438D01*
X106388302Y-97013306D01*
X106383594Y-97017169D01*
X106383589Y-97017173D01*
X106244165Y-97131596D01*
X106244160Y-97131600D01*
X106239459Y-97135459D01*
X106235600Y-97140160D01*
X106235596Y-97140165D01*
X106121173Y-97279589D01*
X106121169Y-97279594D01*
X106117306Y-97284302D01*
X106114438Y-97289667D01*
X106114431Y-97289678D01*
X106029411Y-97448741D01*
X106029409Y-97448745D01*
X106026538Y-97454117D01*
X106024771Y-97459941D01*
X106024768Y-97459949D01*
X105972412Y-97632541D01*
X105972410Y-97632551D01*
X105970643Y-97638376D01*
X105970046Y-97644432D01*
X105970045Y-97644440D01*
X105952367Y-97823938D01*
X105951770Y-97830000D01*
X104785500Y-97830000D01*
X104785500Y-95290000D01*
X105951770Y-95290000D01*
X105952367Y-95296062D01*
X105970045Y-95475559D01*
X105970046Y-95475565D01*
X105970643Y-95481624D01*
X105972410Y-95487450D01*
X105972412Y-95487458D01*
X106024768Y-95660050D01*
X106024770Y-95660055D01*
X106026538Y-95665883D01*
X106029411Y-95671258D01*
X106114431Y-95830321D01*
X106114435Y-95830327D01*
X106117306Y-95835698D01*
X106121172Y-95840409D01*
X106121173Y-95840410D01*
X106205160Y-95942748D01*
X106239459Y-95984541D01*
X106388302Y-96106694D01*
X106393674Y-96109565D01*
X106393678Y-96109568D01*
X106450804Y-96140102D01*
X106558117Y-96197462D01*
X106742376Y-96253357D01*
X106899847Y-96268866D01*
X106903641Y-96269240D01*
X106934000Y-96272230D01*
X107125624Y-96253357D01*
X107309883Y-96197462D01*
X107479698Y-96106694D01*
X107628541Y-95984541D01*
X107750694Y-95835698D01*
X107841462Y-95665883D01*
X107897357Y-95481624D01*
X107916230Y-95290000D01*
X107897357Y-95098376D01*
X107841462Y-94914117D01*
X107770903Y-94782110D01*
X107753568Y-94749678D01*
X107753565Y-94749674D01*
X107750694Y-94744302D01*
X107628541Y-94595459D01*
X107479698Y-94473306D01*
X107474327Y-94470435D01*
X107474321Y-94470431D01*
X107315258Y-94385411D01*
X107309883Y-94382538D01*
X107304055Y-94380770D01*
X107304050Y-94380768D01*
X107131458Y-94328412D01*
X107131450Y-94328410D01*
X107125624Y-94326643D01*
X107119565Y-94326046D01*
X107119559Y-94326045D01*
X106940062Y-94308367D01*
X106934000Y-94307770D01*
X106927938Y-94308367D01*
X106748440Y-94326045D01*
X106748432Y-94326046D01*
X106742376Y-94326643D01*
X106736551Y-94328410D01*
X106736541Y-94328412D01*
X106563949Y-94380768D01*
X106563941Y-94380771D01*
X106558117Y-94382538D01*
X106552745Y-94385409D01*
X106552741Y-94385411D01*
X106393678Y-94470431D01*
X106393667Y-94470438D01*
X106388302Y-94473306D01*
X106383594Y-94477169D01*
X106383589Y-94477173D01*
X106244165Y-94591596D01*
X106244160Y-94591600D01*
X106239459Y-94595459D01*
X106235600Y-94600160D01*
X106235596Y-94600165D01*
X106121173Y-94739589D01*
X106121169Y-94739594D01*
X106117306Y-94744302D01*
X106114438Y-94749667D01*
X106114431Y-94749678D01*
X106029411Y-94908741D01*
X106029409Y-94908745D01*
X106026538Y-94914117D01*
X106024771Y-94919941D01*
X106024768Y-94919949D01*
X105972412Y-95092541D01*
X105972410Y-95092551D01*
X105970643Y-95098376D01*
X105970046Y-95104432D01*
X105970045Y-95104440D01*
X105959460Y-95211922D01*
X105951770Y-95290000D01*
X104785500Y-95290000D01*
X104785500Y-92750000D01*
X105951770Y-92750000D01*
X105952367Y-92756062D01*
X105970045Y-92935559D01*
X105970046Y-92935565D01*
X105970643Y-92941624D01*
X105972410Y-92947450D01*
X105972412Y-92947458D01*
X106024768Y-93120050D01*
X106024770Y-93120055D01*
X106026538Y-93125883D01*
X106029411Y-93131258D01*
X106114431Y-93290321D01*
X106114435Y-93290327D01*
X106117306Y-93295698D01*
X106121172Y-93300409D01*
X106121173Y-93300410D01*
X106212689Y-93411922D01*
X106239459Y-93444541D01*
X106388302Y-93566694D01*
X106393674Y-93569565D01*
X106393678Y-93569568D01*
X106443878Y-93596400D01*
X106558117Y-93657462D01*
X106742376Y-93713357D01*
X106934000Y-93732230D01*
X107125624Y-93713357D01*
X107309883Y-93657462D01*
X107479698Y-93566694D01*
X107628541Y-93444541D01*
X107750694Y-93295698D01*
X107841462Y-93125883D01*
X107897357Y-92941624D01*
X107916230Y-92750000D01*
X107897357Y-92558376D01*
X107841462Y-92374117D01*
X107773784Y-92247500D01*
X107753568Y-92209678D01*
X107753565Y-92209674D01*
X107750694Y-92204302D01*
X107628541Y-92055459D01*
X107479698Y-91933306D01*
X107474327Y-91930435D01*
X107474321Y-91930431D01*
X107315258Y-91845411D01*
X107309883Y-91842538D01*
X107304055Y-91840770D01*
X107304050Y-91840768D01*
X107131458Y-91788412D01*
X107131450Y-91788410D01*
X107125624Y-91786643D01*
X107119565Y-91786046D01*
X107119559Y-91786045D01*
X106940062Y-91768367D01*
X106934000Y-91767770D01*
X106927938Y-91768367D01*
X106748440Y-91786045D01*
X106748432Y-91786046D01*
X106742376Y-91786643D01*
X106736551Y-91788410D01*
X106736541Y-91788412D01*
X106563949Y-91840768D01*
X106563941Y-91840771D01*
X106558117Y-91842538D01*
X106552745Y-91845409D01*
X106552741Y-91845411D01*
X106393678Y-91930431D01*
X106393667Y-91930438D01*
X106388302Y-91933306D01*
X106383594Y-91937169D01*
X106383589Y-91937173D01*
X106244165Y-92051596D01*
X106244160Y-92051600D01*
X106239459Y-92055459D01*
X106235600Y-92060160D01*
X106235596Y-92060165D01*
X106121173Y-92199589D01*
X106121169Y-92199594D01*
X106117306Y-92204302D01*
X106114438Y-92209667D01*
X106114431Y-92209678D01*
X106029411Y-92368741D01*
X106029409Y-92368745D01*
X106026538Y-92374117D01*
X106024771Y-92379941D01*
X106024768Y-92379949D01*
X105972412Y-92552541D01*
X105972410Y-92552551D01*
X105970643Y-92558376D01*
X105970046Y-92564432D01*
X105970045Y-92564440D01*
X105955361Y-92713536D01*
X105951770Y-92750000D01*
X104785500Y-92750000D01*
X104785500Y-90210000D01*
X105951770Y-90210000D01*
X105952367Y-90216062D01*
X105970045Y-90395559D01*
X105970046Y-90395565D01*
X105970643Y-90401624D01*
X105972410Y-90407450D01*
X105972412Y-90407458D01*
X106024768Y-90580050D01*
X106024770Y-90580055D01*
X106026538Y-90585883D01*
X106029411Y-90591258D01*
X106114431Y-90750321D01*
X106114435Y-90750327D01*
X106117306Y-90755698D01*
X106121172Y-90760409D01*
X106121173Y-90760410D01*
X106228777Y-90891525D01*
X106239459Y-90904541D01*
X106388302Y-91026694D01*
X106393674Y-91029565D01*
X106393678Y-91029568D01*
X106465234Y-91067815D01*
X106558117Y-91117462D01*
X106742376Y-91173357D01*
X106934000Y-91192230D01*
X107125624Y-91173357D01*
X107309883Y-91117462D01*
X107479698Y-91026694D01*
X107628541Y-90904541D01*
X107750694Y-90755698D01*
X107841462Y-90585883D01*
X107897357Y-90401624D01*
X107916230Y-90210000D01*
X107897357Y-90018376D01*
X107841462Y-89834117D01*
X107783920Y-89726464D01*
X107753568Y-89669678D01*
X107753565Y-89669674D01*
X107750694Y-89664302D01*
X107628541Y-89515459D01*
X107520101Y-89426464D01*
X107484410Y-89397173D01*
X107484409Y-89397172D01*
X107479698Y-89393306D01*
X107474327Y-89390435D01*
X107474321Y-89390431D01*
X107315258Y-89305411D01*
X107309883Y-89302538D01*
X107304055Y-89300770D01*
X107304050Y-89300768D01*
X107131458Y-89248412D01*
X107131450Y-89248410D01*
X107125624Y-89246643D01*
X107119565Y-89246046D01*
X107119559Y-89246045D01*
X106940062Y-89228367D01*
X106934000Y-89227770D01*
X106927938Y-89228367D01*
X106748440Y-89246045D01*
X106748432Y-89246046D01*
X106742376Y-89246643D01*
X106736551Y-89248410D01*
X106736541Y-89248412D01*
X106563949Y-89300768D01*
X106563941Y-89300771D01*
X106558117Y-89302538D01*
X106552745Y-89305409D01*
X106552741Y-89305411D01*
X106393678Y-89390431D01*
X106393667Y-89390438D01*
X106388302Y-89393306D01*
X106383594Y-89397169D01*
X106383589Y-89397173D01*
X106244165Y-89511596D01*
X106244160Y-89511600D01*
X106239459Y-89515459D01*
X106235600Y-89520160D01*
X106235596Y-89520165D01*
X106121173Y-89659589D01*
X106121169Y-89659594D01*
X106117306Y-89664302D01*
X106114438Y-89669667D01*
X106114431Y-89669678D01*
X106029411Y-89828741D01*
X106029409Y-89828745D01*
X106026538Y-89834117D01*
X106024771Y-89839941D01*
X106024768Y-89839949D01*
X105972412Y-90012541D01*
X105972410Y-90012551D01*
X105970643Y-90018376D01*
X105970046Y-90024432D01*
X105970045Y-90024440D01*
X105953436Y-90193080D01*
X105951770Y-90210000D01*
X104785500Y-90210000D01*
X104785500Y-87670000D01*
X105951770Y-87670000D01*
X105952367Y-87676062D01*
X105970045Y-87855559D01*
X105970046Y-87855565D01*
X105970643Y-87861624D01*
X105972410Y-87867450D01*
X105972412Y-87867458D01*
X106024768Y-88040050D01*
X106024770Y-88040055D01*
X106026538Y-88045883D01*
X106029411Y-88051258D01*
X106114431Y-88210321D01*
X106114435Y-88210327D01*
X106117306Y-88215698D01*
X106121172Y-88220409D01*
X106121173Y-88220410D01*
X106152922Y-88259096D01*
X106239459Y-88364541D01*
X106388302Y-88486694D01*
X106393674Y-88489565D01*
X106393678Y-88489568D01*
X106462706Y-88526464D01*
X106558117Y-88577462D01*
X106742376Y-88633357D01*
X106934000Y-88652230D01*
X107125624Y-88633357D01*
X107309883Y-88577462D01*
X107479698Y-88486694D01*
X107628541Y-88364541D01*
X107750694Y-88215698D01*
X107841462Y-88045883D01*
X107897357Y-87861624D01*
X107916230Y-87670000D01*
X107897357Y-87478376D01*
X107841462Y-87294117D01*
X107791101Y-87199898D01*
X107753568Y-87129678D01*
X107753565Y-87129674D01*
X107750694Y-87124302D01*
X107628541Y-86975459D01*
X107479698Y-86853306D01*
X107474327Y-86850435D01*
X107474321Y-86850431D01*
X107315258Y-86765411D01*
X107309883Y-86762538D01*
X107304055Y-86760770D01*
X107304050Y-86760768D01*
X107131458Y-86708412D01*
X107131450Y-86708410D01*
X107125624Y-86706643D01*
X107119565Y-86706046D01*
X107119559Y-86706045D01*
X106940062Y-86688367D01*
X106934000Y-86687770D01*
X106927938Y-86688367D01*
X106748440Y-86706045D01*
X106748432Y-86706046D01*
X106742376Y-86706643D01*
X106736551Y-86708410D01*
X106736541Y-86708412D01*
X106563949Y-86760768D01*
X106563941Y-86760771D01*
X106558117Y-86762538D01*
X106552745Y-86765409D01*
X106552741Y-86765411D01*
X106393678Y-86850431D01*
X106393667Y-86850438D01*
X106388302Y-86853306D01*
X106383594Y-86857169D01*
X106383589Y-86857173D01*
X106244165Y-86971596D01*
X106244160Y-86971600D01*
X106239459Y-86975459D01*
X106235600Y-86980160D01*
X106235596Y-86980165D01*
X106121173Y-87119589D01*
X106121169Y-87119594D01*
X106117306Y-87124302D01*
X106114438Y-87129667D01*
X106114431Y-87129678D01*
X106029411Y-87288741D01*
X106029409Y-87288745D01*
X106026538Y-87294117D01*
X106024771Y-87299941D01*
X106024768Y-87299949D01*
X105972412Y-87472541D01*
X105972410Y-87472551D01*
X105970643Y-87478376D01*
X105970046Y-87484432D01*
X105970045Y-87484440D01*
X105953839Y-87648990D01*
X105951770Y-87670000D01*
X104785500Y-87670000D01*
X104785500Y-85130000D01*
X105951770Y-85130000D01*
X105952367Y-85136062D01*
X105970045Y-85315559D01*
X105970046Y-85315565D01*
X105970643Y-85321624D01*
X105972410Y-85327450D01*
X105972412Y-85327458D01*
X106024768Y-85500050D01*
X106024770Y-85500055D01*
X106026538Y-85505883D01*
X106029411Y-85511258D01*
X106114431Y-85670321D01*
X106114435Y-85670327D01*
X106117306Y-85675698D01*
X106121172Y-85680409D01*
X106121173Y-85680410D01*
X106160293Y-85728078D01*
X106239459Y-85824541D01*
X106388302Y-85946694D01*
X106393674Y-85949565D01*
X106393678Y-85949568D01*
X106471350Y-85991084D01*
X106558117Y-86037462D01*
X106742376Y-86093357D01*
X106934000Y-86112230D01*
X107125624Y-86093357D01*
X107309883Y-86037462D01*
X107479698Y-85946694D01*
X107628541Y-85824541D01*
X107750694Y-85675698D01*
X107841462Y-85505883D01*
X107897357Y-85321624D01*
X107916230Y-85130000D01*
X107897357Y-84938376D01*
X107841462Y-84754117D01*
X107779682Y-84638535D01*
X107753568Y-84589678D01*
X107753565Y-84589674D01*
X107750694Y-84584302D01*
X107628541Y-84435459D01*
X107479698Y-84313306D01*
X107474327Y-84310435D01*
X107474321Y-84310431D01*
X107315258Y-84225411D01*
X107309883Y-84222538D01*
X107304055Y-84220770D01*
X107304050Y-84220768D01*
X107131458Y-84168412D01*
X107131450Y-84168410D01*
X107125624Y-84166643D01*
X107119565Y-84166046D01*
X107119559Y-84166045D01*
X106940062Y-84148367D01*
X106934000Y-84147770D01*
X106927938Y-84148367D01*
X106748440Y-84166045D01*
X106748432Y-84166046D01*
X106742376Y-84166643D01*
X106736551Y-84168410D01*
X106736541Y-84168412D01*
X106563949Y-84220768D01*
X106563941Y-84220771D01*
X106558117Y-84222538D01*
X106552745Y-84225409D01*
X106552741Y-84225411D01*
X106393678Y-84310431D01*
X106393667Y-84310438D01*
X106388302Y-84313306D01*
X106383594Y-84317169D01*
X106383589Y-84317173D01*
X106244165Y-84431596D01*
X106244160Y-84431600D01*
X106239459Y-84435459D01*
X106235600Y-84440160D01*
X106235596Y-84440165D01*
X106121173Y-84579589D01*
X106121169Y-84579594D01*
X106117306Y-84584302D01*
X106114438Y-84589667D01*
X106114431Y-84589678D01*
X106029411Y-84748741D01*
X106029409Y-84748745D01*
X106026538Y-84754117D01*
X106024771Y-84759941D01*
X106024768Y-84759949D01*
X105972412Y-84932541D01*
X105972410Y-84932551D01*
X105970643Y-84938376D01*
X105970046Y-84944432D01*
X105970045Y-84944440D01*
X105964464Y-85001109D01*
X105951770Y-85130000D01*
X104785500Y-85130000D01*
X104785500Y-82590000D01*
X105951770Y-82590000D01*
X105952367Y-82596062D01*
X105970045Y-82775559D01*
X105970046Y-82775565D01*
X105970643Y-82781624D01*
X105972410Y-82787450D01*
X105972412Y-82787458D01*
X106024768Y-82960050D01*
X106024770Y-82960055D01*
X106026538Y-82965883D01*
X106029411Y-82971258D01*
X106114431Y-83130321D01*
X106114435Y-83130327D01*
X106117306Y-83135698D01*
X106239459Y-83284541D01*
X106388302Y-83406694D01*
X106393674Y-83409565D01*
X106393678Y-83409568D01*
X106473209Y-83452078D01*
X106558117Y-83497462D01*
X106742376Y-83553357D01*
X106934000Y-83572230D01*
X107125624Y-83553357D01*
X107309883Y-83497462D01*
X107479698Y-83406694D01*
X107628541Y-83284541D01*
X107750694Y-83135698D01*
X107841462Y-82965883D01*
X107897357Y-82781624D01*
X107914762Y-82604901D01*
X107915633Y-82596062D01*
X107916230Y-82590000D01*
X107897357Y-82398376D01*
X107841462Y-82214117D01*
X107750694Y-82044302D01*
X107628541Y-81895459D01*
X107479698Y-81773306D01*
X107474327Y-81770435D01*
X107474321Y-81770431D01*
X107315258Y-81685411D01*
X107309883Y-81682538D01*
X107304055Y-81680770D01*
X107304050Y-81680768D01*
X107131458Y-81628412D01*
X107131450Y-81628410D01*
X107125624Y-81626643D01*
X107119565Y-81626046D01*
X107119559Y-81626045D01*
X106940062Y-81608367D01*
X106934000Y-81607770D01*
X106927938Y-81608367D01*
X106748440Y-81626045D01*
X106748432Y-81626046D01*
X106742376Y-81626643D01*
X106736551Y-81628410D01*
X106736541Y-81628412D01*
X106563949Y-81680768D01*
X106563941Y-81680771D01*
X106558117Y-81682538D01*
X106552745Y-81685409D01*
X106552741Y-81685411D01*
X106393678Y-81770431D01*
X106393667Y-81770438D01*
X106388302Y-81773306D01*
X106383594Y-81777169D01*
X106383589Y-81777173D01*
X106244165Y-81891596D01*
X106244160Y-81891600D01*
X106239459Y-81895459D01*
X106235600Y-81900160D01*
X106235596Y-81900165D01*
X106121173Y-82039589D01*
X106121169Y-82039594D01*
X106117306Y-82044302D01*
X106114438Y-82049667D01*
X106114431Y-82049678D01*
X106029411Y-82208741D01*
X106029409Y-82208745D01*
X106026538Y-82214117D01*
X106024771Y-82219941D01*
X106024768Y-82219949D01*
X105972412Y-82392541D01*
X105972410Y-82392551D01*
X105970643Y-82398376D01*
X105970046Y-82404432D01*
X105970045Y-82404440D01*
X105959849Y-82507968D01*
X105951770Y-82590000D01*
X104785500Y-82590000D01*
X104785500Y-80050000D01*
X105951770Y-80050000D01*
X105952367Y-80056062D01*
X105970045Y-80235559D01*
X105970046Y-80235565D01*
X105970643Y-80241624D01*
X105972410Y-80247450D01*
X105972412Y-80247458D01*
X106024768Y-80420050D01*
X106024770Y-80420055D01*
X106026538Y-80425883D01*
X106029411Y-80431258D01*
X106114431Y-80590321D01*
X106114435Y-80590327D01*
X106117306Y-80595698D01*
X106239459Y-80744541D01*
X106388302Y-80866694D01*
X106393674Y-80869565D01*
X106393678Y-80869568D01*
X106473209Y-80912078D01*
X106558117Y-80957462D01*
X106742376Y-81013357D01*
X106934000Y-81032230D01*
X107125624Y-81013357D01*
X107309883Y-80957462D01*
X107479698Y-80866694D01*
X107628541Y-80744541D01*
X107750694Y-80595698D01*
X107841462Y-80425883D01*
X107897357Y-80241624D01*
X107916230Y-80050000D01*
X107897357Y-79858376D01*
X107841462Y-79674117D01*
X107750694Y-79504302D01*
X107628541Y-79355459D01*
X107479698Y-79233306D01*
X107474327Y-79230435D01*
X107474321Y-79230431D01*
X107315258Y-79145411D01*
X107309883Y-79142538D01*
X107304055Y-79140770D01*
X107304050Y-79140768D01*
X107131458Y-79088412D01*
X107131450Y-79088410D01*
X107125624Y-79086643D01*
X107119565Y-79086046D01*
X107119559Y-79086045D01*
X106940062Y-79068367D01*
X106934000Y-79067770D01*
X106927938Y-79068367D01*
X106748440Y-79086045D01*
X106748432Y-79086046D01*
X106742376Y-79086643D01*
X106736551Y-79088410D01*
X106736541Y-79088412D01*
X106563949Y-79140768D01*
X106563941Y-79140771D01*
X106558117Y-79142538D01*
X106552745Y-79145409D01*
X106552741Y-79145411D01*
X106393678Y-79230431D01*
X106393667Y-79230438D01*
X106388302Y-79233306D01*
X106383594Y-79237169D01*
X106383589Y-79237173D01*
X106244165Y-79351596D01*
X106244160Y-79351600D01*
X106239459Y-79355459D01*
X106235600Y-79360160D01*
X106235596Y-79360165D01*
X106121173Y-79499589D01*
X106121169Y-79499594D01*
X106117306Y-79504302D01*
X106114438Y-79509667D01*
X106114431Y-79509678D01*
X106029411Y-79668741D01*
X106029409Y-79668745D01*
X106026538Y-79674117D01*
X106024771Y-79679941D01*
X106024768Y-79679949D01*
X105972412Y-79852541D01*
X105972410Y-79852551D01*
X105970643Y-79858376D01*
X105970046Y-79864432D01*
X105970045Y-79864440D01*
X105952367Y-80043938D01*
X105951770Y-80050000D01*
X104785500Y-80050000D01*
X104785500Y-77510000D01*
X105951770Y-77510000D01*
X105952367Y-77516062D01*
X105970045Y-77695559D01*
X105970046Y-77695565D01*
X105970643Y-77701624D01*
X105972410Y-77707450D01*
X105972412Y-77707458D01*
X106024768Y-77880050D01*
X106024770Y-77880055D01*
X106026538Y-77885883D01*
X106029411Y-77891258D01*
X106114431Y-78050321D01*
X106114435Y-78050327D01*
X106117306Y-78055698D01*
X106239459Y-78204541D01*
X106388302Y-78326694D01*
X106393674Y-78329565D01*
X106393678Y-78329568D01*
X106473209Y-78372077D01*
X106558117Y-78417462D01*
X106742376Y-78473357D01*
X106934000Y-78492230D01*
X107125624Y-78473357D01*
X107309883Y-78417462D01*
X107479698Y-78326694D01*
X107628541Y-78204541D01*
X107750694Y-78055698D01*
X107841462Y-77885883D01*
X107897357Y-77701624D01*
X107916230Y-77510000D01*
X107897357Y-77318376D01*
X107841462Y-77134117D01*
X107750694Y-76964302D01*
X107628541Y-76815459D01*
X107479698Y-76693306D01*
X107474327Y-76690435D01*
X107474321Y-76690431D01*
X107315258Y-76605411D01*
X107309883Y-76602538D01*
X107304055Y-76600770D01*
X107304050Y-76600768D01*
X107131458Y-76548412D01*
X107131450Y-76548410D01*
X107125624Y-76546643D01*
X107119565Y-76546046D01*
X107119559Y-76546045D01*
X106940062Y-76528367D01*
X106934000Y-76527770D01*
X106927938Y-76528367D01*
X106748440Y-76546045D01*
X106748432Y-76546046D01*
X106742376Y-76546643D01*
X106736551Y-76548410D01*
X106736541Y-76548412D01*
X106563949Y-76600768D01*
X106563941Y-76600771D01*
X106558117Y-76602538D01*
X106552745Y-76605409D01*
X106552741Y-76605411D01*
X106393678Y-76690431D01*
X106393667Y-76690438D01*
X106388302Y-76693306D01*
X106383594Y-76697169D01*
X106383589Y-76697173D01*
X106244165Y-76811596D01*
X106244160Y-76811600D01*
X106239459Y-76815459D01*
X106235600Y-76820160D01*
X106235596Y-76820165D01*
X106121173Y-76959589D01*
X106121169Y-76959594D01*
X106117306Y-76964302D01*
X106114438Y-76969667D01*
X106114431Y-76969678D01*
X106029411Y-77128741D01*
X106029409Y-77128745D01*
X106026538Y-77134117D01*
X106024771Y-77139941D01*
X106024768Y-77139949D01*
X105972412Y-77312541D01*
X105972410Y-77312551D01*
X105970643Y-77318376D01*
X105970046Y-77324432D01*
X105970045Y-77324440D01*
X105952367Y-77503938D01*
X105951770Y-77510000D01*
X104785500Y-77510000D01*
X104785500Y-74970000D01*
X105951770Y-74970000D01*
X105952367Y-74976062D01*
X105970045Y-75155559D01*
X105970046Y-75155565D01*
X105970643Y-75161624D01*
X105972410Y-75167450D01*
X105972412Y-75167458D01*
X106024768Y-75340050D01*
X106024770Y-75340055D01*
X106026538Y-75345883D01*
X106029411Y-75351258D01*
X106114431Y-75510321D01*
X106114435Y-75510327D01*
X106117306Y-75515698D01*
X106239459Y-75664541D01*
X106388302Y-75786694D01*
X106393674Y-75789565D01*
X106393678Y-75789568D01*
X106473209Y-75832077D01*
X106558117Y-75877462D01*
X106742376Y-75933357D01*
X106934000Y-75952230D01*
X107125624Y-75933357D01*
X107309883Y-75877462D01*
X107479698Y-75786694D01*
X107628541Y-75664541D01*
X107750694Y-75515698D01*
X107841462Y-75345883D01*
X107897357Y-75161624D01*
X107916230Y-74970000D01*
X107897357Y-74778376D01*
X107841462Y-74594117D01*
X107750694Y-74424302D01*
X107628541Y-74275459D01*
X107571218Y-74228415D01*
X107484410Y-74157173D01*
X107484409Y-74157172D01*
X107479698Y-74153306D01*
X107474327Y-74150435D01*
X107474321Y-74150431D01*
X107315258Y-74065411D01*
X107309883Y-74062538D01*
X107304055Y-74060770D01*
X107304050Y-74060768D01*
X107131458Y-74008412D01*
X107131450Y-74008410D01*
X107125624Y-74006643D01*
X107119565Y-74006046D01*
X107119559Y-74006045D01*
X106940062Y-73988367D01*
X106934000Y-73987770D01*
X106927938Y-73988367D01*
X106748440Y-74006045D01*
X106748432Y-74006046D01*
X106742376Y-74006643D01*
X106736551Y-74008410D01*
X106736541Y-74008412D01*
X106563949Y-74060768D01*
X106563941Y-74060771D01*
X106558117Y-74062538D01*
X106552745Y-74065409D01*
X106552741Y-74065411D01*
X106393678Y-74150431D01*
X106393667Y-74150438D01*
X106388302Y-74153306D01*
X106383594Y-74157169D01*
X106383589Y-74157173D01*
X106244165Y-74271596D01*
X106244160Y-74271600D01*
X106239459Y-74275459D01*
X106235600Y-74280160D01*
X106235596Y-74280165D01*
X106121173Y-74419589D01*
X106121169Y-74419594D01*
X106117306Y-74424302D01*
X106114438Y-74429667D01*
X106114431Y-74429678D01*
X106029411Y-74588741D01*
X106029409Y-74588745D01*
X106026538Y-74594117D01*
X106024771Y-74599941D01*
X106024768Y-74599949D01*
X105972412Y-74772541D01*
X105972410Y-74772551D01*
X105970643Y-74778376D01*
X105970046Y-74784432D01*
X105970045Y-74784440D01*
X105952367Y-74963938D01*
X105951770Y-74970000D01*
X104785500Y-74970000D01*
X104785500Y-69890000D01*
X105951770Y-69890000D01*
X105952367Y-69896062D01*
X105970045Y-70075559D01*
X105970046Y-70075565D01*
X105970643Y-70081624D01*
X105972410Y-70087450D01*
X105972412Y-70087458D01*
X106024768Y-70260050D01*
X106024770Y-70260055D01*
X106026538Y-70265883D01*
X106029411Y-70271258D01*
X106114431Y-70430321D01*
X106114435Y-70430327D01*
X106117306Y-70435698D01*
X106239459Y-70584541D01*
X106388302Y-70706694D01*
X106393674Y-70709565D01*
X106393678Y-70709568D01*
X106473209Y-70752077D01*
X106558117Y-70797462D01*
X106742376Y-70853357D01*
X106934000Y-70872230D01*
X107125624Y-70853357D01*
X107309883Y-70797462D01*
X107479698Y-70706694D01*
X107628541Y-70584541D01*
X107750694Y-70435698D01*
X107841462Y-70265883D01*
X107897357Y-70081624D01*
X107916230Y-69890000D01*
X107897357Y-69698376D01*
X107841462Y-69514117D01*
X107750694Y-69344302D01*
X107628541Y-69195459D01*
X107479698Y-69073306D01*
X107474327Y-69070435D01*
X107474321Y-69070431D01*
X107315258Y-68985411D01*
X107309883Y-68982538D01*
X107304055Y-68980770D01*
X107304050Y-68980768D01*
X107131458Y-68928412D01*
X107131450Y-68928410D01*
X107125624Y-68926643D01*
X107119565Y-68926046D01*
X107119559Y-68926045D01*
X106940062Y-68908367D01*
X106934000Y-68907770D01*
X106927938Y-68908367D01*
X106748440Y-68926045D01*
X106748432Y-68926046D01*
X106742376Y-68926643D01*
X106736551Y-68928410D01*
X106736541Y-68928412D01*
X106563949Y-68980768D01*
X106563941Y-68980771D01*
X106558117Y-68982538D01*
X106552745Y-68985409D01*
X106552741Y-68985411D01*
X106393678Y-69070431D01*
X106393667Y-69070438D01*
X106388302Y-69073306D01*
X106383594Y-69077169D01*
X106383589Y-69077173D01*
X106244165Y-69191596D01*
X106244160Y-69191600D01*
X106239459Y-69195459D01*
X106235600Y-69200160D01*
X106235596Y-69200165D01*
X106121173Y-69339589D01*
X106121169Y-69339594D01*
X106117306Y-69344302D01*
X106114438Y-69349667D01*
X106114431Y-69349678D01*
X106029411Y-69508741D01*
X106029409Y-69508745D01*
X106026538Y-69514117D01*
X106024771Y-69519941D01*
X106024768Y-69519949D01*
X105972412Y-69692541D01*
X105972410Y-69692551D01*
X105970643Y-69698376D01*
X105970046Y-69704432D01*
X105970045Y-69704440D01*
X105952367Y-69883938D01*
X105951770Y-69890000D01*
X104785500Y-69890000D01*
X104785500Y-67350000D01*
X105951770Y-67350000D01*
X105952367Y-67356062D01*
X105970045Y-67535559D01*
X105970046Y-67535565D01*
X105970643Y-67541624D01*
X105972410Y-67547450D01*
X105972412Y-67547458D01*
X106024768Y-67720050D01*
X106024770Y-67720055D01*
X106026538Y-67725883D01*
X106029411Y-67731258D01*
X106114431Y-67890321D01*
X106114435Y-67890327D01*
X106117306Y-67895698D01*
X106239459Y-68044541D01*
X106388302Y-68166694D01*
X106393674Y-68169565D01*
X106393678Y-68169568D01*
X106473209Y-68212078D01*
X106558117Y-68257462D01*
X106742376Y-68313357D01*
X106934000Y-68332230D01*
X107125624Y-68313357D01*
X107309883Y-68257462D01*
X107479698Y-68166694D01*
X107628541Y-68044541D01*
X107750694Y-67895698D01*
X107841462Y-67725883D01*
X107897357Y-67541624D01*
X107916230Y-67350000D01*
X107897357Y-67158376D01*
X107841462Y-66974117D01*
X107750694Y-66804302D01*
X107628541Y-66655459D01*
X107479698Y-66533306D01*
X107474327Y-66530435D01*
X107474321Y-66530431D01*
X107315258Y-66445411D01*
X107309883Y-66442538D01*
X107304055Y-66440770D01*
X107304050Y-66440768D01*
X107131458Y-66388412D01*
X107131450Y-66388410D01*
X107125624Y-66386643D01*
X107119565Y-66386046D01*
X107119559Y-66386045D01*
X106940062Y-66368367D01*
X106934000Y-66367770D01*
X106927938Y-66368367D01*
X106748440Y-66386045D01*
X106748432Y-66386046D01*
X106742376Y-66386643D01*
X106736551Y-66388410D01*
X106736541Y-66388412D01*
X106563949Y-66440768D01*
X106563941Y-66440771D01*
X106558117Y-66442538D01*
X106552745Y-66445409D01*
X106552741Y-66445411D01*
X106393678Y-66530431D01*
X106393667Y-66530438D01*
X106388302Y-66533306D01*
X106383594Y-66537169D01*
X106383589Y-66537173D01*
X106244165Y-66651596D01*
X106244160Y-66651600D01*
X106239459Y-66655459D01*
X106235600Y-66660160D01*
X106235596Y-66660165D01*
X106121173Y-66799589D01*
X106121169Y-66799594D01*
X106117306Y-66804302D01*
X106114438Y-66809667D01*
X106114431Y-66809678D01*
X106029411Y-66968741D01*
X106029409Y-66968745D01*
X106026538Y-66974117D01*
X106024771Y-66979941D01*
X106024768Y-66979949D01*
X105972412Y-67152541D01*
X105972410Y-67152551D01*
X105970643Y-67158376D01*
X105970046Y-67164432D01*
X105970045Y-67164440D01*
X105952367Y-67343938D01*
X105951770Y-67350000D01*
X104785500Y-67350000D01*
X104785500Y-64810000D01*
X105951770Y-64810000D01*
X105952367Y-64816062D01*
X105970045Y-64995559D01*
X105970046Y-64995565D01*
X105970643Y-65001624D01*
X105972410Y-65007450D01*
X105972412Y-65007458D01*
X106024768Y-65180050D01*
X106024770Y-65180055D01*
X106026538Y-65185883D01*
X106029411Y-65191258D01*
X106114431Y-65350321D01*
X106114435Y-65350327D01*
X106117306Y-65355698D01*
X106239459Y-65504541D01*
X106388302Y-65626694D01*
X106393674Y-65629565D01*
X106393678Y-65629568D01*
X106473209Y-65672078D01*
X106558117Y-65717462D01*
X106742376Y-65773357D01*
X106934000Y-65792230D01*
X107125624Y-65773357D01*
X107309883Y-65717462D01*
X107479698Y-65626694D01*
X107628541Y-65504541D01*
X107750694Y-65355698D01*
X107841462Y-65185883D01*
X107897357Y-65001624D01*
X107916230Y-64810000D01*
X107897357Y-64618376D01*
X107841462Y-64434117D01*
X107750694Y-64264302D01*
X107628541Y-64115459D01*
X107479698Y-63993306D01*
X107474327Y-63990435D01*
X107474321Y-63990431D01*
X107315258Y-63905411D01*
X107309883Y-63902538D01*
X107304055Y-63900770D01*
X107304050Y-63900768D01*
X107131458Y-63848412D01*
X107131450Y-63848410D01*
X107125624Y-63846643D01*
X107119565Y-63846046D01*
X107119559Y-63846045D01*
X106940062Y-63828367D01*
X106934000Y-63827770D01*
X106927938Y-63828367D01*
X106748440Y-63846045D01*
X106748432Y-63846046D01*
X106742376Y-63846643D01*
X106736551Y-63848410D01*
X106736541Y-63848412D01*
X106563949Y-63900768D01*
X106563941Y-63900771D01*
X106558117Y-63902538D01*
X106552745Y-63905409D01*
X106552741Y-63905411D01*
X106393678Y-63990431D01*
X106393667Y-63990438D01*
X106388302Y-63993306D01*
X106383594Y-63997169D01*
X106383589Y-63997173D01*
X106244165Y-64111596D01*
X106244160Y-64111600D01*
X106239459Y-64115459D01*
X106235600Y-64120160D01*
X106235596Y-64120165D01*
X106121173Y-64259589D01*
X106121169Y-64259594D01*
X106117306Y-64264302D01*
X106114438Y-64269667D01*
X106114431Y-64269678D01*
X106029411Y-64428741D01*
X106029409Y-64428745D01*
X106026538Y-64434117D01*
X106024771Y-64439941D01*
X106024768Y-64439949D01*
X105972412Y-64612541D01*
X105972410Y-64612551D01*
X105970643Y-64618376D01*
X105970046Y-64624432D01*
X105970045Y-64624440D01*
X105952367Y-64803938D01*
X105951770Y-64810000D01*
X104785500Y-64810000D01*
X104785500Y-59730000D01*
X105951770Y-59730000D01*
X105952367Y-59736062D01*
X105970045Y-59915559D01*
X105970046Y-59915565D01*
X105970643Y-59921624D01*
X105972410Y-59927450D01*
X105972412Y-59927458D01*
X106024768Y-60100050D01*
X106024770Y-60100055D01*
X106026538Y-60105883D01*
X106029411Y-60111258D01*
X106114431Y-60270321D01*
X106114435Y-60270327D01*
X106117306Y-60275698D01*
X106239459Y-60424541D01*
X106388302Y-60546694D01*
X106393674Y-60549565D01*
X106393678Y-60549568D01*
X106473209Y-60592078D01*
X106558117Y-60637462D01*
X106742376Y-60693357D01*
X106934000Y-60712230D01*
X107125624Y-60693357D01*
X107309883Y-60637462D01*
X107479698Y-60546694D01*
X107628541Y-60424541D01*
X107750694Y-60275698D01*
X107841462Y-60105883D01*
X107897357Y-59921624D01*
X107916230Y-59730000D01*
X107897357Y-59538376D01*
X107841462Y-59354117D01*
X107750694Y-59184302D01*
X107628541Y-59035459D01*
X107479698Y-58913306D01*
X107474327Y-58910435D01*
X107474321Y-58910431D01*
X107315258Y-58825411D01*
X107309883Y-58822538D01*
X107304055Y-58820770D01*
X107304050Y-58820768D01*
X107131458Y-58768412D01*
X107131450Y-58768410D01*
X107125624Y-58766643D01*
X107119565Y-58766046D01*
X107119559Y-58766045D01*
X106940062Y-58748367D01*
X106934000Y-58747770D01*
X106927938Y-58748367D01*
X106748440Y-58766045D01*
X106748432Y-58766046D01*
X106742376Y-58766643D01*
X106736551Y-58768410D01*
X106736541Y-58768412D01*
X106563949Y-58820768D01*
X106563941Y-58820771D01*
X106558117Y-58822538D01*
X106552745Y-58825409D01*
X106552741Y-58825411D01*
X106393678Y-58910431D01*
X106393667Y-58910438D01*
X106388302Y-58913306D01*
X106383594Y-58917169D01*
X106383589Y-58917173D01*
X106244165Y-59031596D01*
X106244160Y-59031600D01*
X106239459Y-59035459D01*
X106235600Y-59040160D01*
X106235596Y-59040165D01*
X106121173Y-59179589D01*
X106121169Y-59179594D01*
X106117306Y-59184302D01*
X106114438Y-59189667D01*
X106114431Y-59189678D01*
X106029411Y-59348741D01*
X106029409Y-59348745D01*
X106026538Y-59354117D01*
X106024771Y-59359941D01*
X106024768Y-59359949D01*
X105972412Y-59532541D01*
X105972410Y-59532551D01*
X105970643Y-59538376D01*
X105970046Y-59544432D01*
X105970045Y-59544440D01*
X105952367Y-59723938D01*
X105951770Y-59730000D01*
X104785500Y-59730000D01*
X104785500Y-54650000D01*
X105951770Y-54650000D01*
X105952367Y-54656062D01*
X105970045Y-54835559D01*
X105970046Y-54835565D01*
X105970643Y-54841624D01*
X105972410Y-54847450D01*
X105972412Y-54847458D01*
X106024768Y-55020050D01*
X106024770Y-55020055D01*
X106026538Y-55025883D01*
X106029411Y-55031258D01*
X106114431Y-55190321D01*
X106114435Y-55190327D01*
X106117306Y-55195698D01*
X106239459Y-55344541D01*
X106388302Y-55466694D01*
X106393674Y-55469565D01*
X106393678Y-55469568D01*
X106473209Y-55512077D01*
X106558117Y-55557462D01*
X106742376Y-55613357D01*
X106934000Y-55632230D01*
X107125624Y-55613357D01*
X107309883Y-55557462D01*
X107479698Y-55466694D01*
X107628541Y-55344541D01*
X107750694Y-55195698D01*
X107841462Y-55025883D01*
X107897357Y-54841624D01*
X107916230Y-54650000D01*
X107897357Y-54458376D01*
X107841462Y-54274117D01*
X107750694Y-54104302D01*
X107628541Y-53955459D01*
X107479698Y-53833306D01*
X107474327Y-53830435D01*
X107474321Y-53830431D01*
X107315258Y-53745411D01*
X107309883Y-53742538D01*
X107304055Y-53740770D01*
X107304050Y-53740768D01*
X107131458Y-53688412D01*
X107131450Y-53688410D01*
X107125624Y-53686643D01*
X107119565Y-53686046D01*
X107119559Y-53686045D01*
X106940062Y-53668367D01*
X106934000Y-53667770D01*
X106927938Y-53668367D01*
X106748440Y-53686045D01*
X106748432Y-53686046D01*
X106742376Y-53686643D01*
X106736551Y-53688410D01*
X106736541Y-53688412D01*
X106563949Y-53740768D01*
X106563941Y-53740771D01*
X106558117Y-53742538D01*
X106552745Y-53745409D01*
X106552741Y-53745411D01*
X106393678Y-53830431D01*
X106393667Y-53830438D01*
X106388302Y-53833306D01*
X106383594Y-53837169D01*
X106383589Y-53837173D01*
X106244165Y-53951596D01*
X106244160Y-53951600D01*
X106239459Y-53955459D01*
X106235600Y-53960160D01*
X106235596Y-53960165D01*
X106121173Y-54099589D01*
X106121169Y-54099594D01*
X106117306Y-54104302D01*
X106114438Y-54109667D01*
X106114431Y-54109678D01*
X106029411Y-54268741D01*
X106029409Y-54268745D01*
X106026538Y-54274117D01*
X106024771Y-54279941D01*
X106024768Y-54279949D01*
X105972412Y-54452541D01*
X105972410Y-54452551D01*
X105970643Y-54458376D01*
X105970046Y-54464432D01*
X105970045Y-54464440D01*
X105952367Y-54643938D01*
X105951770Y-54650000D01*
X104785500Y-54650000D01*
X104785500Y-47282551D01*
X105606688Y-47282551D01*
X105607056Y-47293780D01*
X105659168Y-47488263D01*
X105662856Y-47498397D01*
X105758113Y-47702676D01*
X105763501Y-47712008D01*
X105892784Y-47896643D01*
X105899721Y-47904909D01*
X106059090Y-48064278D01*
X106067356Y-48071215D01*
X106251991Y-48200498D01*
X106261323Y-48205886D01*
X106465602Y-48301143D01*
X106475736Y-48304831D01*
X106693446Y-48363166D01*
X106704078Y-48365041D01*
X106712750Y-48365800D01*
X106775919Y-48389810D01*
X106817117Y-48443378D01*
X106824108Y-48510593D01*
X106794816Y-48571492D01*
X106737941Y-48607988D01*
X106563949Y-48660768D01*
X106563941Y-48660771D01*
X106558117Y-48662538D01*
X106552745Y-48665409D01*
X106552741Y-48665411D01*
X106393678Y-48750431D01*
X106393667Y-48750438D01*
X106388302Y-48753306D01*
X106383594Y-48757169D01*
X106383589Y-48757173D01*
X106244165Y-48871596D01*
X106244160Y-48871600D01*
X106239459Y-48875459D01*
X106235600Y-48880160D01*
X106235596Y-48880165D01*
X106121173Y-49019589D01*
X106121169Y-49019594D01*
X106117306Y-49024302D01*
X106114438Y-49029667D01*
X106114431Y-49029678D01*
X106029411Y-49188741D01*
X106029409Y-49188745D01*
X106026538Y-49194117D01*
X106024771Y-49199941D01*
X106024768Y-49199949D01*
X105972412Y-49372541D01*
X105972410Y-49372551D01*
X105970643Y-49378376D01*
X105970046Y-49384432D01*
X105970045Y-49384440D01*
X105952367Y-49563938D01*
X105951770Y-49570000D01*
X105952367Y-49576062D01*
X105970045Y-49755559D01*
X105970046Y-49755565D01*
X105970643Y-49761624D01*
X105972410Y-49767450D01*
X105972412Y-49767458D01*
X106024768Y-49940050D01*
X106024770Y-49940055D01*
X106026538Y-49945883D01*
X106029411Y-49951258D01*
X106114431Y-50110321D01*
X106114435Y-50110327D01*
X106117306Y-50115698D01*
X106239459Y-50264541D01*
X106388302Y-50386694D01*
X106393674Y-50389565D01*
X106393678Y-50389568D01*
X106473209Y-50432077D01*
X106558117Y-50477462D01*
X106742376Y-50533357D01*
X106934000Y-50552230D01*
X107125624Y-50533357D01*
X107309883Y-50477462D01*
X107479698Y-50386694D01*
X107628541Y-50264541D01*
X107750694Y-50115698D01*
X107841462Y-49945883D01*
X107897357Y-49761624D01*
X107916230Y-49570000D01*
X107897357Y-49378376D01*
X107841462Y-49194117D01*
X107750694Y-49024302D01*
X107628541Y-48875459D01*
X107479698Y-48753306D01*
X107474327Y-48750435D01*
X107474321Y-48750431D01*
X107315258Y-48665411D01*
X107309883Y-48662538D01*
X107304055Y-48660770D01*
X107304050Y-48660768D01*
X107130058Y-48607988D01*
X107073183Y-48571492D01*
X107043891Y-48510593D01*
X107050882Y-48443377D01*
X107092081Y-48389810D01*
X107155249Y-48365800D01*
X107163921Y-48365041D01*
X107174553Y-48363166D01*
X107392263Y-48304831D01*
X107402397Y-48301143D01*
X107606676Y-48205886D01*
X107616008Y-48200498D01*
X107800643Y-48071215D01*
X107808909Y-48064278D01*
X107968278Y-47904909D01*
X107975215Y-47896643D01*
X108104498Y-47712008D01*
X108109886Y-47702676D01*
X108205143Y-47498397D01*
X108208831Y-47488263D01*
X108260943Y-47293780D01*
X108261311Y-47282551D01*
X108250369Y-47280000D01*
X105617631Y-47280000D01*
X105606688Y-47282551D01*
X104785500Y-47282551D01*
X104785500Y-39504500D01*
X104802113Y-39442500D01*
X104847500Y-39397113D01*
X104909500Y-39380500D01*
X139565500Y-39380500D01*
X139627500Y-39397113D01*
G37*
G04 #@! TD.AperFunction*
M02*
