G04 #@! TF.GenerationSoftware,KiCad,Pcbnew,(7.0.0)*
G04 #@! TF.CreationDate,2023-04-01T01:12:53+02:00*
G04 #@! TF.ProjectId,ED060SC4-eink-connector,45443036-3053-4433-942d-65696e6b2d63,rev?*
G04 #@! TF.SameCoordinates,Original*
G04 #@! TF.FileFunction,Soldermask,Bot*
G04 #@! TF.FilePolarity,Negative*
%FSLAX46Y46*%
G04 Gerber Fmt 4.6, Leading zero omitted, Abs format (unit mm)*
G04 Created by KiCad (PCBNEW (7.0.0)) date 2023-04-01 01:12:53*
%MOMM*%
%LPD*%
G01*
G04 APERTURE LIST*
%ADD10C,3.200000*%
%ADD11R,1.700000X1.700000*%
%ADD12O,1.700000X1.700000*%
G04 APERTURE END LIST*
D10*
X135890000Y-137160000D03*
X135890000Y-43180000D03*
D11*
X106933999Y-41949999D03*
D12*
X106933999Y-44489999D03*
X106933999Y-47029999D03*
X106933999Y-49569999D03*
X106933999Y-52109999D03*
X106933999Y-54649999D03*
X106933999Y-57189999D03*
X106933999Y-59729999D03*
X106933999Y-62269999D03*
X106933999Y-64809999D03*
X106933999Y-67349999D03*
X106933999Y-69889999D03*
X106933999Y-72429999D03*
X106933999Y-74969999D03*
X106933999Y-77509999D03*
X106933999Y-80049999D03*
X106933999Y-82589999D03*
X106933999Y-85129999D03*
X106933999Y-87669999D03*
X106933999Y-90209999D03*
X106933999Y-92749999D03*
X106933999Y-95289999D03*
X106933999Y-97829999D03*
X106933999Y-100369999D03*
X106933999Y-102909999D03*
X106933999Y-105449999D03*
X106933999Y-107989999D03*
X106933999Y-110529999D03*
X106933999Y-113069999D03*
X106933999Y-115609999D03*
X106933999Y-118149999D03*
X106933999Y-120689999D03*
X106933999Y-123229999D03*
X106933999Y-125769999D03*
X106933999Y-128309999D03*
X106933999Y-130849999D03*
X106933999Y-133389999D03*
X106933999Y-135929999D03*
X106933999Y-138469999D03*
M02*
