G04 #@! TF.GenerationSoftware,KiCad,Pcbnew,(7.0.0)*
G04 #@! TF.CreationDate,2023-04-01T11:17:19+02:00*
G04 #@! TF.ProjectId,ED060SC4-eink-connector,45443036-3053-4433-942d-65696e6b2d63,rev?*
G04 #@! TF.SameCoordinates,Original*
G04 #@! TF.FileFunction,Legend,Top*
G04 #@! TF.FilePolarity,Positive*
%FSLAX46Y46*%
G04 Gerber Fmt 4.6, Leading zero omitted, Abs format (unit mm)*
G04 Created by KiCad (PCBNEW (7.0.0)) date 2023-04-01 11:17:19*
%MOMM*%
%LPD*%
G01*
G04 APERTURE LIST*
%ADD10C,0.150000*%
%ADD11C,0.200000*%
%ADD12C,0.127000*%
%ADD13C,0.120000*%
%ADD14R,0.800000X0.300000*%
%ADD15R,1.000000X0.300000*%
%ADD16R,0.950000X0.400000*%
%ADD17C,3.200000*%
%ADD18R,1.700000X1.700000*%
%ADD19O,1.700000X1.700000*%
G04 APERTURE END LIST*
D10*
X109362857Y-120067380D02*
X109981904Y-120067380D01*
X109981904Y-120067380D02*
X109648571Y-120448333D01*
X109648571Y-120448333D02*
X109791428Y-120448333D01*
X109791428Y-120448333D02*
X109886666Y-120495952D01*
X109886666Y-120495952D02*
X109934285Y-120543571D01*
X109934285Y-120543571D02*
X109981904Y-120638809D01*
X109981904Y-120638809D02*
X109981904Y-120876904D01*
X109981904Y-120876904D02*
X109934285Y-120972142D01*
X109934285Y-120972142D02*
X109886666Y-121019761D01*
X109886666Y-121019761D02*
X109791428Y-121067380D01*
X109791428Y-121067380D02*
X109505714Y-121067380D01*
X109505714Y-121067380D02*
X109410476Y-121019761D01*
X109410476Y-121019761D02*
X109362857Y-120972142D01*
X110362857Y-120162619D02*
X110410476Y-120115000D01*
X110410476Y-120115000D02*
X110505714Y-120067380D01*
X110505714Y-120067380D02*
X110743809Y-120067380D01*
X110743809Y-120067380D02*
X110839047Y-120115000D01*
X110839047Y-120115000D02*
X110886666Y-120162619D01*
X110886666Y-120162619D02*
X110934285Y-120257857D01*
X110934285Y-120257857D02*
X110934285Y-120353095D01*
X110934285Y-120353095D02*
X110886666Y-120495952D01*
X110886666Y-120495952D02*
X110315238Y-121067380D01*
X110315238Y-121067380D02*
X110934285Y-121067380D01*
X111962857Y-120686428D02*
X112724762Y-120686428D01*
X113800952Y-120067380D02*
X113800952Y-120876904D01*
X113800952Y-120876904D02*
X113848571Y-120972142D01*
X113848571Y-120972142D02*
X113896190Y-121019761D01*
X113896190Y-121019761D02*
X113991428Y-121067380D01*
X113991428Y-121067380D02*
X114181904Y-121067380D01*
X114181904Y-121067380D02*
X114277142Y-121019761D01*
X114277142Y-121019761D02*
X114324761Y-120972142D01*
X114324761Y-120972142D02*
X114372380Y-120876904D01*
X114372380Y-120876904D02*
X114372380Y-120067380D01*
X115372380Y-121067380D02*
X114800952Y-121067380D01*
X115086666Y-121067380D02*
X115086666Y-120067380D01*
X115086666Y-120067380D02*
X114991428Y-120210238D01*
X114991428Y-120210238D02*
X114896190Y-120305476D01*
X114896190Y-120305476D02*
X114800952Y-120353095D01*
X115753333Y-121019761D02*
X115896190Y-121067380D01*
X115896190Y-121067380D02*
X116134285Y-121067380D01*
X116134285Y-121067380D02*
X116229523Y-121019761D01*
X116229523Y-121019761D02*
X116277142Y-120972142D01*
X116277142Y-120972142D02*
X116324761Y-120876904D01*
X116324761Y-120876904D02*
X116324761Y-120781666D01*
X116324761Y-120781666D02*
X116277142Y-120686428D01*
X116277142Y-120686428D02*
X116229523Y-120638809D01*
X116229523Y-120638809D02*
X116134285Y-120591190D01*
X116134285Y-120591190D02*
X115943809Y-120543571D01*
X115943809Y-120543571D02*
X115848571Y-120495952D01*
X115848571Y-120495952D02*
X115800952Y-120448333D01*
X115800952Y-120448333D02*
X115753333Y-120353095D01*
X115753333Y-120353095D02*
X115753333Y-120257857D01*
X115753333Y-120257857D02*
X115800952Y-120162619D01*
X115800952Y-120162619D02*
X115848571Y-120115000D01*
X115848571Y-120115000D02*
X115943809Y-120067380D01*
X115943809Y-120067380D02*
X116181904Y-120067380D01*
X116181904Y-120067380D02*
X116324761Y-120115000D01*
X116753333Y-121067380D02*
X116753333Y-120067380D01*
X116753333Y-120067380D02*
X117134285Y-120067380D01*
X117134285Y-120067380D02*
X117229523Y-120115000D01*
X117229523Y-120115000D02*
X117277142Y-120162619D01*
X117277142Y-120162619D02*
X117324761Y-120257857D01*
X117324761Y-120257857D02*
X117324761Y-120400714D01*
X117324761Y-120400714D02*
X117277142Y-120495952D01*
X117277142Y-120495952D02*
X117229523Y-120543571D01*
X117229523Y-120543571D02*
X117134285Y-120591190D01*
X117134285Y-120591190D02*
X116753333Y-120591190D01*
X117610476Y-120067380D02*
X117943809Y-121067380D01*
X117943809Y-121067380D02*
X118277142Y-120067380D01*
X109362857Y-137847380D02*
X109981904Y-137847380D01*
X109981904Y-137847380D02*
X109648571Y-138228333D01*
X109648571Y-138228333D02*
X109791428Y-138228333D01*
X109791428Y-138228333D02*
X109886666Y-138275952D01*
X109886666Y-138275952D02*
X109934285Y-138323571D01*
X109934285Y-138323571D02*
X109981904Y-138418809D01*
X109981904Y-138418809D02*
X109981904Y-138656904D01*
X109981904Y-138656904D02*
X109934285Y-138752142D01*
X109934285Y-138752142D02*
X109886666Y-138799761D01*
X109886666Y-138799761D02*
X109791428Y-138847380D01*
X109791428Y-138847380D02*
X109505714Y-138847380D01*
X109505714Y-138847380D02*
X109410476Y-138799761D01*
X109410476Y-138799761D02*
X109362857Y-138752142D01*
X110458095Y-138847380D02*
X110648571Y-138847380D01*
X110648571Y-138847380D02*
X110743809Y-138799761D01*
X110743809Y-138799761D02*
X110791428Y-138752142D01*
X110791428Y-138752142D02*
X110886666Y-138609285D01*
X110886666Y-138609285D02*
X110934285Y-138418809D01*
X110934285Y-138418809D02*
X110934285Y-138037857D01*
X110934285Y-138037857D02*
X110886666Y-137942619D01*
X110886666Y-137942619D02*
X110839047Y-137895000D01*
X110839047Y-137895000D02*
X110743809Y-137847380D01*
X110743809Y-137847380D02*
X110553333Y-137847380D01*
X110553333Y-137847380D02*
X110458095Y-137895000D01*
X110458095Y-137895000D02*
X110410476Y-137942619D01*
X110410476Y-137942619D02*
X110362857Y-138037857D01*
X110362857Y-138037857D02*
X110362857Y-138275952D01*
X110362857Y-138275952D02*
X110410476Y-138371190D01*
X110410476Y-138371190D02*
X110458095Y-138418809D01*
X110458095Y-138418809D02*
X110553333Y-138466428D01*
X110553333Y-138466428D02*
X110743809Y-138466428D01*
X110743809Y-138466428D02*
X110839047Y-138418809D01*
X110839047Y-138418809D02*
X110886666Y-138371190D01*
X110886666Y-138371190D02*
X110934285Y-138275952D01*
X111962857Y-138466428D02*
X112724762Y-138466428D01*
X113800952Y-138847380D02*
X113800952Y-137847380D01*
X113800952Y-137847380D02*
X114372380Y-138847380D01*
X114372380Y-138847380D02*
X114372380Y-137847380D01*
X115419999Y-138752142D02*
X115372380Y-138799761D01*
X115372380Y-138799761D02*
X115229523Y-138847380D01*
X115229523Y-138847380D02*
X115134285Y-138847380D01*
X115134285Y-138847380D02*
X114991428Y-138799761D01*
X114991428Y-138799761D02*
X114896190Y-138704523D01*
X114896190Y-138704523D02*
X114848571Y-138609285D01*
X114848571Y-138609285D02*
X114800952Y-138418809D01*
X114800952Y-138418809D02*
X114800952Y-138275952D01*
X114800952Y-138275952D02*
X114848571Y-138085476D01*
X114848571Y-138085476D02*
X114896190Y-137990238D01*
X114896190Y-137990238D02*
X114991428Y-137895000D01*
X114991428Y-137895000D02*
X115134285Y-137847380D01*
X115134285Y-137847380D02*
X115229523Y-137847380D01*
X115229523Y-137847380D02*
X115372380Y-137895000D01*
X115372380Y-137895000D02*
X115419999Y-137942619D01*
X109362857Y-125147380D02*
X109981904Y-125147380D01*
X109981904Y-125147380D02*
X109648571Y-125528333D01*
X109648571Y-125528333D02*
X109791428Y-125528333D01*
X109791428Y-125528333D02*
X109886666Y-125575952D01*
X109886666Y-125575952D02*
X109934285Y-125623571D01*
X109934285Y-125623571D02*
X109981904Y-125718809D01*
X109981904Y-125718809D02*
X109981904Y-125956904D01*
X109981904Y-125956904D02*
X109934285Y-126052142D01*
X109934285Y-126052142D02*
X109886666Y-126099761D01*
X109886666Y-126099761D02*
X109791428Y-126147380D01*
X109791428Y-126147380D02*
X109505714Y-126147380D01*
X109505714Y-126147380D02*
X109410476Y-126099761D01*
X109410476Y-126099761D02*
X109362857Y-126052142D01*
X110839047Y-125480714D02*
X110839047Y-126147380D01*
X110600952Y-125099761D02*
X110362857Y-125814047D01*
X110362857Y-125814047D02*
X110981904Y-125814047D01*
X111962857Y-125766428D02*
X112724762Y-125766428D01*
X113658095Y-125147380D02*
X113991428Y-126147380D01*
X113991428Y-126147380D02*
X114324761Y-125147380D01*
X114991428Y-125623571D02*
X115134285Y-125671190D01*
X115134285Y-125671190D02*
X115181904Y-125718809D01*
X115181904Y-125718809D02*
X115229523Y-125814047D01*
X115229523Y-125814047D02*
X115229523Y-125956904D01*
X115229523Y-125956904D02*
X115181904Y-126052142D01*
X115181904Y-126052142D02*
X115134285Y-126099761D01*
X115134285Y-126099761D02*
X115039047Y-126147380D01*
X115039047Y-126147380D02*
X114658095Y-126147380D01*
X114658095Y-126147380D02*
X114658095Y-125147380D01*
X114658095Y-125147380D02*
X114991428Y-125147380D01*
X114991428Y-125147380D02*
X115086666Y-125195000D01*
X115086666Y-125195000D02*
X115134285Y-125242619D01*
X115134285Y-125242619D02*
X115181904Y-125337857D01*
X115181904Y-125337857D02*
X115181904Y-125433095D01*
X115181904Y-125433095D02*
X115134285Y-125528333D01*
X115134285Y-125528333D02*
X115086666Y-125575952D01*
X115086666Y-125575952D02*
X114991428Y-125623571D01*
X114991428Y-125623571D02*
X114658095Y-125623571D01*
X115848571Y-125147380D02*
X116039047Y-125147380D01*
X116039047Y-125147380D02*
X116134285Y-125195000D01*
X116134285Y-125195000D02*
X116229523Y-125290238D01*
X116229523Y-125290238D02*
X116277142Y-125480714D01*
X116277142Y-125480714D02*
X116277142Y-125814047D01*
X116277142Y-125814047D02*
X116229523Y-126004523D01*
X116229523Y-126004523D02*
X116134285Y-126099761D01*
X116134285Y-126099761D02*
X116039047Y-126147380D01*
X116039047Y-126147380D02*
X115848571Y-126147380D01*
X115848571Y-126147380D02*
X115753333Y-126099761D01*
X115753333Y-126099761D02*
X115658095Y-126004523D01*
X115658095Y-126004523D02*
X115610476Y-125814047D01*
X115610476Y-125814047D02*
X115610476Y-125480714D01*
X115610476Y-125480714D02*
X115658095Y-125290238D01*
X115658095Y-125290238D02*
X115753333Y-125195000D01*
X115753333Y-125195000D02*
X115848571Y-125147380D01*
X117277142Y-126147380D02*
X116943809Y-125671190D01*
X116705714Y-126147380D02*
X116705714Y-125147380D01*
X116705714Y-125147380D02*
X117086666Y-125147380D01*
X117086666Y-125147380D02*
X117181904Y-125195000D01*
X117181904Y-125195000D02*
X117229523Y-125242619D01*
X117229523Y-125242619D02*
X117277142Y-125337857D01*
X117277142Y-125337857D02*
X117277142Y-125480714D01*
X117277142Y-125480714D02*
X117229523Y-125575952D01*
X117229523Y-125575952D02*
X117181904Y-125623571D01*
X117181904Y-125623571D02*
X117086666Y-125671190D01*
X117086666Y-125671190D02*
X116705714Y-125671190D01*
X117705714Y-126147380D02*
X117705714Y-125147380D01*
X117705714Y-125147380D02*
X117943809Y-125147380D01*
X117943809Y-125147380D02*
X118086666Y-125195000D01*
X118086666Y-125195000D02*
X118181904Y-125290238D01*
X118181904Y-125290238D02*
X118229523Y-125385476D01*
X118229523Y-125385476D02*
X118277142Y-125575952D01*
X118277142Y-125575952D02*
X118277142Y-125718809D01*
X118277142Y-125718809D02*
X118229523Y-125909285D01*
X118229523Y-125909285D02*
X118181904Y-126004523D01*
X118181904Y-126004523D02*
X118086666Y-126099761D01*
X118086666Y-126099761D02*
X117943809Y-126147380D01*
X117943809Y-126147380D02*
X117705714Y-126147380D01*
X118705714Y-125623571D02*
X119039047Y-125623571D01*
X119181904Y-126147380D02*
X118705714Y-126147380D01*
X118705714Y-126147380D02*
X118705714Y-125147380D01*
X118705714Y-125147380D02*
X119181904Y-125147380D01*
X120181904Y-126147380D02*
X119848571Y-125671190D01*
X119610476Y-126147380D02*
X119610476Y-125147380D01*
X119610476Y-125147380D02*
X119991428Y-125147380D01*
X119991428Y-125147380D02*
X120086666Y-125195000D01*
X120086666Y-125195000D02*
X120134285Y-125242619D01*
X120134285Y-125242619D02*
X120181904Y-125337857D01*
X120181904Y-125337857D02*
X120181904Y-125480714D01*
X120181904Y-125480714D02*
X120134285Y-125575952D01*
X120134285Y-125575952D02*
X120086666Y-125623571D01*
X120086666Y-125623571D02*
X119991428Y-125671190D01*
X119991428Y-125671190D02*
X119610476Y-125671190D01*
X109886666Y-54027380D02*
X109696190Y-54027380D01*
X109696190Y-54027380D02*
X109600952Y-54075000D01*
X109600952Y-54075000D02*
X109553333Y-54122619D01*
X109553333Y-54122619D02*
X109458095Y-54265476D01*
X109458095Y-54265476D02*
X109410476Y-54455952D01*
X109410476Y-54455952D02*
X109410476Y-54836904D01*
X109410476Y-54836904D02*
X109458095Y-54932142D01*
X109458095Y-54932142D02*
X109505714Y-54979761D01*
X109505714Y-54979761D02*
X109600952Y-55027380D01*
X109600952Y-55027380D02*
X109791428Y-55027380D01*
X109791428Y-55027380D02*
X109886666Y-54979761D01*
X109886666Y-54979761D02*
X109934285Y-54932142D01*
X109934285Y-54932142D02*
X109981904Y-54836904D01*
X109981904Y-54836904D02*
X109981904Y-54598809D01*
X109981904Y-54598809D02*
X109934285Y-54503571D01*
X109934285Y-54503571D02*
X109886666Y-54455952D01*
X109886666Y-54455952D02*
X109791428Y-54408333D01*
X109791428Y-54408333D02*
X109600952Y-54408333D01*
X109600952Y-54408333D02*
X109505714Y-54455952D01*
X109505714Y-54455952D02*
X109458095Y-54503571D01*
X109458095Y-54503571D02*
X109410476Y-54598809D01*
X111010476Y-54646428D02*
X111772381Y-54646428D01*
X113324761Y-55027380D02*
X112848571Y-55027380D01*
X112848571Y-55027380D02*
X112848571Y-54027380D01*
X113658095Y-54503571D02*
X113991428Y-54503571D01*
X114134285Y-55027380D02*
X113658095Y-55027380D01*
X113658095Y-55027380D02*
X113658095Y-54027380D01*
X113658095Y-54027380D02*
X114134285Y-54027380D01*
X109362857Y-135307380D02*
X109981904Y-135307380D01*
X109981904Y-135307380D02*
X109648571Y-135688333D01*
X109648571Y-135688333D02*
X109791428Y-135688333D01*
X109791428Y-135688333D02*
X109886666Y-135735952D01*
X109886666Y-135735952D02*
X109934285Y-135783571D01*
X109934285Y-135783571D02*
X109981904Y-135878809D01*
X109981904Y-135878809D02*
X109981904Y-136116904D01*
X109981904Y-136116904D02*
X109934285Y-136212142D01*
X109934285Y-136212142D02*
X109886666Y-136259761D01*
X109886666Y-136259761D02*
X109791428Y-136307380D01*
X109791428Y-136307380D02*
X109505714Y-136307380D01*
X109505714Y-136307380D02*
X109410476Y-136259761D01*
X109410476Y-136259761D02*
X109362857Y-136212142D01*
X110553333Y-135735952D02*
X110458095Y-135688333D01*
X110458095Y-135688333D02*
X110410476Y-135640714D01*
X110410476Y-135640714D02*
X110362857Y-135545476D01*
X110362857Y-135545476D02*
X110362857Y-135497857D01*
X110362857Y-135497857D02*
X110410476Y-135402619D01*
X110410476Y-135402619D02*
X110458095Y-135355000D01*
X110458095Y-135355000D02*
X110553333Y-135307380D01*
X110553333Y-135307380D02*
X110743809Y-135307380D01*
X110743809Y-135307380D02*
X110839047Y-135355000D01*
X110839047Y-135355000D02*
X110886666Y-135402619D01*
X110886666Y-135402619D02*
X110934285Y-135497857D01*
X110934285Y-135497857D02*
X110934285Y-135545476D01*
X110934285Y-135545476D02*
X110886666Y-135640714D01*
X110886666Y-135640714D02*
X110839047Y-135688333D01*
X110839047Y-135688333D02*
X110743809Y-135735952D01*
X110743809Y-135735952D02*
X110553333Y-135735952D01*
X110553333Y-135735952D02*
X110458095Y-135783571D01*
X110458095Y-135783571D02*
X110410476Y-135831190D01*
X110410476Y-135831190D02*
X110362857Y-135926428D01*
X110362857Y-135926428D02*
X110362857Y-136116904D01*
X110362857Y-136116904D02*
X110410476Y-136212142D01*
X110410476Y-136212142D02*
X110458095Y-136259761D01*
X110458095Y-136259761D02*
X110553333Y-136307380D01*
X110553333Y-136307380D02*
X110743809Y-136307380D01*
X110743809Y-136307380D02*
X110839047Y-136259761D01*
X110839047Y-136259761D02*
X110886666Y-136212142D01*
X110886666Y-136212142D02*
X110934285Y-136116904D01*
X110934285Y-136116904D02*
X110934285Y-135926428D01*
X110934285Y-135926428D02*
X110886666Y-135831190D01*
X110886666Y-135831190D02*
X110839047Y-135783571D01*
X110839047Y-135783571D02*
X110743809Y-135735952D01*
X111962857Y-135926428D02*
X112724762Y-135926428D01*
X113800952Y-135307380D02*
X113800952Y-136116904D01*
X113800952Y-136116904D02*
X113848571Y-136212142D01*
X113848571Y-136212142D02*
X113896190Y-136259761D01*
X113896190Y-136259761D02*
X113991428Y-136307380D01*
X113991428Y-136307380D02*
X114181904Y-136307380D01*
X114181904Y-136307380D02*
X114277142Y-136259761D01*
X114277142Y-136259761D02*
X114324761Y-136212142D01*
X114324761Y-136212142D02*
X114372380Y-136116904D01*
X114372380Y-136116904D02*
X114372380Y-135307380D01*
X114800952Y-135402619D02*
X114848571Y-135355000D01*
X114848571Y-135355000D02*
X114943809Y-135307380D01*
X114943809Y-135307380D02*
X115181904Y-135307380D01*
X115181904Y-135307380D02*
X115277142Y-135355000D01*
X115277142Y-135355000D02*
X115324761Y-135402619D01*
X115324761Y-135402619D02*
X115372380Y-135497857D01*
X115372380Y-135497857D02*
X115372380Y-135593095D01*
X115372380Y-135593095D02*
X115324761Y-135735952D01*
X115324761Y-135735952D02*
X114753333Y-136307380D01*
X114753333Y-136307380D02*
X115372380Y-136307380D01*
X116372380Y-136212142D02*
X116324761Y-136259761D01*
X116324761Y-136259761D02*
X116181904Y-136307380D01*
X116181904Y-136307380D02*
X116086666Y-136307380D01*
X116086666Y-136307380D02*
X115943809Y-136259761D01*
X115943809Y-136259761D02*
X115848571Y-136164523D01*
X115848571Y-136164523D02*
X115800952Y-136069285D01*
X115800952Y-136069285D02*
X115753333Y-135878809D01*
X115753333Y-135878809D02*
X115753333Y-135735952D01*
X115753333Y-135735952D02*
X115800952Y-135545476D01*
X115800952Y-135545476D02*
X115848571Y-135450238D01*
X115848571Y-135450238D02*
X115943809Y-135355000D01*
X115943809Y-135355000D02*
X116086666Y-135307380D01*
X116086666Y-135307380D02*
X116181904Y-135307380D01*
X116181904Y-135307380D02*
X116324761Y-135355000D01*
X116324761Y-135355000D02*
X116372380Y-135402619D01*
X116800952Y-136307380D02*
X116800952Y-135307380D01*
X117372380Y-136307380D02*
X116943809Y-135735952D01*
X117372380Y-135307380D02*
X116800952Y-135878809D01*
X117658095Y-135307380D02*
X117991428Y-136307380D01*
X117991428Y-136307380D02*
X118324761Y-135307380D01*
X109981904Y-70267380D02*
X109410476Y-70267380D01*
X109696190Y-70267380D02*
X109696190Y-69267380D01*
X109696190Y-69267380D02*
X109600952Y-69410238D01*
X109600952Y-69410238D02*
X109505714Y-69505476D01*
X109505714Y-69505476D02*
X109410476Y-69553095D01*
X110362857Y-69362619D02*
X110410476Y-69315000D01*
X110410476Y-69315000D02*
X110505714Y-69267380D01*
X110505714Y-69267380D02*
X110743809Y-69267380D01*
X110743809Y-69267380D02*
X110839047Y-69315000D01*
X110839047Y-69315000D02*
X110886666Y-69362619D01*
X110886666Y-69362619D02*
X110934285Y-69457857D01*
X110934285Y-69457857D02*
X110934285Y-69553095D01*
X110934285Y-69553095D02*
X110886666Y-69695952D01*
X110886666Y-69695952D02*
X110315238Y-70267380D01*
X110315238Y-70267380D02*
X110934285Y-70267380D01*
X111962857Y-69886428D02*
X112724762Y-69886428D01*
X113800952Y-70267380D02*
X113800952Y-69267380D01*
X113800952Y-69267380D02*
X114039047Y-69267380D01*
X114039047Y-69267380D02*
X114181904Y-69315000D01*
X114181904Y-69315000D02*
X114277142Y-69410238D01*
X114277142Y-69410238D02*
X114324761Y-69505476D01*
X114324761Y-69505476D02*
X114372380Y-69695952D01*
X114372380Y-69695952D02*
X114372380Y-69838809D01*
X114372380Y-69838809D02*
X114324761Y-70029285D01*
X114324761Y-70029285D02*
X114277142Y-70124523D01*
X114277142Y-70124523D02*
X114181904Y-70219761D01*
X114181904Y-70219761D02*
X114039047Y-70267380D01*
X114039047Y-70267380D02*
X113800952Y-70267380D01*
X114991428Y-69267380D02*
X115086666Y-69267380D01*
X115086666Y-69267380D02*
X115181904Y-69315000D01*
X115181904Y-69315000D02*
X115229523Y-69362619D01*
X115229523Y-69362619D02*
X115277142Y-69457857D01*
X115277142Y-69457857D02*
X115324761Y-69648333D01*
X115324761Y-69648333D02*
X115324761Y-69886428D01*
X115324761Y-69886428D02*
X115277142Y-70076904D01*
X115277142Y-70076904D02*
X115229523Y-70172142D01*
X115229523Y-70172142D02*
X115181904Y-70219761D01*
X115181904Y-70219761D02*
X115086666Y-70267380D01*
X115086666Y-70267380D02*
X114991428Y-70267380D01*
X114991428Y-70267380D02*
X114896190Y-70219761D01*
X114896190Y-70219761D02*
X114848571Y-70172142D01*
X114848571Y-70172142D02*
X114800952Y-70076904D01*
X114800952Y-70076904D02*
X114753333Y-69886428D01*
X114753333Y-69886428D02*
X114753333Y-69648333D01*
X114753333Y-69648333D02*
X114800952Y-69457857D01*
X114800952Y-69457857D02*
X114848571Y-69362619D01*
X114848571Y-69362619D02*
X114896190Y-69315000D01*
X114896190Y-69315000D02*
X114991428Y-69267380D01*
X109362857Y-132767380D02*
X109981904Y-132767380D01*
X109981904Y-132767380D02*
X109648571Y-133148333D01*
X109648571Y-133148333D02*
X109791428Y-133148333D01*
X109791428Y-133148333D02*
X109886666Y-133195952D01*
X109886666Y-133195952D02*
X109934285Y-133243571D01*
X109934285Y-133243571D02*
X109981904Y-133338809D01*
X109981904Y-133338809D02*
X109981904Y-133576904D01*
X109981904Y-133576904D02*
X109934285Y-133672142D01*
X109934285Y-133672142D02*
X109886666Y-133719761D01*
X109886666Y-133719761D02*
X109791428Y-133767380D01*
X109791428Y-133767380D02*
X109505714Y-133767380D01*
X109505714Y-133767380D02*
X109410476Y-133719761D01*
X109410476Y-133719761D02*
X109362857Y-133672142D01*
X110315238Y-132767380D02*
X110981904Y-132767380D01*
X110981904Y-132767380D02*
X110553333Y-133767380D01*
X111962857Y-133386428D02*
X112724762Y-133386428D01*
X113800952Y-132767380D02*
X113800952Y-133576904D01*
X113800952Y-133576904D02*
X113848571Y-133672142D01*
X113848571Y-133672142D02*
X113896190Y-133719761D01*
X113896190Y-133719761D02*
X113991428Y-133767380D01*
X113991428Y-133767380D02*
X114181904Y-133767380D01*
X114181904Y-133767380D02*
X114277142Y-133719761D01*
X114277142Y-133719761D02*
X114324761Y-133672142D01*
X114324761Y-133672142D02*
X114372380Y-133576904D01*
X114372380Y-133576904D02*
X114372380Y-132767380D01*
X114800952Y-132862619D02*
X114848571Y-132815000D01*
X114848571Y-132815000D02*
X114943809Y-132767380D01*
X114943809Y-132767380D02*
X115181904Y-132767380D01*
X115181904Y-132767380D02*
X115277142Y-132815000D01*
X115277142Y-132815000D02*
X115324761Y-132862619D01*
X115324761Y-132862619D02*
X115372380Y-132957857D01*
X115372380Y-132957857D02*
X115372380Y-133053095D01*
X115372380Y-133053095D02*
X115324761Y-133195952D01*
X115324761Y-133195952D02*
X114753333Y-133767380D01*
X114753333Y-133767380D02*
X115372380Y-133767380D01*
X115753333Y-133719761D02*
X115896190Y-133767380D01*
X115896190Y-133767380D02*
X116134285Y-133767380D01*
X116134285Y-133767380D02*
X116229523Y-133719761D01*
X116229523Y-133719761D02*
X116277142Y-133672142D01*
X116277142Y-133672142D02*
X116324761Y-133576904D01*
X116324761Y-133576904D02*
X116324761Y-133481666D01*
X116324761Y-133481666D02*
X116277142Y-133386428D01*
X116277142Y-133386428D02*
X116229523Y-133338809D01*
X116229523Y-133338809D02*
X116134285Y-133291190D01*
X116134285Y-133291190D02*
X115943809Y-133243571D01*
X115943809Y-133243571D02*
X115848571Y-133195952D01*
X115848571Y-133195952D02*
X115800952Y-133148333D01*
X115800952Y-133148333D02*
X115753333Y-133053095D01*
X115753333Y-133053095D02*
X115753333Y-132957857D01*
X115753333Y-132957857D02*
X115800952Y-132862619D01*
X115800952Y-132862619D02*
X115848571Y-132815000D01*
X115848571Y-132815000D02*
X115943809Y-132767380D01*
X115943809Y-132767380D02*
X116181904Y-132767380D01*
X116181904Y-132767380D02*
X116324761Y-132815000D01*
X116753333Y-133767380D02*
X116753333Y-132767380D01*
X116753333Y-132767380D02*
X117134285Y-132767380D01*
X117134285Y-132767380D02*
X117229523Y-132815000D01*
X117229523Y-132815000D02*
X117277142Y-132862619D01*
X117277142Y-132862619D02*
X117324761Y-132957857D01*
X117324761Y-132957857D02*
X117324761Y-133100714D01*
X117324761Y-133100714D02*
X117277142Y-133195952D01*
X117277142Y-133195952D02*
X117229523Y-133243571D01*
X117229523Y-133243571D02*
X117134285Y-133291190D01*
X117134285Y-133291190D02*
X116753333Y-133291190D01*
X117610476Y-132767380D02*
X117943809Y-133767380D01*
X117943809Y-133767380D02*
X118277142Y-132767380D01*
X109410476Y-99842619D02*
X109458095Y-99795000D01*
X109458095Y-99795000D02*
X109553333Y-99747380D01*
X109553333Y-99747380D02*
X109791428Y-99747380D01*
X109791428Y-99747380D02*
X109886666Y-99795000D01*
X109886666Y-99795000D02*
X109934285Y-99842619D01*
X109934285Y-99842619D02*
X109981904Y-99937857D01*
X109981904Y-99937857D02*
X109981904Y-100033095D01*
X109981904Y-100033095D02*
X109934285Y-100175952D01*
X109934285Y-100175952D02*
X109362857Y-100747380D01*
X109362857Y-100747380D02*
X109981904Y-100747380D01*
X110839047Y-100080714D02*
X110839047Y-100747380D01*
X110600952Y-99699761D02*
X110362857Y-100414047D01*
X110362857Y-100414047D02*
X110981904Y-100414047D01*
X111962857Y-100366428D02*
X112724762Y-100366428D01*
X114324761Y-99795000D02*
X114229523Y-99747380D01*
X114229523Y-99747380D02*
X114086666Y-99747380D01*
X114086666Y-99747380D02*
X113943809Y-99795000D01*
X113943809Y-99795000D02*
X113848571Y-99890238D01*
X113848571Y-99890238D02*
X113800952Y-99985476D01*
X113800952Y-99985476D02*
X113753333Y-100175952D01*
X113753333Y-100175952D02*
X113753333Y-100318809D01*
X113753333Y-100318809D02*
X113800952Y-100509285D01*
X113800952Y-100509285D02*
X113848571Y-100604523D01*
X113848571Y-100604523D02*
X113943809Y-100699761D01*
X113943809Y-100699761D02*
X114086666Y-100747380D01*
X114086666Y-100747380D02*
X114181904Y-100747380D01*
X114181904Y-100747380D02*
X114324761Y-100699761D01*
X114324761Y-100699761D02*
X114372380Y-100652142D01*
X114372380Y-100652142D02*
X114372380Y-100318809D01*
X114372380Y-100318809D02*
X114181904Y-100318809D01*
X114658095Y-99747380D02*
X114991428Y-100747380D01*
X114991428Y-100747380D02*
X115324761Y-99747380D01*
X115658095Y-100223571D02*
X115991428Y-100223571D01*
X116134285Y-100747380D02*
X115658095Y-100747380D01*
X115658095Y-100747380D02*
X115658095Y-99747380D01*
X115658095Y-99747380D02*
X116134285Y-99747380D01*
X116562857Y-100223571D02*
X116896190Y-100223571D01*
X117039047Y-100747380D02*
X116562857Y-100747380D01*
X116562857Y-100747380D02*
X116562857Y-99747380D01*
X116562857Y-99747380D02*
X117039047Y-99747380D01*
X109410476Y-107462619D02*
X109458095Y-107415000D01*
X109458095Y-107415000D02*
X109553333Y-107367380D01*
X109553333Y-107367380D02*
X109791428Y-107367380D01*
X109791428Y-107367380D02*
X109886666Y-107415000D01*
X109886666Y-107415000D02*
X109934285Y-107462619D01*
X109934285Y-107462619D02*
X109981904Y-107557857D01*
X109981904Y-107557857D02*
X109981904Y-107653095D01*
X109981904Y-107653095D02*
X109934285Y-107795952D01*
X109934285Y-107795952D02*
X109362857Y-108367380D01*
X109362857Y-108367380D02*
X109981904Y-108367380D01*
X110315238Y-107367380D02*
X110981904Y-107367380D01*
X110981904Y-107367380D02*
X110553333Y-108367380D01*
X111962857Y-107986428D02*
X112724762Y-107986428D01*
X114324761Y-107415000D02*
X114229523Y-107367380D01*
X114229523Y-107367380D02*
X114086666Y-107367380D01*
X114086666Y-107367380D02*
X113943809Y-107415000D01*
X113943809Y-107415000D02*
X113848571Y-107510238D01*
X113848571Y-107510238D02*
X113800952Y-107605476D01*
X113800952Y-107605476D02*
X113753333Y-107795952D01*
X113753333Y-107795952D02*
X113753333Y-107938809D01*
X113753333Y-107938809D02*
X113800952Y-108129285D01*
X113800952Y-108129285D02*
X113848571Y-108224523D01*
X113848571Y-108224523D02*
X113943809Y-108319761D01*
X113943809Y-108319761D02*
X114086666Y-108367380D01*
X114086666Y-108367380D02*
X114181904Y-108367380D01*
X114181904Y-108367380D02*
X114324761Y-108319761D01*
X114324761Y-108319761D02*
X114372380Y-108272142D01*
X114372380Y-108272142D02*
X114372380Y-107938809D01*
X114372380Y-107938809D02*
X114181904Y-107938809D01*
X114800952Y-108367380D02*
X114800952Y-107367380D01*
X114800952Y-107367380D02*
X115134285Y-108081666D01*
X115134285Y-108081666D02*
X115467618Y-107367380D01*
X115467618Y-107367380D02*
X115467618Y-108367380D01*
X116134285Y-107367380D02*
X116324761Y-107367380D01*
X116324761Y-107367380D02*
X116419999Y-107415000D01*
X116419999Y-107415000D02*
X116515237Y-107510238D01*
X116515237Y-107510238D02*
X116562856Y-107700714D01*
X116562856Y-107700714D02*
X116562856Y-108034047D01*
X116562856Y-108034047D02*
X116515237Y-108224523D01*
X116515237Y-108224523D02*
X116419999Y-108319761D01*
X116419999Y-108319761D02*
X116324761Y-108367380D01*
X116324761Y-108367380D02*
X116134285Y-108367380D01*
X116134285Y-108367380D02*
X116039047Y-108319761D01*
X116039047Y-108319761D02*
X115943809Y-108224523D01*
X115943809Y-108224523D02*
X115896190Y-108034047D01*
X115896190Y-108034047D02*
X115896190Y-107700714D01*
X115896190Y-107700714D02*
X115943809Y-107510238D01*
X115943809Y-107510238D02*
X116039047Y-107415000D01*
X116039047Y-107415000D02*
X116134285Y-107367380D01*
X116991428Y-108367380D02*
X116991428Y-107367380D01*
X116991428Y-107367380D02*
X117229523Y-107367380D01*
X117229523Y-107367380D02*
X117372380Y-107415000D01*
X117372380Y-107415000D02*
X117467618Y-107510238D01*
X117467618Y-107510238D02*
X117515237Y-107605476D01*
X117515237Y-107605476D02*
X117562856Y-107795952D01*
X117562856Y-107795952D02*
X117562856Y-107938809D01*
X117562856Y-107938809D02*
X117515237Y-108129285D01*
X117515237Y-108129285D02*
X117467618Y-108224523D01*
X117467618Y-108224523D02*
X117372380Y-108319761D01*
X117372380Y-108319761D02*
X117229523Y-108367380D01*
X117229523Y-108367380D02*
X116991428Y-108367380D01*
X117991428Y-107843571D02*
X118324761Y-107843571D01*
X118467618Y-108367380D02*
X117991428Y-108367380D01*
X117991428Y-108367380D02*
X117991428Y-107367380D01*
X117991428Y-107367380D02*
X118467618Y-107367380D01*
X118848571Y-107462619D02*
X118896190Y-107415000D01*
X118896190Y-107415000D02*
X118991428Y-107367380D01*
X118991428Y-107367380D02*
X119229523Y-107367380D01*
X119229523Y-107367380D02*
X119324761Y-107415000D01*
X119324761Y-107415000D02*
X119372380Y-107462619D01*
X119372380Y-107462619D02*
X119419999Y-107557857D01*
X119419999Y-107557857D02*
X119419999Y-107653095D01*
X119419999Y-107653095D02*
X119372380Y-107795952D01*
X119372380Y-107795952D02*
X118800952Y-108367380D01*
X118800952Y-108367380D02*
X119419999Y-108367380D01*
X109981904Y-85507380D02*
X109410476Y-85507380D01*
X109696190Y-85507380D02*
X109696190Y-84507380D01*
X109696190Y-84507380D02*
X109600952Y-84650238D01*
X109600952Y-84650238D02*
X109505714Y-84745476D01*
X109505714Y-84745476D02*
X109410476Y-84793095D01*
X110553333Y-84935952D02*
X110458095Y-84888333D01*
X110458095Y-84888333D02*
X110410476Y-84840714D01*
X110410476Y-84840714D02*
X110362857Y-84745476D01*
X110362857Y-84745476D02*
X110362857Y-84697857D01*
X110362857Y-84697857D02*
X110410476Y-84602619D01*
X110410476Y-84602619D02*
X110458095Y-84555000D01*
X110458095Y-84555000D02*
X110553333Y-84507380D01*
X110553333Y-84507380D02*
X110743809Y-84507380D01*
X110743809Y-84507380D02*
X110839047Y-84555000D01*
X110839047Y-84555000D02*
X110886666Y-84602619D01*
X110886666Y-84602619D02*
X110934285Y-84697857D01*
X110934285Y-84697857D02*
X110934285Y-84745476D01*
X110934285Y-84745476D02*
X110886666Y-84840714D01*
X110886666Y-84840714D02*
X110839047Y-84888333D01*
X110839047Y-84888333D02*
X110743809Y-84935952D01*
X110743809Y-84935952D02*
X110553333Y-84935952D01*
X110553333Y-84935952D02*
X110458095Y-84983571D01*
X110458095Y-84983571D02*
X110410476Y-85031190D01*
X110410476Y-85031190D02*
X110362857Y-85126428D01*
X110362857Y-85126428D02*
X110362857Y-85316904D01*
X110362857Y-85316904D02*
X110410476Y-85412142D01*
X110410476Y-85412142D02*
X110458095Y-85459761D01*
X110458095Y-85459761D02*
X110553333Y-85507380D01*
X110553333Y-85507380D02*
X110743809Y-85507380D01*
X110743809Y-85507380D02*
X110839047Y-85459761D01*
X110839047Y-85459761D02*
X110886666Y-85412142D01*
X110886666Y-85412142D02*
X110934285Y-85316904D01*
X110934285Y-85316904D02*
X110934285Y-85126428D01*
X110934285Y-85126428D02*
X110886666Y-85031190D01*
X110886666Y-85031190D02*
X110839047Y-84983571D01*
X110839047Y-84983571D02*
X110743809Y-84935952D01*
X111962857Y-85126428D02*
X112724762Y-85126428D01*
X113800952Y-85507380D02*
X113800952Y-84507380D01*
X113800952Y-84507380D02*
X114039047Y-84507380D01*
X114039047Y-84507380D02*
X114181904Y-84555000D01*
X114181904Y-84555000D02*
X114277142Y-84650238D01*
X114277142Y-84650238D02*
X114324761Y-84745476D01*
X114324761Y-84745476D02*
X114372380Y-84935952D01*
X114372380Y-84935952D02*
X114372380Y-85078809D01*
X114372380Y-85078809D02*
X114324761Y-85269285D01*
X114324761Y-85269285D02*
X114277142Y-85364523D01*
X114277142Y-85364523D02*
X114181904Y-85459761D01*
X114181904Y-85459761D02*
X114039047Y-85507380D01*
X114039047Y-85507380D02*
X113800952Y-85507380D01*
X115229523Y-84507380D02*
X115039047Y-84507380D01*
X115039047Y-84507380D02*
X114943809Y-84555000D01*
X114943809Y-84555000D02*
X114896190Y-84602619D01*
X114896190Y-84602619D02*
X114800952Y-84745476D01*
X114800952Y-84745476D02*
X114753333Y-84935952D01*
X114753333Y-84935952D02*
X114753333Y-85316904D01*
X114753333Y-85316904D02*
X114800952Y-85412142D01*
X114800952Y-85412142D02*
X114848571Y-85459761D01*
X114848571Y-85459761D02*
X114943809Y-85507380D01*
X114943809Y-85507380D02*
X115134285Y-85507380D01*
X115134285Y-85507380D02*
X115229523Y-85459761D01*
X115229523Y-85459761D02*
X115277142Y-85412142D01*
X115277142Y-85412142D02*
X115324761Y-85316904D01*
X115324761Y-85316904D02*
X115324761Y-85078809D01*
X115324761Y-85078809D02*
X115277142Y-84983571D01*
X115277142Y-84983571D02*
X115229523Y-84935952D01*
X115229523Y-84935952D02*
X115134285Y-84888333D01*
X115134285Y-84888333D02*
X114943809Y-84888333D01*
X114943809Y-84888333D02*
X114848571Y-84935952D01*
X114848571Y-84935952D02*
X114800952Y-84983571D01*
X114800952Y-84983571D02*
X114753333Y-85078809D01*
X109410476Y-94762619D02*
X109458095Y-94715000D01*
X109458095Y-94715000D02*
X109553333Y-94667380D01*
X109553333Y-94667380D02*
X109791428Y-94667380D01*
X109791428Y-94667380D02*
X109886666Y-94715000D01*
X109886666Y-94715000D02*
X109934285Y-94762619D01*
X109934285Y-94762619D02*
X109981904Y-94857857D01*
X109981904Y-94857857D02*
X109981904Y-94953095D01*
X109981904Y-94953095D02*
X109934285Y-95095952D01*
X109934285Y-95095952D02*
X109362857Y-95667380D01*
X109362857Y-95667380D02*
X109981904Y-95667380D01*
X110362857Y-94762619D02*
X110410476Y-94715000D01*
X110410476Y-94715000D02*
X110505714Y-94667380D01*
X110505714Y-94667380D02*
X110743809Y-94667380D01*
X110743809Y-94667380D02*
X110839047Y-94715000D01*
X110839047Y-94715000D02*
X110886666Y-94762619D01*
X110886666Y-94762619D02*
X110934285Y-94857857D01*
X110934285Y-94857857D02*
X110934285Y-94953095D01*
X110934285Y-94953095D02*
X110886666Y-95095952D01*
X110886666Y-95095952D02*
X110315238Y-95667380D01*
X110315238Y-95667380D02*
X110934285Y-95667380D01*
X111962857Y-95286428D02*
X112724762Y-95286428D01*
X113658095Y-94667380D02*
X113991428Y-95667380D01*
X113991428Y-95667380D02*
X114324761Y-94667380D01*
X115229523Y-95572142D02*
X115181904Y-95619761D01*
X115181904Y-95619761D02*
X115039047Y-95667380D01*
X115039047Y-95667380D02*
X114943809Y-95667380D01*
X114943809Y-95667380D02*
X114800952Y-95619761D01*
X114800952Y-95619761D02*
X114705714Y-95524523D01*
X114705714Y-95524523D02*
X114658095Y-95429285D01*
X114658095Y-95429285D02*
X114610476Y-95238809D01*
X114610476Y-95238809D02*
X114610476Y-95095952D01*
X114610476Y-95095952D02*
X114658095Y-94905476D01*
X114658095Y-94905476D02*
X114705714Y-94810238D01*
X114705714Y-94810238D02*
X114800952Y-94715000D01*
X114800952Y-94715000D02*
X114943809Y-94667380D01*
X114943809Y-94667380D02*
X115039047Y-94667380D01*
X115039047Y-94667380D02*
X115181904Y-94715000D01*
X115181904Y-94715000D02*
X115229523Y-94762619D01*
X115848571Y-94667380D02*
X116039047Y-94667380D01*
X116039047Y-94667380D02*
X116134285Y-94715000D01*
X116134285Y-94715000D02*
X116229523Y-94810238D01*
X116229523Y-94810238D02*
X116277142Y-95000714D01*
X116277142Y-95000714D02*
X116277142Y-95334047D01*
X116277142Y-95334047D02*
X116229523Y-95524523D01*
X116229523Y-95524523D02*
X116134285Y-95619761D01*
X116134285Y-95619761D02*
X116039047Y-95667380D01*
X116039047Y-95667380D02*
X115848571Y-95667380D01*
X115848571Y-95667380D02*
X115753333Y-95619761D01*
X115753333Y-95619761D02*
X115658095Y-95524523D01*
X115658095Y-95524523D02*
X115610476Y-95334047D01*
X115610476Y-95334047D02*
X115610476Y-95000714D01*
X115610476Y-95000714D02*
X115658095Y-94810238D01*
X115658095Y-94810238D02*
X115753333Y-94715000D01*
X115753333Y-94715000D02*
X115848571Y-94667380D01*
X116705714Y-95667380D02*
X116705714Y-94667380D01*
X116705714Y-94667380D02*
X117039047Y-95381666D01*
X117039047Y-95381666D02*
X117372380Y-94667380D01*
X117372380Y-94667380D02*
X117372380Y-95667380D01*
X109410476Y-89682619D02*
X109458095Y-89635000D01*
X109458095Y-89635000D02*
X109553333Y-89587380D01*
X109553333Y-89587380D02*
X109791428Y-89587380D01*
X109791428Y-89587380D02*
X109886666Y-89635000D01*
X109886666Y-89635000D02*
X109934285Y-89682619D01*
X109934285Y-89682619D02*
X109981904Y-89777857D01*
X109981904Y-89777857D02*
X109981904Y-89873095D01*
X109981904Y-89873095D02*
X109934285Y-90015952D01*
X109934285Y-90015952D02*
X109362857Y-90587380D01*
X109362857Y-90587380D02*
X109981904Y-90587380D01*
X110600952Y-89587380D02*
X110696190Y-89587380D01*
X110696190Y-89587380D02*
X110791428Y-89635000D01*
X110791428Y-89635000D02*
X110839047Y-89682619D01*
X110839047Y-89682619D02*
X110886666Y-89777857D01*
X110886666Y-89777857D02*
X110934285Y-89968333D01*
X110934285Y-89968333D02*
X110934285Y-90206428D01*
X110934285Y-90206428D02*
X110886666Y-90396904D01*
X110886666Y-90396904D02*
X110839047Y-90492142D01*
X110839047Y-90492142D02*
X110791428Y-90539761D01*
X110791428Y-90539761D02*
X110696190Y-90587380D01*
X110696190Y-90587380D02*
X110600952Y-90587380D01*
X110600952Y-90587380D02*
X110505714Y-90539761D01*
X110505714Y-90539761D02*
X110458095Y-90492142D01*
X110458095Y-90492142D02*
X110410476Y-90396904D01*
X110410476Y-90396904D02*
X110362857Y-90206428D01*
X110362857Y-90206428D02*
X110362857Y-89968333D01*
X110362857Y-89968333D02*
X110410476Y-89777857D01*
X110410476Y-89777857D02*
X110458095Y-89682619D01*
X110458095Y-89682619D02*
X110505714Y-89635000D01*
X110505714Y-89635000D02*
X110600952Y-89587380D01*
X111962857Y-90206428D02*
X112724762Y-90206428D01*
X113800952Y-90587380D02*
X113800952Y-89587380D01*
X113800952Y-89587380D02*
X114372380Y-90587380D01*
X114372380Y-90587380D02*
X114372380Y-89587380D01*
X115419999Y-90492142D02*
X115372380Y-90539761D01*
X115372380Y-90539761D02*
X115229523Y-90587380D01*
X115229523Y-90587380D02*
X115134285Y-90587380D01*
X115134285Y-90587380D02*
X114991428Y-90539761D01*
X114991428Y-90539761D02*
X114896190Y-90444523D01*
X114896190Y-90444523D02*
X114848571Y-90349285D01*
X114848571Y-90349285D02*
X114800952Y-90158809D01*
X114800952Y-90158809D02*
X114800952Y-90015952D01*
X114800952Y-90015952D02*
X114848571Y-89825476D01*
X114848571Y-89825476D02*
X114896190Y-89730238D01*
X114896190Y-89730238D02*
X114991428Y-89635000D01*
X114991428Y-89635000D02*
X115134285Y-89587380D01*
X115134285Y-89587380D02*
X115229523Y-89587380D01*
X115229523Y-89587380D02*
X115372380Y-89635000D01*
X115372380Y-89635000D02*
X115419999Y-89682619D01*
X109981904Y-88047380D02*
X109410476Y-88047380D01*
X109696190Y-88047380D02*
X109696190Y-87047380D01*
X109696190Y-87047380D02*
X109600952Y-87190238D01*
X109600952Y-87190238D02*
X109505714Y-87285476D01*
X109505714Y-87285476D02*
X109410476Y-87333095D01*
X110458095Y-88047380D02*
X110648571Y-88047380D01*
X110648571Y-88047380D02*
X110743809Y-87999761D01*
X110743809Y-87999761D02*
X110791428Y-87952142D01*
X110791428Y-87952142D02*
X110886666Y-87809285D01*
X110886666Y-87809285D02*
X110934285Y-87618809D01*
X110934285Y-87618809D02*
X110934285Y-87237857D01*
X110934285Y-87237857D02*
X110886666Y-87142619D01*
X110886666Y-87142619D02*
X110839047Y-87095000D01*
X110839047Y-87095000D02*
X110743809Y-87047380D01*
X110743809Y-87047380D02*
X110553333Y-87047380D01*
X110553333Y-87047380D02*
X110458095Y-87095000D01*
X110458095Y-87095000D02*
X110410476Y-87142619D01*
X110410476Y-87142619D02*
X110362857Y-87237857D01*
X110362857Y-87237857D02*
X110362857Y-87475952D01*
X110362857Y-87475952D02*
X110410476Y-87571190D01*
X110410476Y-87571190D02*
X110458095Y-87618809D01*
X110458095Y-87618809D02*
X110553333Y-87666428D01*
X110553333Y-87666428D02*
X110743809Y-87666428D01*
X110743809Y-87666428D02*
X110839047Y-87618809D01*
X110839047Y-87618809D02*
X110886666Y-87571190D01*
X110886666Y-87571190D02*
X110934285Y-87475952D01*
X111962857Y-87666428D02*
X112724762Y-87666428D01*
X113800952Y-88047380D02*
X113800952Y-87047380D01*
X113800952Y-87047380D02*
X114039047Y-87047380D01*
X114039047Y-87047380D02*
X114181904Y-87095000D01*
X114181904Y-87095000D02*
X114277142Y-87190238D01*
X114277142Y-87190238D02*
X114324761Y-87285476D01*
X114324761Y-87285476D02*
X114372380Y-87475952D01*
X114372380Y-87475952D02*
X114372380Y-87618809D01*
X114372380Y-87618809D02*
X114324761Y-87809285D01*
X114324761Y-87809285D02*
X114277142Y-87904523D01*
X114277142Y-87904523D02*
X114181904Y-87999761D01*
X114181904Y-87999761D02*
X114039047Y-88047380D01*
X114039047Y-88047380D02*
X113800952Y-88047380D01*
X114705714Y-87047380D02*
X115372380Y-87047380D01*
X115372380Y-87047380D02*
X114943809Y-88047380D01*
X109981904Y-75347380D02*
X109410476Y-75347380D01*
X109696190Y-75347380D02*
X109696190Y-74347380D01*
X109696190Y-74347380D02*
X109600952Y-74490238D01*
X109600952Y-74490238D02*
X109505714Y-74585476D01*
X109505714Y-74585476D02*
X109410476Y-74633095D01*
X110839047Y-74680714D02*
X110839047Y-75347380D01*
X110600952Y-74299761D02*
X110362857Y-75014047D01*
X110362857Y-75014047D02*
X110981904Y-75014047D01*
X111962857Y-74966428D02*
X112724762Y-74966428D01*
X113800952Y-75347380D02*
X113800952Y-74347380D01*
X113800952Y-74347380D02*
X114039047Y-74347380D01*
X114039047Y-74347380D02*
X114181904Y-74395000D01*
X114181904Y-74395000D02*
X114277142Y-74490238D01*
X114277142Y-74490238D02*
X114324761Y-74585476D01*
X114324761Y-74585476D02*
X114372380Y-74775952D01*
X114372380Y-74775952D02*
X114372380Y-74918809D01*
X114372380Y-74918809D02*
X114324761Y-75109285D01*
X114324761Y-75109285D02*
X114277142Y-75204523D01*
X114277142Y-75204523D02*
X114181904Y-75299761D01*
X114181904Y-75299761D02*
X114039047Y-75347380D01*
X114039047Y-75347380D02*
X113800952Y-75347380D01*
X114753333Y-74442619D02*
X114800952Y-74395000D01*
X114800952Y-74395000D02*
X114896190Y-74347380D01*
X114896190Y-74347380D02*
X115134285Y-74347380D01*
X115134285Y-74347380D02*
X115229523Y-74395000D01*
X115229523Y-74395000D02*
X115277142Y-74442619D01*
X115277142Y-74442619D02*
X115324761Y-74537857D01*
X115324761Y-74537857D02*
X115324761Y-74633095D01*
X115324761Y-74633095D02*
X115277142Y-74775952D01*
X115277142Y-74775952D02*
X114705714Y-75347380D01*
X114705714Y-75347380D02*
X115324761Y-75347380D01*
X109362857Y-117527380D02*
X109981904Y-117527380D01*
X109981904Y-117527380D02*
X109648571Y-117908333D01*
X109648571Y-117908333D02*
X109791428Y-117908333D01*
X109791428Y-117908333D02*
X109886666Y-117955952D01*
X109886666Y-117955952D02*
X109934285Y-118003571D01*
X109934285Y-118003571D02*
X109981904Y-118098809D01*
X109981904Y-118098809D02*
X109981904Y-118336904D01*
X109981904Y-118336904D02*
X109934285Y-118432142D01*
X109934285Y-118432142D02*
X109886666Y-118479761D01*
X109886666Y-118479761D02*
X109791428Y-118527380D01*
X109791428Y-118527380D02*
X109505714Y-118527380D01*
X109505714Y-118527380D02*
X109410476Y-118479761D01*
X109410476Y-118479761D02*
X109362857Y-118432142D01*
X110934285Y-118527380D02*
X110362857Y-118527380D01*
X110648571Y-118527380D02*
X110648571Y-117527380D01*
X110648571Y-117527380D02*
X110553333Y-117670238D01*
X110553333Y-117670238D02*
X110458095Y-117765476D01*
X110458095Y-117765476D02*
X110362857Y-117813095D01*
X111962857Y-118146428D02*
X112724762Y-118146428D01*
X113800952Y-117527380D02*
X113800952Y-118336904D01*
X113800952Y-118336904D02*
X113848571Y-118432142D01*
X113848571Y-118432142D02*
X113896190Y-118479761D01*
X113896190Y-118479761D02*
X113991428Y-118527380D01*
X113991428Y-118527380D02*
X114181904Y-118527380D01*
X114181904Y-118527380D02*
X114277142Y-118479761D01*
X114277142Y-118479761D02*
X114324761Y-118432142D01*
X114324761Y-118432142D02*
X114372380Y-118336904D01*
X114372380Y-118336904D02*
X114372380Y-117527380D01*
X115372380Y-118527380D02*
X114800952Y-118527380D01*
X115086666Y-118527380D02*
X115086666Y-117527380D01*
X115086666Y-117527380D02*
X114991428Y-117670238D01*
X114991428Y-117670238D02*
X114896190Y-117765476D01*
X114896190Y-117765476D02*
X114800952Y-117813095D01*
X116372380Y-118432142D02*
X116324761Y-118479761D01*
X116324761Y-118479761D02*
X116181904Y-118527380D01*
X116181904Y-118527380D02*
X116086666Y-118527380D01*
X116086666Y-118527380D02*
X115943809Y-118479761D01*
X115943809Y-118479761D02*
X115848571Y-118384523D01*
X115848571Y-118384523D02*
X115800952Y-118289285D01*
X115800952Y-118289285D02*
X115753333Y-118098809D01*
X115753333Y-118098809D02*
X115753333Y-117955952D01*
X115753333Y-117955952D02*
X115800952Y-117765476D01*
X115800952Y-117765476D02*
X115848571Y-117670238D01*
X115848571Y-117670238D02*
X115943809Y-117575000D01*
X115943809Y-117575000D02*
X116086666Y-117527380D01*
X116086666Y-117527380D02*
X116181904Y-117527380D01*
X116181904Y-117527380D02*
X116324761Y-117575000D01*
X116324761Y-117575000D02*
X116372380Y-117622619D01*
X116800952Y-118003571D02*
X117134285Y-118003571D01*
X117277142Y-118527380D02*
X116800952Y-118527380D01*
X116800952Y-118527380D02*
X116800952Y-117527380D01*
X116800952Y-117527380D02*
X117277142Y-117527380D01*
X118229523Y-118527380D02*
X117658095Y-118527380D01*
X117943809Y-118527380D02*
X117943809Y-117527380D01*
X117943809Y-117527380D02*
X117848571Y-117670238D01*
X117848571Y-117670238D02*
X117753333Y-117765476D01*
X117753333Y-117765476D02*
X117658095Y-117813095D01*
X109981904Y-65187380D02*
X109410476Y-65187380D01*
X109696190Y-65187380D02*
X109696190Y-64187380D01*
X109696190Y-64187380D02*
X109600952Y-64330238D01*
X109600952Y-64330238D02*
X109505714Y-64425476D01*
X109505714Y-64425476D02*
X109410476Y-64473095D01*
X110600952Y-64187380D02*
X110696190Y-64187380D01*
X110696190Y-64187380D02*
X110791428Y-64235000D01*
X110791428Y-64235000D02*
X110839047Y-64282619D01*
X110839047Y-64282619D02*
X110886666Y-64377857D01*
X110886666Y-64377857D02*
X110934285Y-64568333D01*
X110934285Y-64568333D02*
X110934285Y-64806428D01*
X110934285Y-64806428D02*
X110886666Y-64996904D01*
X110886666Y-64996904D02*
X110839047Y-65092142D01*
X110839047Y-65092142D02*
X110791428Y-65139761D01*
X110791428Y-65139761D02*
X110696190Y-65187380D01*
X110696190Y-65187380D02*
X110600952Y-65187380D01*
X110600952Y-65187380D02*
X110505714Y-65139761D01*
X110505714Y-65139761D02*
X110458095Y-65092142D01*
X110458095Y-65092142D02*
X110410476Y-64996904D01*
X110410476Y-64996904D02*
X110362857Y-64806428D01*
X110362857Y-64806428D02*
X110362857Y-64568333D01*
X110362857Y-64568333D02*
X110410476Y-64377857D01*
X110410476Y-64377857D02*
X110458095Y-64282619D01*
X110458095Y-64282619D02*
X110505714Y-64235000D01*
X110505714Y-64235000D02*
X110600952Y-64187380D01*
X111962857Y-64806428D02*
X112724762Y-64806428D01*
X114372380Y-65092142D02*
X114324761Y-65139761D01*
X114324761Y-65139761D02*
X114181904Y-65187380D01*
X114181904Y-65187380D02*
X114086666Y-65187380D01*
X114086666Y-65187380D02*
X113943809Y-65139761D01*
X113943809Y-65139761D02*
X113848571Y-65044523D01*
X113848571Y-65044523D02*
X113800952Y-64949285D01*
X113800952Y-64949285D02*
X113753333Y-64758809D01*
X113753333Y-64758809D02*
X113753333Y-64615952D01*
X113753333Y-64615952D02*
X113800952Y-64425476D01*
X113800952Y-64425476D02*
X113848571Y-64330238D01*
X113848571Y-64330238D02*
X113943809Y-64235000D01*
X113943809Y-64235000D02*
X114086666Y-64187380D01*
X114086666Y-64187380D02*
X114181904Y-64187380D01*
X114181904Y-64187380D02*
X114324761Y-64235000D01*
X114324761Y-64235000D02*
X114372380Y-64282619D01*
X114800952Y-64663571D02*
X115134285Y-64663571D01*
X115277142Y-65187380D02*
X114800952Y-65187380D01*
X114800952Y-65187380D02*
X114800952Y-64187380D01*
X114800952Y-64187380D02*
X115277142Y-64187380D01*
X115658095Y-64282619D02*
X115705714Y-64235000D01*
X115705714Y-64235000D02*
X115800952Y-64187380D01*
X115800952Y-64187380D02*
X116039047Y-64187380D01*
X116039047Y-64187380D02*
X116134285Y-64235000D01*
X116134285Y-64235000D02*
X116181904Y-64282619D01*
X116181904Y-64282619D02*
X116229523Y-64377857D01*
X116229523Y-64377857D02*
X116229523Y-64473095D01*
X116229523Y-64473095D02*
X116181904Y-64615952D01*
X116181904Y-64615952D02*
X115610476Y-65187380D01*
X115610476Y-65187380D02*
X116229523Y-65187380D01*
X117543809Y-65568333D02*
X117496190Y-65520714D01*
X117496190Y-65520714D02*
X117400952Y-65377857D01*
X117400952Y-65377857D02*
X117353333Y-65282619D01*
X117353333Y-65282619D02*
X117305714Y-65139761D01*
X117305714Y-65139761D02*
X117258095Y-64901666D01*
X117258095Y-64901666D02*
X117258095Y-64711190D01*
X117258095Y-64711190D02*
X117305714Y-64473095D01*
X117305714Y-64473095D02*
X117353333Y-64330238D01*
X117353333Y-64330238D02*
X117400952Y-64235000D01*
X117400952Y-64235000D02*
X117496190Y-64092142D01*
X117496190Y-64092142D02*
X117543809Y-64044523D01*
X117924762Y-65187380D02*
X117924762Y-64187380D01*
X117924762Y-64187380D02*
X118496190Y-65187380D01*
X118496190Y-65187380D02*
X118496190Y-64187380D01*
X119543809Y-65092142D02*
X119496190Y-65139761D01*
X119496190Y-65139761D02*
X119353333Y-65187380D01*
X119353333Y-65187380D02*
X119258095Y-65187380D01*
X119258095Y-65187380D02*
X119115238Y-65139761D01*
X119115238Y-65139761D02*
X119020000Y-65044523D01*
X119020000Y-65044523D02*
X118972381Y-64949285D01*
X118972381Y-64949285D02*
X118924762Y-64758809D01*
X118924762Y-64758809D02*
X118924762Y-64615952D01*
X118924762Y-64615952D02*
X118972381Y-64425476D01*
X118972381Y-64425476D02*
X119020000Y-64330238D01*
X119020000Y-64330238D02*
X119115238Y-64235000D01*
X119115238Y-64235000D02*
X119258095Y-64187380D01*
X119258095Y-64187380D02*
X119353333Y-64187380D01*
X119353333Y-64187380D02*
X119496190Y-64235000D01*
X119496190Y-64235000D02*
X119543809Y-64282619D01*
X119877143Y-65568333D02*
X119924762Y-65520714D01*
X119924762Y-65520714D02*
X120020000Y-65377857D01*
X120020000Y-65377857D02*
X120067619Y-65282619D01*
X120067619Y-65282619D02*
X120115238Y-65139761D01*
X120115238Y-65139761D02*
X120162857Y-64901666D01*
X120162857Y-64901666D02*
X120162857Y-64711190D01*
X120162857Y-64711190D02*
X120115238Y-64473095D01*
X120115238Y-64473095D02*
X120067619Y-64330238D01*
X120067619Y-64330238D02*
X120020000Y-64235000D01*
X120020000Y-64235000D02*
X119924762Y-64092142D01*
X119924762Y-64092142D02*
X119877143Y-64044523D01*
X109410476Y-102382619D02*
X109458095Y-102335000D01*
X109458095Y-102335000D02*
X109553333Y-102287380D01*
X109553333Y-102287380D02*
X109791428Y-102287380D01*
X109791428Y-102287380D02*
X109886666Y-102335000D01*
X109886666Y-102335000D02*
X109934285Y-102382619D01*
X109934285Y-102382619D02*
X109981904Y-102477857D01*
X109981904Y-102477857D02*
X109981904Y-102573095D01*
X109981904Y-102573095D02*
X109934285Y-102715952D01*
X109934285Y-102715952D02*
X109362857Y-103287380D01*
X109362857Y-103287380D02*
X109981904Y-103287380D01*
X110886666Y-102287380D02*
X110410476Y-102287380D01*
X110410476Y-102287380D02*
X110362857Y-102763571D01*
X110362857Y-102763571D02*
X110410476Y-102715952D01*
X110410476Y-102715952D02*
X110505714Y-102668333D01*
X110505714Y-102668333D02*
X110743809Y-102668333D01*
X110743809Y-102668333D02*
X110839047Y-102715952D01*
X110839047Y-102715952D02*
X110886666Y-102763571D01*
X110886666Y-102763571D02*
X110934285Y-102858809D01*
X110934285Y-102858809D02*
X110934285Y-103096904D01*
X110934285Y-103096904D02*
X110886666Y-103192142D01*
X110886666Y-103192142D02*
X110839047Y-103239761D01*
X110839047Y-103239761D02*
X110743809Y-103287380D01*
X110743809Y-103287380D02*
X110505714Y-103287380D01*
X110505714Y-103287380D02*
X110410476Y-103239761D01*
X110410476Y-103239761D02*
X110362857Y-103192142D01*
X111962857Y-102906428D02*
X112724762Y-102906428D01*
X113800952Y-103287380D02*
X113800952Y-102287380D01*
X113800952Y-102287380D02*
X114372380Y-103287380D01*
X114372380Y-103287380D02*
X114372380Y-102287380D01*
X115419999Y-103192142D02*
X115372380Y-103239761D01*
X115372380Y-103239761D02*
X115229523Y-103287380D01*
X115229523Y-103287380D02*
X115134285Y-103287380D01*
X115134285Y-103287380D02*
X114991428Y-103239761D01*
X114991428Y-103239761D02*
X114896190Y-103144523D01*
X114896190Y-103144523D02*
X114848571Y-103049285D01*
X114848571Y-103049285D02*
X114800952Y-102858809D01*
X114800952Y-102858809D02*
X114800952Y-102715952D01*
X114800952Y-102715952D02*
X114848571Y-102525476D01*
X114848571Y-102525476D02*
X114896190Y-102430238D01*
X114896190Y-102430238D02*
X114991428Y-102335000D01*
X114991428Y-102335000D02*
X115134285Y-102287380D01*
X115134285Y-102287380D02*
X115229523Y-102287380D01*
X115229523Y-102287380D02*
X115372380Y-102335000D01*
X115372380Y-102335000D02*
X115419999Y-102382619D01*
D11*
X135558571Y-128279762D02*
X135558571Y-127946429D01*
X136082380Y-127803572D02*
X136082380Y-128279762D01*
X136082380Y-128279762D02*
X135082380Y-128279762D01*
X135082380Y-128279762D02*
X135082380Y-127803572D01*
X136082380Y-127375000D02*
X135082380Y-127375000D01*
X135082380Y-127375000D02*
X135082380Y-127136905D01*
X135082380Y-127136905D02*
X135130000Y-126994048D01*
X135130000Y-126994048D02*
X135225238Y-126898810D01*
X135225238Y-126898810D02*
X135320476Y-126851191D01*
X135320476Y-126851191D02*
X135510952Y-126803572D01*
X135510952Y-126803572D02*
X135653809Y-126803572D01*
X135653809Y-126803572D02*
X135844285Y-126851191D01*
X135844285Y-126851191D02*
X135939523Y-126898810D01*
X135939523Y-126898810D02*
X136034761Y-126994048D01*
X136034761Y-126994048D02*
X136082380Y-127136905D01*
X136082380Y-127136905D02*
X136082380Y-127375000D01*
X135082380Y-126184524D02*
X135082380Y-126089286D01*
X135082380Y-126089286D02*
X135130000Y-125994048D01*
X135130000Y-125994048D02*
X135177619Y-125946429D01*
X135177619Y-125946429D02*
X135272857Y-125898810D01*
X135272857Y-125898810D02*
X135463333Y-125851191D01*
X135463333Y-125851191D02*
X135701428Y-125851191D01*
X135701428Y-125851191D02*
X135891904Y-125898810D01*
X135891904Y-125898810D02*
X135987142Y-125946429D01*
X135987142Y-125946429D02*
X136034761Y-125994048D01*
X136034761Y-125994048D02*
X136082380Y-126089286D01*
X136082380Y-126089286D02*
X136082380Y-126184524D01*
X136082380Y-126184524D02*
X136034761Y-126279762D01*
X136034761Y-126279762D02*
X135987142Y-126327381D01*
X135987142Y-126327381D02*
X135891904Y-126375000D01*
X135891904Y-126375000D02*
X135701428Y-126422619D01*
X135701428Y-126422619D02*
X135463333Y-126422619D01*
X135463333Y-126422619D02*
X135272857Y-126375000D01*
X135272857Y-126375000D02*
X135177619Y-126327381D01*
X135177619Y-126327381D02*
X135130000Y-126279762D01*
X135130000Y-126279762D02*
X135082380Y-126184524D01*
X135082380Y-124994048D02*
X135082380Y-125184524D01*
X135082380Y-125184524D02*
X135130000Y-125279762D01*
X135130000Y-125279762D02*
X135177619Y-125327381D01*
X135177619Y-125327381D02*
X135320476Y-125422619D01*
X135320476Y-125422619D02*
X135510952Y-125470238D01*
X135510952Y-125470238D02*
X135891904Y-125470238D01*
X135891904Y-125470238D02*
X135987142Y-125422619D01*
X135987142Y-125422619D02*
X136034761Y-125375000D01*
X136034761Y-125375000D02*
X136082380Y-125279762D01*
X136082380Y-125279762D02*
X136082380Y-125089286D01*
X136082380Y-125089286D02*
X136034761Y-124994048D01*
X136034761Y-124994048D02*
X135987142Y-124946429D01*
X135987142Y-124946429D02*
X135891904Y-124898810D01*
X135891904Y-124898810D02*
X135653809Y-124898810D01*
X135653809Y-124898810D02*
X135558571Y-124946429D01*
X135558571Y-124946429D02*
X135510952Y-124994048D01*
X135510952Y-124994048D02*
X135463333Y-125089286D01*
X135463333Y-125089286D02*
X135463333Y-125279762D01*
X135463333Y-125279762D02*
X135510952Y-125375000D01*
X135510952Y-125375000D02*
X135558571Y-125422619D01*
X135558571Y-125422619D02*
X135653809Y-125470238D01*
X135082380Y-124279762D02*
X135082380Y-124184524D01*
X135082380Y-124184524D02*
X135130000Y-124089286D01*
X135130000Y-124089286D02*
X135177619Y-124041667D01*
X135177619Y-124041667D02*
X135272857Y-123994048D01*
X135272857Y-123994048D02*
X135463333Y-123946429D01*
X135463333Y-123946429D02*
X135701428Y-123946429D01*
X135701428Y-123946429D02*
X135891904Y-123994048D01*
X135891904Y-123994048D02*
X135987142Y-124041667D01*
X135987142Y-124041667D02*
X136034761Y-124089286D01*
X136034761Y-124089286D02*
X136082380Y-124184524D01*
X136082380Y-124184524D02*
X136082380Y-124279762D01*
X136082380Y-124279762D02*
X136034761Y-124375000D01*
X136034761Y-124375000D02*
X135987142Y-124422619D01*
X135987142Y-124422619D02*
X135891904Y-124470238D01*
X135891904Y-124470238D02*
X135701428Y-124517857D01*
X135701428Y-124517857D02*
X135463333Y-124517857D01*
X135463333Y-124517857D02*
X135272857Y-124470238D01*
X135272857Y-124470238D02*
X135177619Y-124422619D01*
X135177619Y-124422619D02*
X135130000Y-124375000D01*
X135130000Y-124375000D02*
X135082380Y-124279762D01*
X136034761Y-123565476D02*
X136082380Y-123422619D01*
X136082380Y-123422619D02*
X136082380Y-123184524D01*
X136082380Y-123184524D02*
X136034761Y-123089286D01*
X136034761Y-123089286D02*
X135987142Y-123041667D01*
X135987142Y-123041667D02*
X135891904Y-122994048D01*
X135891904Y-122994048D02*
X135796666Y-122994048D01*
X135796666Y-122994048D02*
X135701428Y-123041667D01*
X135701428Y-123041667D02*
X135653809Y-123089286D01*
X135653809Y-123089286D02*
X135606190Y-123184524D01*
X135606190Y-123184524D02*
X135558571Y-123375000D01*
X135558571Y-123375000D02*
X135510952Y-123470238D01*
X135510952Y-123470238D02*
X135463333Y-123517857D01*
X135463333Y-123517857D02*
X135368095Y-123565476D01*
X135368095Y-123565476D02*
X135272857Y-123565476D01*
X135272857Y-123565476D02*
X135177619Y-123517857D01*
X135177619Y-123517857D02*
X135130000Y-123470238D01*
X135130000Y-123470238D02*
X135082380Y-123375000D01*
X135082380Y-123375000D02*
X135082380Y-123136905D01*
X135082380Y-123136905D02*
X135130000Y-122994048D01*
X135987142Y-121994048D02*
X136034761Y-122041667D01*
X136034761Y-122041667D02*
X136082380Y-122184524D01*
X136082380Y-122184524D02*
X136082380Y-122279762D01*
X136082380Y-122279762D02*
X136034761Y-122422619D01*
X136034761Y-122422619D02*
X135939523Y-122517857D01*
X135939523Y-122517857D02*
X135844285Y-122565476D01*
X135844285Y-122565476D02*
X135653809Y-122613095D01*
X135653809Y-122613095D02*
X135510952Y-122613095D01*
X135510952Y-122613095D02*
X135320476Y-122565476D01*
X135320476Y-122565476D02*
X135225238Y-122517857D01*
X135225238Y-122517857D02*
X135130000Y-122422619D01*
X135130000Y-122422619D02*
X135082380Y-122279762D01*
X135082380Y-122279762D02*
X135082380Y-122184524D01*
X135082380Y-122184524D02*
X135130000Y-122041667D01*
X135130000Y-122041667D02*
X135177619Y-121994048D01*
X135415714Y-121136905D02*
X136082380Y-121136905D01*
X135034761Y-121375000D02*
X135749047Y-121613095D01*
X135749047Y-121613095D02*
X135749047Y-120994048D01*
X135558571Y-119679762D02*
X135606190Y-119536905D01*
X135606190Y-119536905D02*
X135653809Y-119489286D01*
X135653809Y-119489286D02*
X135749047Y-119441667D01*
X135749047Y-119441667D02*
X135891904Y-119441667D01*
X135891904Y-119441667D02*
X135987142Y-119489286D01*
X135987142Y-119489286D02*
X136034761Y-119536905D01*
X136034761Y-119536905D02*
X136082380Y-119632143D01*
X136082380Y-119632143D02*
X136082380Y-120013095D01*
X136082380Y-120013095D02*
X135082380Y-120013095D01*
X135082380Y-120013095D02*
X135082380Y-119679762D01*
X135082380Y-119679762D02*
X135130000Y-119584524D01*
X135130000Y-119584524D02*
X135177619Y-119536905D01*
X135177619Y-119536905D02*
X135272857Y-119489286D01*
X135272857Y-119489286D02*
X135368095Y-119489286D01*
X135368095Y-119489286D02*
X135463333Y-119536905D01*
X135463333Y-119536905D02*
X135510952Y-119584524D01*
X135510952Y-119584524D02*
X135558571Y-119679762D01*
X135558571Y-119679762D02*
X135558571Y-120013095D01*
X136082380Y-119013095D02*
X135415714Y-119013095D01*
X135606190Y-119013095D02*
X135510952Y-118965476D01*
X135510952Y-118965476D02*
X135463333Y-118917857D01*
X135463333Y-118917857D02*
X135415714Y-118822619D01*
X135415714Y-118822619D02*
X135415714Y-118727381D01*
X136034761Y-118013095D02*
X136082380Y-118108333D01*
X136082380Y-118108333D02*
X136082380Y-118298809D01*
X136082380Y-118298809D02*
X136034761Y-118394047D01*
X136034761Y-118394047D02*
X135939523Y-118441666D01*
X135939523Y-118441666D02*
X135558571Y-118441666D01*
X135558571Y-118441666D02*
X135463333Y-118394047D01*
X135463333Y-118394047D02*
X135415714Y-118298809D01*
X135415714Y-118298809D02*
X135415714Y-118108333D01*
X135415714Y-118108333D02*
X135463333Y-118013095D01*
X135463333Y-118013095D02*
X135558571Y-117965476D01*
X135558571Y-117965476D02*
X135653809Y-117965476D01*
X135653809Y-117965476D02*
X135749047Y-118441666D01*
X136082380Y-117108333D02*
X135558571Y-117108333D01*
X135558571Y-117108333D02*
X135463333Y-117155952D01*
X135463333Y-117155952D02*
X135415714Y-117251190D01*
X135415714Y-117251190D02*
X135415714Y-117441666D01*
X135415714Y-117441666D02*
X135463333Y-117536904D01*
X136034761Y-117108333D02*
X136082380Y-117203571D01*
X136082380Y-117203571D02*
X136082380Y-117441666D01*
X136082380Y-117441666D02*
X136034761Y-117536904D01*
X136034761Y-117536904D02*
X135939523Y-117584523D01*
X135939523Y-117584523D02*
X135844285Y-117584523D01*
X135844285Y-117584523D02*
X135749047Y-117536904D01*
X135749047Y-117536904D02*
X135701428Y-117441666D01*
X135701428Y-117441666D02*
X135701428Y-117203571D01*
X135701428Y-117203571D02*
X135653809Y-117108333D01*
X136082380Y-116632142D02*
X135082380Y-116632142D01*
X135701428Y-116536904D02*
X136082380Y-116251190D01*
X135415714Y-116251190D02*
X135796666Y-116632142D01*
X136082380Y-115679761D02*
X136034761Y-115774999D01*
X136034761Y-115774999D02*
X135987142Y-115822618D01*
X135987142Y-115822618D02*
X135891904Y-115870237D01*
X135891904Y-115870237D02*
X135606190Y-115870237D01*
X135606190Y-115870237D02*
X135510952Y-115822618D01*
X135510952Y-115822618D02*
X135463333Y-115774999D01*
X135463333Y-115774999D02*
X135415714Y-115679761D01*
X135415714Y-115679761D02*
X135415714Y-115536904D01*
X135415714Y-115536904D02*
X135463333Y-115441666D01*
X135463333Y-115441666D02*
X135510952Y-115394047D01*
X135510952Y-115394047D02*
X135606190Y-115346428D01*
X135606190Y-115346428D02*
X135891904Y-115346428D01*
X135891904Y-115346428D02*
X135987142Y-115394047D01*
X135987142Y-115394047D02*
X136034761Y-115441666D01*
X136034761Y-115441666D02*
X136082380Y-115536904D01*
X136082380Y-115536904D02*
X136082380Y-115679761D01*
X135415714Y-114489285D02*
X136082380Y-114489285D01*
X135415714Y-114917856D02*
X135939523Y-114917856D01*
X135939523Y-114917856D02*
X136034761Y-114870237D01*
X136034761Y-114870237D02*
X136082380Y-114774999D01*
X136082380Y-114774999D02*
X136082380Y-114632142D01*
X136082380Y-114632142D02*
X136034761Y-114536904D01*
X136034761Y-114536904D02*
X135987142Y-114489285D01*
X135415714Y-114155951D02*
X135415714Y-113774999D01*
X135082380Y-114013094D02*
X135939523Y-114013094D01*
X135939523Y-114013094D02*
X136034761Y-113965475D01*
X136034761Y-113965475D02*
X136082380Y-113870237D01*
X136082380Y-113870237D02*
X136082380Y-113774999D01*
X135558571Y-112508332D02*
X135606190Y-112365475D01*
X135606190Y-112365475D02*
X135653809Y-112317856D01*
X135653809Y-112317856D02*
X135749047Y-112270237D01*
X135749047Y-112270237D02*
X135891904Y-112270237D01*
X135891904Y-112270237D02*
X135987142Y-112317856D01*
X135987142Y-112317856D02*
X136034761Y-112365475D01*
X136034761Y-112365475D02*
X136082380Y-112460713D01*
X136082380Y-112460713D02*
X136082380Y-112841665D01*
X136082380Y-112841665D02*
X135082380Y-112841665D01*
X135082380Y-112841665D02*
X135082380Y-112508332D01*
X135082380Y-112508332D02*
X135130000Y-112413094D01*
X135130000Y-112413094D02*
X135177619Y-112365475D01*
X135177619Y-112365475D02*
X135272857Y-112317856D01*
X135272857Y-112317856D02*
X135368095Y-112317856D01*
X135368095Y-112317856D02*
X135463333Y-112365475D01*
X135463333Y-112365475D02*
X135510952Y-112413094D01*
X135510952Y-112413094D02*
X135558571Y-112508332D01*
X135558571Y-112508332D02*
X135558571Y-112841665D01*
X136082380Y-111698808D02*
X136034761Y-111794046D01*
X136034761Y-111794046D02*
X135987142Y-111841665D01*
X135987142Y-111841665D02*
X135891904Y-111889284D01*
X135891904Y-111889284D02*
X135606190Y-111889284D01*
X135606190Y-111889284D02*
X135510952Y-111841665D01*
X135510952Y-111841665D02*
X135463333Y-111794046D01*
X135463333Y-111794046D02*
X135415714Y-111698808D01*
X135415714Y-111698808D02*
X135415714Y-111555951D01*
X135415714Y-111555951D02*
X135463333Y-111460713D01*
X135463333Y-111460713D02*
X135510952Y-111413094D01*
X135510952Y-111413094D02*
X135606190Y-111365475D01*
X135606190Y-111365475D02*
X135891904Y-111365475D01*
X135891904Y-111365475D02*
X135987142Y-111413094D01*
X135987142Y-111413094D02*
X136034761Y-111460713D01*
X136034761Y-111460713D02*
X136082380Y-111555951D01*
X136082380Y-111555951D02*
X136082380Y-111698808D01*
X136082380Y-110508332D02*
X135558571Y-110508332D01*
X135558571Y-110508332D02*
X135463333Y-110555951D01*
X135463333Y-110555951D02*
X135415714Y-110651189D01*
X135415714Y-110651189D02*
X135415714Y-110841665D01*
X135415714Y-110841665D02*
X135463333Y-110936903D01*
X136034761Y-110508332D02*
X136082380Y-110603570D01*
X136082380Y-110603570D02*
X136082380Y-110841665D01*
X136082380Y-110841665D02*
X136034761Y-110936903D01*
X136034761Y-110936903D02*
X135939523Y-110984522D01*
X135939523Y-110984522D02*
X135844285Y-110984522D01*
X135844285Y-110984522D02*
X135749047Y-110936903D01*
X135749047Y-110936903D02*
X135701428Y-110841665D01*
X135701428Y-110841665D02*
X135701428Y-110603570D01*
X135701428Y-110603570D02*
X135653809Y-110508332D01*
X136082380Y-110032141D02*
X135415714Y-110032141D01*
X135606190Y-110032141D02*
X135510952Y-109984522D01*
X135510952Y-109984522D02*
X135463333Y-109936903D01*
X135463333Y-109936903D02*
X135415714Y-109841665D01*
X135415714Y-109841665D02*
X135415714Y-109746427D01*
X136082380Y-108984522D02*
X135082380Y-108984522D01*
X136034761Y-108984522D02*
X136082380Y-109079760D01*
X136082380Y-109079760D02*
X136082380Y-109270236D01*
X136082380Y-109270236D02*
X136034761Y-109365474D01*
X136034761Y-109365474D02*
X135987142Y-109413093D01*
X135987142Y-109413093D02*
X135891904Y-109460712D01*
X135891904Y-109460712D02*
X135606190Y-109460712D01*
X135606190Y-109460712D02*
X135510952Y-109413093D01*
X135510952Y-109413093D02*
X135463333Y-109365474D01*
X135463333Y-109365474D02*
X135415714Y-109270236D01*
X135415714Y-109270236D02*
X135415714Y-109079760D01*
X135415714Y-109079760D02*
X135463333Y-108984522D01*
X135415714Y-108003569D02*
X136082380Y-107765474D01*
X136082380Y-107765474D02*
X135415714Y-107527379D01*
X136082380Y-106622617D02*
X136082380Y-107194045D01*
X136082380Y-106908331D02*
X135082380Y-106908331D01*
X135082380Y-106908331D02*
X135225238Y-107003569D01*
X135225238Y-107003569D02*
X135320476Y-107098807D01*
X135320476Y-107098807D02*
X135368095Y-107194045D01*
X137702380Y-123289285D02*
X136702380Y-123289285D01*
X136702380Y-123289285D02*
X136702380Y-123051190D01*
X136702380Y-123051190D02*
X136750000Y-122908333D01*
X136750000Y-122908333D02*
X136845238Y-122813095D01*
X136845238Y-122813095D02*
X136940476Y-122765476D01*
X136940476Y-122765476D02*
X137130952Y-122717857D01*
X137130952Y-122717857D02*
X137273809Y-122717857D01*
X137273809Y-122717857D02*
X137464285Y-122765476D01*
X137464285Y-122765476D02*
X137559523Y-122813095D01*
X137559523Y-122813095D02*
X137654761Y-122908333D01*
X137654761Y-122908333D02*
X137702380Y-123051190D01*
X137702380Y-123051190D02*
X137702380Y-123289285D01*
X137654761Y-121908333D02*
X137702380Y-122003571D01*
X137702380Y-122003571D02*
X137702380Y-122194047D01*
X137702380Y-122194047D02*
X137654761Y-122289285D01*
X137654761Y-122289285D02*
X137559523Y-122336904D01*
X137559523Y-122336904D02*
X137178571Y-122336904D01*
X137178571Y-122336904D02*
X137083333Y-122289285D01*
X137083333Y-122289285D02*
X137035714Y-122194047D01*
X137035714Y-122194047D02*
X137035714Y-122003571D01*
X137035714Y-122003571D02*
X137083333Y-121908333D01*
X137083333Y-121908333D02*
X137178571Y-121860714D01*
X137178571Y-121860714D02*
X137273809Y-121860714D01*
X137273809Y-121860714D02*
X137369047Y-122336904D01*
X137654761Y-121479761D02*
X137702380Y-121384523D01*
X137702380Y-121384523D02*
X137702380Y-121194047D01*
X137702380Y-121194047D02*
X137654761Y-121098809D01*
X137654761Y-121098809D02*
X137559523Y-121051190D01*
X137559523Y-121051190D02*
X137511904Y-121051190D01*
X137511904Y-121051190D02*
X137416666Y-121098809D01*
X137416666Y-121098809D02*
X137369047Y-121194047D01*
X137369047Y-121194047D02*
X137369047Y-121336904D01*
X137369047Y-121336904D02*
X137321428Y-121432142D01*
X137321428Y-121432142D02*
X137226190Y-121479761D01*
X137226190Y-121479761D02*
X137178571Y-121479761D01*
X137178571Y-121479761D02*
X137083333Y-121432142D01*
X137083333Y-121432142D02*
X137035714Y-121336904D01*
X137035714Y-121336904D02*
X137035714Y-121194047D01*
X137035714Y-121194047D02*
X137083333Y-121098809D01*
X137702380Y-120622618D02*
X137035714Y-120622618D01*
X136702380Y-120622618D02*
X136750000Y-120670237D01*
X136750000Y-120670237D02*
X136797619Y-120622618D01*
X136797619Y-120622618D02*
X136750000Y-120574999D01*
X136750000Y-120574999D02*
X136702380Y-120622618D01*
X136702380Y-120622618D02*
X136797619Y-120622618D01*
X137035714Y-119717857D02*
X137845238Y-119717857D01*
X137845238Y-119717857D02*
X137940476Y-119765476D01*
X137940476Y-119765476D02*
X137988095Y-119813095D01*
X137988095Y-119813095D02*
X138035714Y-119908333D01*
X138035714Y-119908333D02*
X138035714Y-120051190D01*
X138035714Y-120051190D02*
X137988095Y-120146428D01*
X137654761Y-119717857D02*
X137702380Y-119813095D01*
X137702380Y-119813095D02*
X137702380Y-120003571D01*
X137702380Y-120003571D02*
X137654761Y-120098809D01*
X137654761Y-120098809D02*
X137607142Y-120146428D01*
X137607142Y-120146428D02*
X137511904Y-120194047D01*
X137511904Y-120194047D02*
X137226190Y-120194047D01*
X137226190Y-120194047D02*
X137130952Y-120146428D01*
X137130952Y-120146428D02*
X137083333Y-120098809D01*
X137083333Y-120098809D02*
X137035714Y-120003571D01*
X137035714Y-120003571D02*
X137035714Y-119813095D01*
X137035714Y-119813095D02*
X137083333Y-119717857D01*
X137035714Y-119241666D02*
X137702380Y-119241666D01*
X137130952Y-119241666D02*
X137083333Y-119194047D01*
X137083333Y-119194047D02*
X137035714Y-119098809D01*
X137035714Y-119098809D02*
X137035714Y-118955952D01*
X137035714Y-118955952D02*
X137083333Y-118860714D01*
X137083333Y-118860714D02*
X137178571Y-118813095D01*
X137178571Y-118813095D02*
X137702380Y-118813095D01*
X137702380Y-117736904D02*
X136702380Y-117736904D01*
X137083333Y-117736904D02*
X137035714Y-117641666D01*
X137035714Y-117641666D02*
X137035714Y-117451190D01*
X137035714Y-117451190D02*
X137083333Y-117355952D01*
X137083333Y-117355952D02*
X137130952Y-117308333D01*
X137130952Y-117308333D02*
X137226190Y-117260714D01*
X137226190Y-117260714D02*
X137511904Y-117260714D01*
X137511904Y-117260714D02*
X137607142Y-117308333D01*
X137607142Y-117308333D02*
X137654761Y-117355952D01*
X137654761Y-117355952D02*
X137702380Y-117451190D01*
X137702380Y-117451190D02*
X137702380Y-117641666D01*
X137702380Y-117641666D02*
X137654761Y-117736904D01*
X137035714Y-116927380D02*
X137702380Y-116689285D01*
X137035714Y-116451190D02*
X137702380Y-116689285D01*
X137702380Y-116689285D02*
X137940476Y-116784523D01*
X137940476Y-116784523D02*
X137988095Y-116832142D01*
X137988095Y-116832142D02*
X138035714Y-116927380D01*
X137702380Y-115470237D02*
X136702380Y-115470237D01*
X137702380Y-115041666D02*
X137178571Y-115041666D01*
X137178571Y-115041666D02*
X137083333Y-115089285D01*
X137083333Y-115089285D02*
X137035714Y-115184523D01*
X137035714Y-115184523D02*
X137035714Y-115327380D01*
X137035714Y-115327380D02*
X137083333Y-115422618D01*
X137083333Y-115422618D02*
X137130952Y-115470237D01*
X137702380Y-114136904D02*
X137178571Y-114136904D01*
X137178571Y-114136904D02*
X137083333Y-114184523D01*
X137083333Y-114184523D02*
X137035714Y-114279761D01*
X137035714Y-114279761D02*
X137035714Y-114470237D01*
X137035714Y-114470237D02*
X137083333Y-114565475D01*
X137654761Y-114136904D02*
X137702380Y-114232142D01*
X137702380Y-114232142D02*
X137702380Y-114470237D01*
X137702380Y-114470237D02*
X137654761Y-114565475D01*
X137654761Y-114565475D02*
X137559523Y-114613094D01*
X137559523Y-114613094D02*
X137464285Y-114613094D01*
X137464285Y-114613094D02*
X137369047Y-114565475D01*
X137369047Y-114565475D02*
X137321428Y-114470237D01*
X137321428Y-114470237D02*
X137321428Y-114232142D01*
X137321428Y-114232142D02*
X137273809Y-114136904D01*
X137035714Y-113803570D02*
X137035714Y-113422618D01*
X136702380Y-113660713D02*
X137559523Y-113660713D01*
X137559523Y-113660713D02*
X137654761Y-113613094D01*
X137654761Y-113613094D02*
X137702380Y-113517856D01*
X137702380Y-113517856D02*
X137702380Y-113422618D01*
X137702380Y-113089284D02*
X137035714Y-113089284D01*
X137226190Y-113089284D02*
X137130952Y-113041665D01*
X137130952Y-113041665D02*
X137083333Y-112994046D01*
X137083333Y-112994046D02*
X137035714Y-112898808D01*
X137035714Y-112898808D02*
X137035714Y-112803570D01*
X137702380Y-112470236D02*
X137035714Y-112470236D01*
X136702380Y-112470236D02*
X136750000Y-112517855D01*
X136750000Y-112517855D02*
X136797619Y-112470236D01*
X136797619Y-112470236D02*
X136750000Y-112422617D01*
X136750000Y-112422617D02*
X136702380Y-112470236D01*
X136702380Y-112470236D02*
X136797619Y-112470236D01*
X137702380Y-112089284D02*
X137035714Y-111565475D01*
X137035714Y-112089284D02*
X137702380Y-111565475D01*
D10*
X109981904Y-72807380D02*
X109410476Y-72807380D01*
X109696190Y-72807380D02*
X109696190Y-71807380D01*
X109696190Y-71807380D02*
X109600952Y-71950238D01*
X109600952Y-71950238D02*
X109505714Y-72045476D01*
X109505714Y-72045476D02*
X109410476Y-72093095D01*
X110315238Y-71807380D02*
X110934285Y-71807380D01*
X110934285Y-71807380D02*
X110600952Y-72188333D01*
X110600952Y-72188333D02*
X110743809Y-72188333D01*
X110743809Y-72188333D02*
X110839047Y-72235952D01*
X110839047Y-72235952D02*
X110886666Y-72283571D01*
X110886666Y-72283571D02*
X110934285Y-72378809D01*
X110934285Y-72378809D02*
X110934285Y-72616904D01*
X110934285Y-72616904D02*
X110886666Y-72712142D01*
X110886666Y-72712142D02*
X110839047Y-72759761D01*
X110839047Y-72759761D02*
X110743809Y-72807380D01*
X110743809Y-72807380D02*
X110458095Y-72807380D01*
X110458095Y-72807380D02*
X110362857Y-72759761D01*
X110362857Y-72759761D02*
X110315238Y-72712142D01*
X111962857Y-72426428D02*
X112724762Y-72426428D01*
X113800952Y-72807380D02*
X113800952Y-71807380D01*
X113800952Y-71807380D02*
X114039047Y-71807380D01*
X114039047Y-71807380D02*
X114181904Y-71855000D01*
X114181904Y-71855000D02*
X114277142Y-71950238D01*
X114277142Y-71950238D02*
X114324761Y-72045476D01*
X114324761Y-72045476D02*
X114372380Y-72235952D01*
X114372380Y-72235952D02*
X114372380Y-72378809D01*
X114372380Y-72378809D02*
X114324761Y-72569285D01*
X114324761Y-72569285D02*
X114277142Y-72664523D01*
X114277142Y-72664523D02*
X114181904Y-72759761D01*
X114181904Y-72759761D02*
X114039047Y-72807380D01*
X114039047Y-72807380D02*
X113800952Y-72807380D01*
X115324761Y-72807380D02*
X114753333Y-72807380D01*
X115039047Y-72807380D02*
X115039047Y-71807380D01*
X115039047Y-71807380D02*
X114943809Y-71950238D01*
X114943809Y-71950238D02*
X114848571Y-72045476D01*
X114848571Y-72045476D02*
X114753333Y-72093095D01*
X109981904Y-82967380D02*
X109410476Y-82967380D01*
X109696190Y-82967380D02*
X109696190Y-81967380D01*
X109696190Y-81967380D02*
X109600952Y-82110238D01*
X109600952Y-82110238D02*
X109505714Y-82205476D01*
X109505714Y-82205476D02*
X109410476Y-82253095D01*
X110315238Y-81967380D02*
X110981904Y-81967380D01*
X110981904Y-81967380D02*
X110553333Y-82967380D01*
X111962857Y-82586428D02*
X112724762Y-82586428D01*
X113800952Y-82967380D02*
X113800952Y-81967380D01*
X113800952Y-81967380D02*
X114039047Y-81967380D01*
X114039047Y-81967380D02*
X114181904Y-82015000D01*
X114181904Y-82015000D02*
X114277142Y-82110238D01*
X114277142Y-82110238D02*
X114324761Y-82205476D01*
X114324761Y-82205476D02*
X114372380Y-82395952D01*
X114372380Y-82395952D02*
X114372380Y-82538809D01*
X114372380Y-82538809D02*
X114324761Y-82729285D01*
X114324761Y-82729285D02*
X114277142Y-82824523D01*
X114277142Y-82824523D02*
X114181904Y-82919761D01*
X114181904Y-82919761D02*
X114039047Y-82967380D01*
X114039047Y-82967380D02*
X113800952Y-82967380D01*
X115277142Y-81967380D02*
X114800952Y-81967380D01*
X114800952Y-81967380D02*
X114753333Y-82443571D01*
X114753333Y-82443571D02*
X114800952Y-82395952D01*
X114800952Y-82395952D02*
X114896190Y-82348333D01*
X114896190Y-82348333D02*
X115134285Y-82348333D01*
X115134285Y-82348333D02*
X115229523Y-82395952D01*
X115229523Y-82395952D02*
X115277142Y-82443571D01*
X115277142Y-82443571D02*
X115324761Y-82538809D01*
X115324761Y-82538809D02*
X115324761Y-82776904D01*
X115324761Y-82776904D02*
X115277142Y-82872142D01*
X115277142Y-82872142D02*
X115229523Y-82919761D01*
X115229523Y-82919761D02*
X115134285Y-82967380D01*
X115134285Y-82967380D02*
X114896190Y-82967380D01*
X114896190Y-82967380D02*
X114800952Y-82919761D01*
X114800952Y-82919761D02*
X114753333Y-82872142D01*
X109981904Y-80427380D02*
X109410476Y-80427380D01*
X109696190Y-80427380D02*
X109696190Y-79427380D01*
X109696190Y-79427380D02*
X109600952Y-79570238D01*
X109600952Y-79570238D02*
X109505714Y-79665476D01*
X109505714Y-79665476D02*
X109410476Y-79713095D01*
X110839047Y-79427380D02*
X110648571Y-79427380D01*
X110648571Y-79427380D02*
X110553333Y-79475000D01*
X110553333Y-79475000D02*
X110505714Y-79522619D01*
X110505714Y-79522619D02*
X110410476Y-79665476D01*
X110410476Y-79665476D02*
X110362857Y-79855952D01*
X110362857Y-79855952D02*
X110362857Y-80236904D01*
X110362857Y-80236904D02*
X110410476Y-80332142D01*
X110410476Y-80332142D02*
X110458095Y-80379761D01*
X110458095Y-80379761D02*
X110553333Y-80427380D01*
X110553333Y-80427380D02*
X110743809Y-80427380D01*
X110743809Y-80427380D02*
X110839047Y-80379761D01*
X110839047Y-80379761D02*
X110886666Y-80332142D01*
X110886666Y-80332142D02*
X110934285Y-80236904D01*
X110934285Y-80236904D02*
X110934285Y-79998809D01*
X110934285Y-79998809D02*
X110886666Y-79903571D01*
X110886666Y-79903571D02*
X110839047Y-79855952D01*
X110839047Y-79855952D02*
X110743809Y-79808333D01*
X110743809Y-79808333D02*
X110553333Y-79808333D01*
X110553333Y-79808333D02*
X110458095Y-79855952D01*
X110458095Y-79855952D02*
X110410476Y-79903571D01*
X110410476Y-79903571D02*
X110362857Y-79998809D01*
X111962857Y-80046428D02*
X112724762Y-80046428D01*
X113800952Y-80427380D02*
X113800952Y-79427380D01*
X113800952Y-79427380D02*
X114039047Y-79427380D01*
X114039047Y-79427380D02*
X114181904Y-79475000D01*
X114181904Y-79475000D02*
X114277142Y-79570238D01*
X114277142Y-79570238D02*
X114324761Y-79665476D01*
X114324761Y-79665476D02*
X114372380Y-79855952D01*
X114372380Y-79855952D02*
X114372380Y-79998809D01*
X114372380Y-79998809D02*
X114324761Y-80189285D01*
X114324761Y-80189285D02*
X114277142Y-80284523D01*
X114277142Y-80284523D02*
X114181904Y-80379761D01*
X114181904Y-80379761D02*
X114039047Y-80427380D01*
X114039047Y-80427380D02*
X113800952Y-80427380D01*
X115229523Y-79760714D02*
X115229523Y-80427380D01*
X114991428Y-79379761D02*
X114753333Y-80094047D01*
X114753333Y-80094047D02*
X115372380Y-80094047D01*
X109981904Y-42327380D02*
X109410476Y-42327380D01*
X109696190Y-42327380D02*
X109696190Y-41327380D01*
X109696190Y-41327380D02*
X109600952Y-41470238D01*
X109600952Y-41470238D02*
X109505714Y-41565476D01*
X109505714Y-41565476D02*
X109410476Y-41613095D01*
X111010476Y-41946428D02*
X111772381Y-41946428D01*
X112705714Y-41327380D02*
X113039047Y-42327380D01*
X113039047Y-42327380D02*
X113372380Y-41327380D01*
X113705714Y-42327380D02*
X113705714Y-41327380D01*
X113705714Y-41327380D02*
X114277142Y-42327380D01*
X114277142Y-42327380D02*
X114277142Y-41327380D01*
X114753333Y-41803571D02*
X115086666Y-41803571D01*
X115229523Y-42327380D02*
X114753333Y-42327380D01*
X114753333Y-42327380D02*
X114753333Y-41327380D01*
X114753333Y-41327380D02*
X115229523Y-41327380D01*
X116181904Y-41375000D02*
X116086666Y-41327380D01*
X116086666Y-41327380D02*
X115943809Y-41327380D01*
X115943809Y-41327380D02*
X115800952Y-41375000D01*
X115800952Y-41375000D02*
X115705714Y-41470238D01*
X115705714Y-41470238D02*
X115658095Y-41565476D01*
X115658095Y-41565476D02*
X115610476Y-41755952D01*
X115610476Y-41755952D02*
X115610476Y-41898809D01*
X115610476Y-41898809D02*
X115658095Y-42089285D01*
X115658095Y-42089285D02*
X115705714Y-42184523D01*
X115705714Y-42184523D02*
X115800952Y-42279761D01*
X115800952Y-42279761D02*
X115943809Y-42327380D01*
X115943809Y-42327380D02*
X116039047Y-42327380D01*
X116039047Y-42327380D02*
X116181904Y-42279761D01*
X116181904Y-42279761D02*
X116229523Y-42232142D01*
X116229523Y-42232142D02*
X116229523Y-41898809D01*
X116229523Y-41898809D02*
X116039047Y-41898809D01*
X109362857Y-56567380D02*
X110029523Y-56567380D01*
X110029523Y-56567380D02*
X109600952Y-57567380D01*
X111010476Y-57186428D02*
X111772381Y-57186428D01*
X113039047Y-56567380D02*
X113229523Y-56567380D01*
X113229523Y-56567380D02*
X113324761Y-56615000D01*
X113324761Y-56615000D02*
X113419999Y-56710238D01*
X113419999Y-56710238D02*
X113467618Y-56900714D01*
X113467618Y-56900714D02*
X113467618Y-57234047D01*
X113467618Y-57234047D02*
X113419999Y-57424523D01*
X113419999Y-57424523D02*
X113324761Y-57519761D01*
X113324761Y-57519761D02*
X113229523Y-57567380D01*
X113229523Y-57567380D02*
X113039047Y-57567380D01*
X113039047Y-57567380D02*
X112943809Y-57519761D01*
X112943809Y-57519761D02*
X112848571Y-57424523D01*
X112848571Y-57424523D02*
X112800952Y-57234047D01*
X112800952Y-57234047D02*
X112800952Y-56900714D01*
X112800952Y-56900714D02*
X112848571Y-56710238D01*
X112848571Y-56710238D02*
X112943809Y-56615000D01*
X112943809Y-56615000D02*
X113039047Y-56567380D01*
X113896190Y-57043571D02*
X114229523Y-57043571D01*
X114372380Y-57567380D02*
X113896190Y-57567380D01*
X113896190Y-57567380D02*
X113896190Y-56567380D01*
X113896190Y-56567380D02*
X114372380Y-56567380D01*
X109410476Y-97302619D02*
X109458095Y-97255000D01*
X109458095Y-97255000D02*
X109553333Y-97207380D01*
X109553333Y-97207380D02*
X109791428Y-97207380D01*
X109791428Y-97207380D02*
X109886666Y-97255000D01*
X109886666Y-97255000D02*
X109934285Y-97302619D01*
X109934285Y-97302619D02*
X109981904Y-97397857D01*
X109981904Y-97397857D02*
X109981904Y-97493095D01*
X109981904Y-97493095D02*
X109934285Y-97635952D01*
X109934285Y-97635952D02*
X109362857Y-98207380D01*
X109362857Y-98207380D02*
X109981904Y-98207380D01*
X110315238Y-97207380D02*
X110934285Y-97207380D01*
X110934285Y-97207380D02*
X110600952Y-97588333D01*
X110600952Y-97588333D02*
X110743809Y-97588333D01*
X110743809Y-97588333D02*
X110839047Y-97635952D01*
X110839047Y-97635952D02*
X110886666Y-97683571D01*
X110886666Y-97683571D02*
X110934285Y-97778809D01*
X110934285Y-97778809D02*
X110934285Y-98016904D01*
X110934285Y-98016904D02*
X110886666Y-98112142D01*
X110886666Y-98112142D02*
X110839047Y-98159761D01*
X110839047Y-98159761D02*
X110743809Y-98207380D01*
X110743809Y-98207380D02*
X110458095Y-98207380D01*
X110458095Y-98207380D02*
X110362857Y-98159761D01*
X110362857Y-98159761D02*
X110315238Y-98112142D01*
X111962857Y-97826428D02*
X112724762Y-97826428D01*
X114324761Y-97255000D02*
X114229523Y-97207380D01*
X114229523Y-97207380D02*
X114086666Y-97207380D01*
X114086666Y-97207380D02*
X113943809Y-97255000D01*
X113943809Y-97255000D02*
X113848571Y-97350238D01*
X113848571Y-97350238D02*
X113800952Y-97445476D01*
X113800952Y-97445476D02*
X113753333Y-97635952D01*
X113753333Y-97635952D02*
X113753333Y-97778809D01*
X113753333Y-97778809D02*
X113800952Y-97969285D01*
X113800952Y-97969285D02*
X113848571Y-98064523D01*
X113848571Y-98064523D02*
X113943809Y-98159761D01*
X113943809Y-98159761D02*
X114086666Y-98207380D01*
X114086666Y-98207380D02*
X114181904Y-98207380D01*
X114181904Y-98207380D02*
X114324761Y-98159761D01*
X114324761Y-98159761D02*
X114372380Y-98112142D01*
X114372380Y-98112142D02*
X114372380Y-97778809D01*
X114372380Y-97778809D02*
X114181904Y-97778809D01*
X114658095Y-97207380D02*
X114991428Y-98207380D01*
X114991428Y-98207380D02*
X115324761Y-97207380D01*
X115658095Y-98207380D02*
X115658095Y-97207380D01*
X115658095Y-97207380D02*
X115896190Y-97207380D01*
X115896190Y-97207380D02*
X116039047Y-97255000D01*
X116039047Y-97255000D02*
X116134285Y-97350238D01*
X116134285Y-97350238D02*
X116181904Y-97445476D01*
X116181904Y-97445476D02*
X116229523Y-97635952D01*
X116229523Y-97635952D02*
X116229523Y-97778809D01*
X116229523Y-97778809D02*
X116181904Y-97969285D01*
X116181904Y-97969285D02*
X116134285Y-98064523D01*
X116134285Y-98064523D02*
X116039047Y-98159761D01*
X116039047Y-98159761D02*
X115896190Y-98207380D01*
X115896190Y-98207380D02*
X115658095Y-98207380D01*
X116658095Y-98207380D02*
X116658095Y-97207380D01*
X116658095Y-97207380D02*
X116896190Y-97207380D01*
X116896190Y-97207380D02*
X117039047Y-97255000D01*
X117039047Y-97255000D02*
X117134285Y-97350238D01*
X117134285Y-97350238D02*
X117181904Y-97445476D01*
X117181904Y-97445476D02*
X117229523Y-97635952D01*
X117229523Y-97635952D02*
X117229523Y-97778809D01*
X117229523Y-97778809D02*
X117181904Y-97969285D01*
X117181904Y-97969285D02*
X117134285Y-98064523D01*
X117134285Y-98064523D02*
X117039047Y-98159761D01*
X117039047Y-98159761D02*
X116896190Y-98207380D01*
X116896190Y-98207380D02*
X116658095Y-98207380D01*
X109886666Y-49280714D02*
X109886666Y-49947380D01*
X109648571Y-48899761D02*
X109410476Y-49614047D01*
X109410476Y-49614047D02*
X110029523Y-49614047D01*
X111010476Y-49566428D02*
X111772381Y-49566428D01*
X112705714Y-48947380D02*
X113039047Y-49947380D01*
X113039047Y-49947380D02*
X113372380Y-48947380D01*
X113705714Y-49947380D02*
X113705714Y-48947380D01*
X113705714Y-48947380D02*
X113943809Y-48947380D01*
X113943809Y-48947380D02*
X114086666Y-48995000D01*
X114086666Y-48995000D02*
X114181904Y-49090238D01*
X114181904Y-49090238D02*
X114229523Y-49185476D01*
X114229523Y-49185476D02*
X114277142Y-49375952D01*
X114277142Y-49375952D02*
X114277142Y-49518809D01*
X114277142Y-49518809D02*
X114229523Y-49709285D01*
X114229523Y-49709285D02*
X114181904Y-49804523D01*
X114181904Y-49804523D02*
X114086666Y-49899761D01*
X114086666Y-49899761D02*
X113943809Y-49947380D01*
X113943809Y-49947380D02*
X113705714Y-49947380D01*
X114705714Y-49947380D02*
X114705714Y-48947380D01*
X114705714Y-48947380D02*
X114943809Y-48947380D01*
X114943809Y-48947380D02*
X115086666Y-48995000D01*
X115086666Y-48995000D02*
X115181904Y-49090238D01*
X115181904Y-49090238D02*
X115229523Y-49185476D01*
X115229523Y-49185476D02*
X115277142Y-49375952D01*
X115277142Y-49375952D02*
X115277142Y-49518809D01*
X115277142Y-49518809D02*
X115229523Y-49709285D01*
X115229523Y-49709285D02*
X115181904Y-49804523D01*
X115181904Y-49804523D02*
X115086666Y-49899761D01*
X115086666Y-49899761D02*
X114943809Y-49947380D01*
X114943809Y-49947380D02*
X114705714Y-49947380D01*
X109981904Y-67727380D02*
X109410476Y-67727380D01*
X109696190Y-67727380D02*
X109696190Y-66727380D01*
X109696190Y-66727380D02*
X109600952Y-66870238D01*
X109600952Y-66870238D02*
X109505714Y-66965476D01*
X109505714Y-66965476D02*
X109410476Y-67013095D01*
X110934285Y-67727380D02*
X110362857Y-67727380D01*
X110648571Y-67727380D02*
X110648571Y-66727380D01*
X110648571Y-66727380D02*
X110553333Y-66870238D01*
X110553333Y-66870238D02*
X110458095Y-66965476D01*
X110458095Y-66965476D02*
X110362857Y-67013095D01*
X111962857Y-67346428D02*
X112724762Y-67346428D01*
X113753333Y-67679761D02*
X113896190Y-67727380D01*
X113896190Y-67727380D02*
X114134285Y-67727380D01*
X114134285Y-67727380D02*
X114229523Y-67679761D01*
X114229523Y-67679761D02*
X114277142Y-67632142D01*
X114277142Y-67632142D02*
X114324761Y-67536904D01*
X114324761Y-67536904D02*
X114324761Y-67441666D01*
X114324761Y-67441666D02*
X114277142Y-67346428D01*
X114277142Y-67346428D02*
X114229523Y-67298809D01*
X114229523Y-67298809D02*
X114134285Y-67251190D01*
X114134285Y-67251190D02*
X113943809Y-67203571D01*
X113943809Y-67203571D02*
X113848571Y-67155952D01*
X113848571Y-67155952D02*
X113800952Y-67108333D01*
X113800952Y-67108333D02*
X113753333Y-67013095D01*
X113753333Y-67013095D02*
X113753333Y-66917857D01*
X113753333Y-66917857D02*
X113800952Y-66822619D01*
X113800952Y-66822619D02*
X113848571Y-66775000D01*
X113848571Y-66775000D02*
X113943809Y-66727380D01*
X113943809Y-66727380D02*
X114181904Y-66727380D01*
X114181904Y-66727380D02*
X114324761Y-66775000D01*
X114753333Y-67727380D02*
X114753333Y-66727380D01*
X114753333Y-66727380D02*
X115134285Y-66727380D01*
X115134285Y-66727380D02*
X115229523Y-66775000D01*
X115229523Y-66775000D02*
X115277142Y-66822619D01*
X115277142Y-66822619D02*
X115324761Y-66917857D01*
X115324761Y-66917857D02*
X115324761Y-67060714D01*
X115324761Y-67060714D02*
X115277142Y-67155952D01*
X115277142Y-67155952D02*
X115229523Y-67203571D01*
X115229523Y-67203571D02*
X115134285Y-67251190D01*
X115134285Y-67251190D02*
X114753333Y-67251190D01*
X115753333Y-67727380D02*
X115753333Y-66727380D01*
X115753333Y-67203571D02*
X116324761Y-67203571D01*
X116324761Y-67727380D02*
X116324761Y-66727380D01*
X109981904Y-77887380D02*
X109410476Y-77887380D01*
X109696190Y-77887380D02*
X109696190Y-76887380D01*
X109696190Y-76887380D02*
X109600952Y-77030238D01*
X109600952Y-77030238D02*
X109505714Y-77125476D01*
X109505714Y-77125476D02*
X109410476Y-77173095D01*
X110886666Y-76887380D02*
X110410476Y-76887380D01*
X110410476Y-76887380D02*
X110362857Y-77363571D01*
X110362857Y-77363571D02*
X110410476Y-77315952D01*
X110410476Y-77315952D02*
X110505714Y-77268333D01*
X110505714Y-77268333D02*
X110743809Y-77268333D01*
X110743809Y-77268333D02*
X110839047Y-77315952D01*
X110839047Y-77315952D02*
X110886666Y-77363571D01*
X110886666Y-77363571D02*
X110934285Y-77458809D01*
X110934285Y-77458809D02*
X110934285Y-77696904D01*
X110934285Y-77696904D02*
X110886666Y-77792142D01*
X110886666Y-77792142D02*
X110839047Y-77839761D01*
X110839047Y-77839761D02*
X110743809Y-77887380D01*
X110743809Y-77887380D02*
X110505714Y-77887380D01*
X110505714Y-77887380D02*
X110410476Y-77839761D01*
X110410476Y-77839761D02*
X110362857Y-77792142D01*
X111962857Y-77506428D02*
X112724762Y-77506428D01*
X113800952Y-77887380D02*
X113800952Y-76887380D01*
X113800952Y-76887380D02*
X114039047Y-76887380D01*
X114039047Y-76887380D02*
X114181904Y-76935000D01*
X114181904Y-76935000D02*
X114277142Y-77030238D01*
X114277142Y-77030238D02*
X114324761Y-77125476D01*
X114324761Y-77125476D02*
X114372380Y-77315952D01*
X114372380Y-77315952D02*
X114372380Y-77458809D01*
X114372380Y-77458809D02*
X114324761Y-77649285D01*
X114324761Y-77649285D02*
X114277142Y-77744523D01*
X114277142Y-77744523D02*
X114181904Y-77839761D01*
X114181904Y-77839761D02*
X114039047Y-77887380D01*
X114039047Y-77887380D02*
X113800952Y-77887380D01*
X114705714Y-76887380D02*
X115324761Y-76887380D01*
X115324761Y-76887380D02*
X114991428Y-77268333D01*
X114991428Y-77268333D02*
X115134285Y-77268333D01*
X115134285Y-77268333D02*
X115229523Y-77315952D01*
X115229523Y-77315952D02*
X115277142Y-77363571D01*
X115277142Y-77363571D02*
X115324761Y-77458809D01*
X115324761Y-77458809D02*
X115324761Y-77696904D01*
X115324761Y-77696904D02*
X115277142Y-77792142D01*
X115277142Y-77792142D02*
X115229523Y-77839761D01*
X115229523Y-77839761D02*
X115134285Y-77887380D01*
X115134285Y-77887380D02*
X114848571Y-77887380D01*
X114848571Y-77887380D02*
X114753333Y-77839761D01*
X114753333Y-77839761D02*
X114705714Y-77792142D01*
X109362857Y-122607380D02*
X109981904Y-122607380D01*
X109981904Y-122607380D02*
X109648571Y-122988333D01*
X109648571Y-122988333D02*
X109791428Y-122988333D01*
X109791428Y-122988333D02*
X109886666Y-123035952D01*
X109886666Y-123035952D02*
X109934285Y-123083571D01*
X109934285Y-123083571D02*
X109981904Y-123178809D01*
X109981904Y-123178809D02*
X109981904Y-123416904D01*
X109981904Y-123416904D02*
X109934285Y-123512142D01*
X109934285Y-123512142D02*
X109886666Y-123559761D01*
X109886666Y-123559761D02*
X109791428Y-123607380D01*
X109791428Y-123607380D02*
X109505714Y-123607380D01*
X109505714Y-123607380D02*
X109410476Y-123559761D01*
X109410476Y-123559761D02*
X109362857Y-123512142D01*
X110315238Y-122607380D02*
X110934285Y-122607380D01*
X110934285Y-122607380D02*
X110600952Y-122988333D01*
X110600952Y-122988333D02*
X110743809Y-122988333D01*
X110743809Y-122988333D02*
X110839047Y-123035952D01*
X110839047Y-123035952D02*
X110886666Y-123083571D01*
X110886666Y-123083571D02*
X110934285Y-123178809D01*
X110934285Y-123178809D02*
X110934285Y-123416904D01*
X110934285Y-123416904D02*
X110886666Y-123512142D01*
X110886666Y-123512142D02*
X110839047Y-123559761D01*
X110839047Y-123559761D02*
X110743809Y-123607380D01*
X110743809Y-123607380D02*
X110458095Y-123607380D01*
X110458095Y-123607380D02*
X110362857Y-123559761D01*
X110362857Y-123559761D02*
X110315238Y-123512142D01*
X111962857Y-123226428D02*
X112724762Y-123226428D01*
X113800952Y-122607380D02*
X113800952Y-123416904D01*
X113800952Y-123416904D02*
X113848571Y-123512142D01*
X113848571Y-123512142D02*
X113896190Y-123559761D01*
X113896190Y-123559761D02*
X113991428Y-123607380D01*
X113991428Y-123607380D02*
X114181904Y-123607380D01*
X114181904Y-123607380D02*
X114277142Y-123559761D01*
X114277142Y-123559761D02*
X114324761Y-123512142D01*
X114324761Y-123512142D02*
X114372380Y-123416904D01*
X114372380Y-123416904D02*
X114372380Y-122607380D01*
X115372380Y-123607380D02*
X114800952Y-123607380D01*
X115086666Y-123607380D02*
X115086666Y-122607380D01*
X115086666Y-122607380D02*
X114991428Y-122750238D01*
X114991428Y-122750238D02*
X114896190Y-122845476D01*
X114896190Y-122845476D02*
X114800952Y-122893095D01*
X116372380Y-123512142D02*
X116324761Y-123559761D01*
X116324761Y-123559761D02*
X116181904Y-123607380D01*
X116181904Y-123607380D02*
X116086666Y-123607380D01*
X116086666Y-123607380D02*
X115943809Y-123559761D01*
X115943809Y-123559761D02*
X115848571Y-123464523D01*
X115848571Y-123464523D02*
X115800952Y-123369285D01*
X115800952Y-123369285D02*
X115753333Y-123178809D01*
X115753333Y-123178809D02*
X115753333Y-123035952D01*
X115753333Y-123035952D02*
X115800952Y-122845476D01*
X115800952Y-122845476D02*
X115848571Y-122750238D01*
X115848571Y-122750238D02*
X115943809Y-122655000D01*
X115943809Y-122655000D02*
X116086666Y-122607380D01*
X116086666Y-122607380D02*
X116181904Y-122607380D01*
X116181904Y-122607380D02*
X116324761Y-122655000D01*
X116324761Y-122655000D02*
X116372380Y-122702619D01*
X116800952Y-123607380D02*
X116800952Y-122607380D01*
X117372380Y-123607380D02*
X116943809Y-123035952D01*
X117372380Y-122607380D02*
X116800952Y-123178809D01*
X117658095Y-122607380D02*
X117991428Y-123607380D01*
X117991428Y-123607380D02*
X118324761Y-122607380D01*
X109505714Y-62647380D02*
X109696190Y-62647380D01*
X109696190Y-62647380D02*
X109791428Y-62599761D01*
X109791428Y-62599761D02*
X109839047Y-62552142D01*
X109839047Y-62552142D02*
X109934285Y-62409285D01*
X109934285Y-62409285D02*
X109981904Y-62218809D01*
X109981904Y-62218809D02*
X109981904Y-61837857D01*
X109981904Y-61837857D02*
X109934285Y-61742619D01*
X109934285Y-61742619D02*
X109886666Y-61695000D01*
X109886666Y-61695000D02*
X109791428Y-61647380D01*
X109791428Y-61647380D02*
X109600952Y-61647380D01*
X109600952Y-61647380D02*
X109505714Y-61695000D01*
X109505714Y-61695000D02*
X109458095Y-61742619D01*
X109458095Y-61742619D02*
X109410476Y-61837857D01*
X109410476Y-61837857D02*
X109410476Y-62075952D01*
X109410476Y-62075952D02*
X109458095Y-62171190D01*
X109458095Y-62171190D02*
X109505714Y-62218809D01*
X109505714Y-62218809D02*
X109600952Y-62266428D01*
X109600952Y-62266428D02*
X109791428Y-62266428D01*
X109791428Y-62266428D02*
X109886666Y-62218809D01*
X109886666Y-62218809D02*
X109934285Y-62171190D01*
X109934285Y-62171190D02*
X109981904Y-62075952D01*
X111010476Y-62266428D02*
X111772381Y-62266428D01*
X113419999Y-62552142D02*
X113372380Y-62599761D01*
X113372380Y-62599761D02*
X113229523Y-62647380D01*
X113229523Y-62647380D02*
X113134285Y-62647380D01*
X113134285Y-62647380D02*
X112991428Y-62599761D01*
X112991428Y-62599761D02*
X112896190Y-62504523D01*
X112896190Y-62504523D02*
X112848571Y-62409285D01*
X112848571Y-62409285D02*
X112800952Y-62218809D01*
X112800952Y-62218809D02*
X112800952Y-62075952D01*
X112800952Y-62075952D02*
X112848571Y-61885476D01*
X112848571Y-61885476D02*
X112896190Y-61790238D01*
X112896190Y-61790238D02*
X112991428Y-61695000D01*
X112991428Y-61695000D02*
X113134285Y-61647380D01*
X113134285Y-61647380D02*
X113229523Y-61647380D01*
X113229523Y-61647380D02*
X113372380Y-61695000D01*
X113372380Y-61695000D02*
X113419999Y-61742619D01*
X113848571Y-62123571D02*
X114181904Y-62123571D01*
X114324761Y-62647380D02*
X113848571Y-62647380D01*
X113848571Y-62647380D02*
X113848571Y-61647380D01*
X113848571Y-61647380D02*
X114324761Y-61647380D01*
X115277142Y-62647380D02*
X114705714Y-62647380D01*
X114991428Y-62647380D02*
X114991428Y-61647380D01*
X114991428Y-61647380D02*
X114896190Y-61790238D01*
X114896190Y-61790238D02*
X114800952Y-61885476D01*
X114800952Y-61885476D02*
X114705714Y-61933095D01*
X116591428Y-63028333D02*
X116543809Y-62980714D01*
X116543809Y-62980714D02*
X116448571Y-62837857D01*
X116448571Y-62837857D02*
X116400952Y-62742619D01*
X116400952Y-62742619D02*
X116353333Y-62599761D01*
X116353333Y-62599761D02*
X116305714Y-62361666D01*
X116305714Y-62361666D02*
X116305714Y-62171190D01*
X116305714Y-62171190D02*
X116353333Y-61933095D01*
X116353333Y-61933095D02*
X116400952Y-61790238D01*
X116400952Y-61790238D02*
X116448571Y-61695000D01*
X116448571Y-61695000D02*
X116543809Y-61552142D01*
X116543809Y-61552142D02*
X116591428Y-61504523D01*
X116972381Y-62647380D02*
X116972381Y-61647380D01*
X116972381Y-61647380D02*
X117543809Y-62647380D01*
X117543809Y-62647380D02*
X117543809Y-61647380D01*
X118591428Y-62552142D02*
X118543809Y-62599761D01*
X118543809Y-62599761D02*
X118400952Y-62647380D01*
X118400952Y-62647380D02*
X118305714Y-62647380D01*
X118305714Y-62647380D02*
X118162857Y-62599761D01*
X118162857Y-62599761D02*
X118067619Y-62504523D01*
X118067619Y-62504523D02*
X118020000Y-62409285D01*
X118020000Y-62409285D02*
X117972381Y-62218809D01*
X117972381Y-62218809D02*
X117972381Y-62075952D01*
X117972381Y-62075952D02*
X118020000Y-61885476D01*
X118020000Y-61885476D02*
X118067619Y-61790238D01*
X118067619Y-61790238D02*
X118162857Y-61695000D01*
X118162857Y-61695000D02*
X118305714Y-61647380D01*
X118305714Y-61647380D02*
X118400952Y-61647380D01*
X118400952Y-61647380D02*
X118543809Y-61695000D01*
X118543809Y-61695000D02*
X118591428Y-61742619D01*
X118924762Y-63028333D02*
X118972381Y-62980714D01*
X118972381Y-62980714D02*
X119067619Y-62837857D01*
X119067619Y-62837857D02*
X119115238Y-62742619D01*
X119115238Y-62742619D02*
X119162857Y-62599761D01*
X119162857Y-62599761D02*
X119210476Y-62361666D01*
X119210476Y-62361666D02*
X119210476Y-62171190D01*
X119210476Y-62171190D02*
X119162857Y-61933095D01*
X119162857Y-61933095D02*
X119115238Y-61790238D01*
X119115238Y-61790238D02*
X119067619Y-61695000D01*
X119067619Y-61695000D02*
X118972381Y-61552142D01*
X118972381Y-61552142D02*
X118924762Y-61504523D01*
X109362857Y-130227380D02*
X109981904Y-130227380D01*
X109981904Y-130227380D02*
X109648571Y-130608333D01*
X109648571Y-130608333D02*
X109791428Y-130608333D01*
X109791428Y-130608333D02*
X109886666Y-130655952D01*
X109886666Y-130655952D02*
X109934285Y-130703571D01*
X109934285Y-130703571D02*
X109981904Y-130798809D01*
X109981904Y-130798809D02*
X109981904Y-131036904D01*
X109981904Y-131036904D02*
X109934285Y-131132142D01*
X109934285Y-131132142D02*
X109886666Y-131179761D01*
X109886666Y-131179761D02*
X109791428Y-131227380D01*
X109791428Y-131227380D02*
X109505714Y-131227380D01*
X109505714Y-131227380D02*
X109410476Y-131179761D01*
X109410476Y-131179761D02*
X109362857Y-131132142D01*
X110839047Y-130227380D02*
X110648571Y-130227380D01*
X110648571Y-130227380D02*
X110553333Y-130275000D01*
X110553333Y-130275000D02*
X110505714Y-130322619D01*
X110505714Y-130322619D02*
X110410476Y-130465476D01*
X110410476Y-130465476D02*
X110362857Y-130655952D01*
X110362857Y-130655952D02*
X110362857Y-131036904D01*
X110362857Y-131036904D02*
X110410476Y-131132142D01*
X110410476Y-131132142D02*
X110458095Y-131179761D01*
X110458095Y-131179761D02*
X110553333Y-131227380D01*
X110553333Y-131227380D02*
X110743809Y-131227380D01*
X110743809Y-131227380D02*
X110839047Y-131179761D01*
X110839047Y-131179761D02*
X110886666Y-131132142D01*
X110886666Y-131132142D02*
X110934285Y-131036904D01*
X110934285Y-131036904D02*
X110934285Y-130798809D01*
X110934285Y-130798809D02*
X110886666Y-130703571D01*
X110886666Y-130703571D02*
X110839047Y-130655952D01*
X110839047Y-130655952D02*
X110743809Y-130608333D01*
X110743809Y-130608333D02*
X110553333Y-130608333D01*
X110553333Y-130608333D02*
X110458095Y-130655952D01*
X110458095Y-130655952D02*
X110410476Y-130703571D01*
X110410476Y-130703571D02*
X110362857Y-130798809D01*
X111962857Y-130846428D02*
X112724762Y-130846428D01*
X113800952Y-130227380D02*
X113800952Y-131036904D01*
X113800952Y-131036904D02*
X113848571Y-131132142D01*
X113848571Y-131132142D02*
X113896190Y-131179761D01*
X113896190Y-131179761D02*
X113991428Y-131227380D01*
X113991428Y-131227380D02*
X114181904Y-131227380D01*
X114181904Y-131227380D02*
X114277142Y-131179761D01*
X114277142Y-131179761D02*
X114324761Y-131132142D01*
X114324761Y-131132142D02*
X114372380Y-131036904D01*
X114372380Y-131036904D02*
X114372380Y-130227380D01*
X114800952Y-130322619D02*
X114848571Y-130275000D01*
X114848571Y-130275000D02*
X114943809Y-130227380D01*
X114943809Y-130227380D02*
X115181904Y-130227380D01*
X115181904Y-130227380D02*
X115277142Y-130275000D01*
X115277142Y-130275000D02*
X115324761Y-130322619D01*
X115324761Y-130322619D02*
X115372380Y-130417857D01*
X115372380Y-130417857D02*
X115372380Y-130513095D01*
X115372380Y-130513095D02*
X115324761Y-130655952D01*
X115324761Y-130655952D02*
X114753333Y-131227380D01*
X114753333Y-131227380D02*
X115372380Y-131227380D01*
X116372380Y-131132142D02*
X116324761Y-131179761D01*
X116324761Y-131179761D02*
X116181904Y-131227380D01*
X116181904Y-131227380D02*
X116086666Y-131227380D01*
X116086666Y-131227380D02*
X115943809Y-131179761D01*
X115943809Y-131179761D02*
X115848571Y-131084523D01*
X115848571Y-131084523D02*
X115800952Y-130989285D01*
X115800952Y-130989285D02*
X115753333Y-130798809D01*
X115753333Y-130798809D02*
X115753333Y-130655952D01*
X115753333Y-130655952D02*
X115800952Y-130465476D01*
X115800952Y-130465476D02*
X115848571Y-130370238D01*
X115848571Y-130370238D02*
X115943809Y-130275000D01*
X115943809Y-130275000D02*
X116086666Y-130227380D01*
X116086666Y-130227380D02*
X116181904Y-130227380D01*
X116181904Y-130227380D02*
X116324761Y-130275000D01*
X116324761Y-130275000D02*
X116372380Y-130322619D01*
X116800952Y-130703571D02*
X117134285Y-130703571D01*
X117277142Y-131227380D02*
X116800952Y-131227380D01*
X116800952Y-131227380D02*
X116800952Y-130227380D01*
X116800952Y-130227380D02*
X117277142Y-130227380D01*
X118229523Y-131227380D02*
X117658095Y-131227380D01*
X117943809Y-131227380D02*
X117943809Y-130227380D01*
X117943809Y-130227380D02*
X117848571Y-130370238D01*
X117848571Y-130370238D02*
X117753333Y-130465476D01*
X117753333Y-130465476D02*
X117658095Y-130513095D01*
X109934285Y-51487380D02*
X109458095Y-51487380D01*
X109458095Y-51487380D02*
X109410476Y-51963571D01*
X109410476Y-51963571D02*
X109458095Y-51915952D01*
X109458095Y-51915952D02*
X109553333Y-51868333D01*
X109553333Y-51868333D02*
X109791428Y-51868333D01*
X109791428Y-51868333D02*
X109886666Y-51915952D01*
X109886666Y-51915952D02*
X109934285Y-51963571D01*
X109934285Y-51963571D02*
X109981904Y-52058809D01*
X109981904Y-52058809D02*
X109981904Y-52296904D01*
X109981904Y-52296904D02*
X109934285Y-52392142D01*
X109934285Y-52392142D02*
X109886666Y-52439761D01*
X109886666Y-52439761D02*
X109791428Y-52487380D01*
X109791428Y-52487380D02*
X109553333Y-52487380D01*
X109553333Y-52487380D02*
X109458095Y-52439761D01*
X109458095Y-52439761D02*
X109410476Y-52392142D01*
X111010476Y-52106428D02*
X111772381Y-52106428D01*
X113419999Y-52392142D02*
X113372380Y-52439761D01*
X113372380Y-52439761D02*
X113229523Y-52487380D01*
X113229523Y-52487380D02*
X113134285Y-52487380D01*
X113134285Y-52487380D02*
X112991428Y-52439761D01*
X112991428Y-52439761D02*
X112896190Y-52344523D01*
X112896190Y-52344523D02*
X112848571Y-52249285D01*
X112848571Y-52249285D02*
X112800952Y-52058809D01*
X112800952Y-52058809D02*
X112800952Y-51915952D01*
X112800952Y-51915952D02*
X112848571Y-51725476D01*
X112848571Y-51725476D02*
X112896190Y-51630238D01*
X112896190Y-51630238D02*
X112991428Y-51535000D01*
X112991428Y-51535000D02*
X113134285Y-51487380D01*
X113134285Y-51487380D02*
X113229523Y-51487380D01*
X113229523Y-51487380D02*
X113372380Y-51535000D01*
X113372380Y-51535000D02*
X113419999Y-51582619D01*
X114324761Y-52487380D02*
X113848571Y-52487380D01*
X113848571Y-52487380D02*
X113848571Y-51487380D01*
X114658095Y-52487380D02*
X114658095Y-51487380D01*
X115229523Y-52487380D02*
X114800952Y-51915952D01*
X115229523Y-51487380D02*
X114658095Y-52058809D01*
X116543809Y-52868333D02*
X116496190Y-52820714D01*
X116496190Y-52820714D02*
X116400952Y-52677857D01*
X116400952Y-52677857D02*
X116353333Y-52582619D01*
X116353333Y-52582619D02*
X116305714Y-52439761D01*
X116305714Y-52439761D02*
X116258095Y-52201666D01*
X116258095Y-52201666D02*
X116258095Y-52011190D01*
X116258095Y-52011190D02*
X116305714Y-51773095D01*
X116305714Y-51773095D02*
X116353333Y-51630238D01*
X116353333Y-51630238D02*
X116400952Y-51535000D01*
X116400952Y-51535000D02*
X116496190Y-51392142D01*
X116496190Y-51392142D02*
X116543809Y-51344523D01*
X117496190Y-52392142D02*
X117448571Y-52439761D01*
X117448571Y-52439761D02*
X117305714Y-52487380D01*
X117305714Y-52487380D02*
X117210476Y-52487380D01*
X117210476Y-52487380D02*
X117067619Y-52439761D01*
X117067619Y-52439761D02*
X116972381Y-52344523D01*
X116972381Y-52344523D02*
X116924762Y-52249285D01*
X116924762Y-52249285D02*
X116877143Y-52058809D01*
X116877143Y-52058809D02*
X116877143Y-51915952D01*
X116877143Y-51915952D02*
X116924762Y-51725476D01*
X116924762Y-51725476D02*
X116972381Y-51630238D01*
X116972381Y-51630238D02*
X117067619Y-51535000D01*
X117067619Y-51535000D02*
X117210476Y-51487380D01*
X117210476Y-51487380D02*
X117305714Y-51487380D01*
X117305714Y-51487380D02*
X117448571Y-51535000D01*
X117448571Y-51535000D02*
X117496190Y-51582619D01*
X118400952Y-52487380D02*
X117924762Y-52487380D01*
X117924762Y-52487380D02*
X117924762Y-51487380D01*
X118639048Y-52868333D02*
X118686667Y-52820714D01*
X118686667Y-52820714D02*
X118781905Y-52677857D01*
X118781905Y-52677857D02*
X118829524Y-52582619D01*
X118829524Y-52582619D02*
X118877143Y-52439761D01*
X118877143Y-52439761D02*
X118924762Y-52201666D01*
X118924762Y-52201666D02*
X118924762Y-52011190D01*
X118924762Y-52011190D02*
X118877143Y-51773095D01*
X118877143Y-51773095D02*
X118829524Y-51630238D01*
X118829524Y-51630238D02*
X118781905Y-51535000D01*
X118781905Y-51535000D02*
X118686667Y-51392142D01*
X118686667Y-51392142D02*
X118639048Y-51344523D01*
X109410476Y-92222619D02*
X109458095Y-92175000D01*
X109458095Y-92175000D02*
X109553333Y-92127380D01*
X109553333Y-92127380D02*
X109791428Y-92127380D01*
X109791428Y-92127380D02*
X109886666Y-92175000D01*
X109886666Y-92175000D02*
X109934285Y-92222619D01*
X109934285Y-92222619D02*
X109981904Y-92317857D01*
X109981904Y-92317857D02*
X109981904Y-92413095D01*
X109981904Y-92413095D02*
X109934285Y-92555952D01*
X109934285Y-92555952D02*
X109362857Y-93127380D01*
X109362857Y-93127380D02*
X109981904Y-93127380D01*
X110934285Y-93127380D02*
X110362857Y-93127380D01*
X110648571Y-93127380D02*
X110648571Y-92127380D01*
X110648571Y-92127380D02*
X110553333Y-92270238D01*
X110553333Y-92270238D02*
X110458095Y-92365476D01*
X110458095Y-92365476D02*
X110362857Y-92413095D01*
X111962857Y-92746428D02*
X112724762Y-92746428D01*
X113800952Y-93127380D02*
X113800952Y-92127380D01*
X113800952Y-92127380D02*
X114372380Y-93127380D01*
X114372380Y-93127380D02*
X114372380Y-92127380D01*
X115419999Y-93032142D02*
X115372380Y-93079761D01*
X115372380Y-93079761D02*
X115229523Y-93127380D01*
X115229523Y-93127380D02*
X115134285Y-93127380D01*
X115134285Y-93127380D02*
X114991428Y-93079761D01*
X114991428Y-93079761D02*
X114896190Y-92984523D01*
X114896190Y-92984523D02*
X114848571Y-92889285D01*
X114848571Y-92889285D02*
X114800952Y-92698809D01*
X114800952Y-92698809D02*
X114800952Y-92555952D01*
X114800952Y-92555952D02*
X114848571Y-92365476D01*
X114848571Y-92365476D02*
X114896190Y-92270238D01*
X114896190Y-92270238D02*
X114991428Y-92175000D01*
X114991428Y-92175000D02*
X115134285Y-92127380D01*
X115134285Y-92127380D02*
X115229523Y-92127380D01*
X115229523Y-92127380D02*
X115372380Y-92175000D01*
X115372380Y-92175000D02*
X115419999Y-92222619D01*
X109410476Y-112542619D02*
X109458095Y-112495000D01*
X109458095Y-112495000D02*
X109553333Y-112447380D01*
X109553333Y-112447380D02*
X109791428Y-112447380D01*
X109791428Y-112447380D02*
X109886666Y-112495000D01*
X109886666Y-112495000D02*
X109934285Y-112542619D01*
X109934285Y-112542619D02*
X109981904Y-112637857D01*
X109981904Y-112637857D02*
X109981904Y-112733095D01*
X109981904Y-112733095D02*
X109934285Y-112875952D01*
X109934285Y-112875952D02*
X109362857Y-113447380D01*
X109362857Y-113447380D02*
X109981904Y-113447380D01*
X110458095Y-113447380D02*
X110648571Y-113447380D01*
X110648571Y-113447380D02*
X110743809Y-113399761D01*
X110743809Y-113399761D02*
X110791428Y-113352142D01*
X110791428Y-113352142D02*
X110886666Y-113209285D01*
X110886666Y-113209285D02*
X110934285Y-113018809D01*
X110934285Y-113018809D02*
X110934285Y-112637857D01*
X110934285Y-112637857D02*
X110886666Y-112542619D01*
X110886666Y-112542619D02*
X110839047Y-112495000D01*
X110839047Y-112495000D02*
X110743809Y-112447380D01*
X110743809Y-112447380D02*
X110553333Y-112447380D01*
X110553333Y-112447380D02*
X110458095Y-112495000D01*
X110458095Y-112495000D02*
X110410476Y-112542619D01*
X110410476Y-112542619D02*
X110362857Y-112637857D01*
X110362857Y-112637857D02*
X110362857Y-112875952D01*
X110362857Y-112875952D02*
X110410476Y-112971190D01*
X110410476Y-112971190D02*
X110458095Y-113018809D01*
X110458095Y-113018809D02*
X110553333Y-113066428D01*
X110553333Y-113066428D02*
X110743809Y-113066428D01*
X110743809Y-113066428D02*
X110839047Y-113018809D01*
X110839047Y-113018809D02*
X110886666Y-112971190D01*
X110886666Y-112971190D02*
X110934285Y-112875952D01*
X111962857Y-113066428D02*
X112724762Y-113066428D01*
X114372380Y-113447380D02*
X114039047Y-112971190D01*
X113800952Y-113447380D02*
X113800952Y-112447380D01*
X113800952Y-112447380D02*
X114181904Y-112447380D01*
X114181904Y-112447380D02*
X114277142Y-112495000D01*
X114277142Y-112495000D02*
X114324761Y-112542619D01*
X114324761Y-112542619D02*
X114372380Y-112637857D01*
X114372380Y-112637857D02*
X114372380Y-112780714D01*
X114372380Y-112780714D02*
X114324761Y-112875952D01*
X114324761Y-112875952D02*
X114277142Y-112923571D01*
X114277142Y-112923571D02*
X114181904Y-112971190D01*
X114181904Y-112971190D02*
X113800952Y-112971190D01*
X115277142Y-113447380D02*
X114800952Y-113447380D01*
X114800952Y-113447380D02*
X114800952Y-112447380D01*
X109362857Y-114987380D02*
X109981904Y-114987380D01*
X109981904Y-114987380D02*
X109648571Y-115368333D01*
X109648571Y-115368333D02*
X109791428Y-115368333D01*
X109791428Y-115368333D02*
X109886666Y-115415952D01*
X109886666Y-115415952D02*
X109934285Y-115463571D01*
X109934285Y-115463571D02*
X109981904Y-115558809D01*
X109981904Y-115558809D02*
X109981904Y-115796904D01*
X109981904Y-115796904D02*
X109934285Y-115892142D01*
X109934285Y-115892142D02*
X109886666Y-115939761D01*
X109886666Y-115939761D02*
X109791428Y-115987380D01*
X109791428Y-115987380D02*
X109505714Y-115987380D01*
X109505714Y-115987380D02*
X109410476Y-115939761D01*
X109410476Y-115939761D02*
X109362857Y-115892142D01*
X110600952Y-114987380D02*
X110696190Y-114987380D01*
X110696190Y-114987380D02*
X110791428Y-115035000D01*
X110791428Y-115035000D02*
X110839047Y-115082619D01*
X110839047Y-115082619D02*
X110886666Y-115177857D01*
X110886666Y-115177857D02*
X110934285Y-115368333D01*
X110934285Y-115368333D02*
X110934285Y-115606428D01*
X110934285Y-115606428D02*
X110886666Y-115796904D01*
X110886666Y-115796904D02*
X110839047Y-115892142D01*
X110839047Y-115892142D02*
X110791428Y-115939761D01*
X110791428Y-115939761D02*
X110696190Y-115987380D01*
X110696190Y-115987380D02*
X110600952Y-115987380D01*
X110600952Y-115987380D02*
X110505714Y-115939761D01*
X110505714Y-115939761D02*
X110458095Y-115892142D01*
X110458095Y-115892142D02*
X110410476Y-115796904D01*
X110410476Y-115796904D02*
X110362857Y-115606428D01*
X110362857Y-115606428D02*
X110362857Y-115368333D01*
X110362857Y-115368333D02*
X110410476Y-115177857D01*
X110410476Y-115177857D02*
X110458095Y-115082619D01*
X110458095Y-115082619D02*
X110505714Y-115035000D01*
X110505714Y-115035000D02*
X110600952Y-114987380D01*
X111962857Y-115606428D02*
X112724762Y-115606428D01*
X113800952Y-114987380D02*
X113800952Y-115796904D01*
X113800952Y-115796904D02*
X113848571Y-115892142D01*
X113848571Y-115892142D02*
X113896190Y-115939761D01*
X113896190Y-115939761D02*
X113991428Y-115987380D01*
X113991428Y-115987380D02*
X114181904Y-115987380D01*
X114181904Y-115987380D02*
X114277142Y-115939761D01*
X114277142Y-115939761D02*
X114324761Y-115892142D01*
X114324761Y-115892142D02*
X114372380Y-115796904D01*
X114372380Y-115796904D02*
X114372380Y-114987380D01*
X115372380Y-115987380D02*
X114800952Y-115987380D01*
X115086666Y-115987380D02*
X115086666Y-114987380D01*
X115086666Y-114987380D02*
X114991428Y-115130238D01*
X114991428Y-115130238D02*
X114896190Y-115225476D01*
X114896190Y-115225476D02*
X114800952Y-115273095D01*
X116372380Y-115892142D02*
X116324761Y-115939761D01*
X116324761Y-115939761D02*
X116181904Y-115987380D01*
X116181904Y-115987380D02*
X116086666Y-115987380D01*
X116086666Y-115987380D02*
X115943809Y-115939761D01*
X115943809Y-115939761D02*
X115848571Y-115844523D01*
X115848571Y-115844523D02*
X115800952Y-115749285D01*
X115800952Y-115749285D02*
X115753333Y-115558809D01*
X115753333Y-115558809D02*
X115753333Y-115415952D01*
X115753333Y-115415952D02*
X115800952Y-115225476D01*
X115800952Y-115225476D02*
X115848571Y-115130238D01*
X115848571Y-115130238D02*
X115943809Y-115035000D01*
X115943809Y-115035000D02*
X116086666Y-114987380D01*
X116086666Y-114987380D02*
X116181904Y-114987380D01*
X116181904Y-114987380D02*
X116324761Y-115035000D01*
X116324761Y-115035000D02*
X116372380Y-115082619D01*
X116800952Y-115463571D02*
X117134285Y-115463571D01*
X117277142Y-115987380D02*
X116800952Y-115987380D01*
X116800952Y-115987380D02*
X116800952Y-114987380D01*
X116800952Y-114987380D02*
X117277142Y-114987380D01*
X117658095Y-115082619D02*
X117705714Y-115035000D01*
X117705714Y-115035000D02*
X117800952Y-114987380D01*
X117800952Y-114987380D02*
X118039047Y-114987380D01*
X118039047Y-114987380D02*
X118134285Y-115035000D01*
X118134285Y-115035000D02*
X118181904Y-115082619D01*
X118181904Y-115082619D02*
X118229523Y-115177857D01*
X118229523Y-115177857D02*
X118229523Y-115273095D01*
X118229523Y-115273095D02*
X118181904Y-115415952D01*
X118181904Y-115415952D02*
X117610476Y-115987380D01*
X117610476Y-115987380D02*
X118229523Y-115987380D01*
X109362857Y-127687380D02*
X109981904Y-127687380D01*
X109981904Y-127687380D02*
X109648571Y-128068333D01*
X109648571Y-128068333D02*
X109791428Y-128068333D01*
X109791428Y-128068333D02*
X109886666Y-128115952D01*
X109886666Y-128115952D02*
X109934285Y-128163571D01*
X109934285Y-128163571D02*
X109981904Y-128258809D01*
X109981904Y-128258809D02*
X109981904Y-128496904D01*
X109981904Y-128496904D02*
X109934285Y-128592142D01*
X109934285Y-128592142D02*
X109886666Y-128639761D01*
X109886666Y-128639761D02*
X109791428Y-128687380D01*
X109791428Y-128687380D02*
X109505714Y-128687380D01*
X109505714Y-128687380D02*
X109410476Y-128639761D01*
X109410476Y-128639761D02*
X109362857Y-128592142D01*
X110886666Y-127687380D02*
X110410476Y-127687380D01*
X110410476Y-127687380D02*
X110362857Y-128163571D01*
X110362857Y-128163571D02*
X110410476Y-128115952D01*
X110410476Y-128115952D02*
X110505714Y-128068333D01*
X110505714Y-128068333D02*
X110743809Y-128068333D01*
X110743809Y-128068333D02*
X110839047Y-128115952D01*
X110839047Y-128115952D02*
X110886666Y-128163571D01*
X110886666Y-128163571D02*
X110934285Y-128258809D01*
X110934285Y-128258809D02*
X110934285Y-128496904D01*
X110934285Y-128496904D02*
X110886666Y-128592142D01*
X110886666Y-128592142D02*
X110839047Y-128639761D01*
X110839047Y-128639761D02*
X110743809Y-128687380D01*
X110743809Y-128687380D02*
X110505714Y-128687380D01*
X110505714Y-128687380D02*
X110410476Y-128639761D01*
X110410476Y-128639761D02*
X110362857Y-128592142D01*
X111962857Y-128306428D02*
X112724762Y-128306428D01*
X113800952Y-127687380D02*
X113800952Y-128496904D01*
X113800952Y-128496904D02*
X113848571Y-128592142D01*
X113848571Y-128592142D02*
X113896190Y-128639761D01*
X113896190Y-128639761D02*
X113991428Y-128687380D01*
X113991428Y-128687380D02*
X114181904Y-128687380D01*
X114181904Y-128687380D02*
X114277142Y-128639761D01*
X114277142Y-128639761D02*
X114324761Y-128592142D01*
X114324761Y-128592142D02*
X114372380Y-128496904D01*
X114372380Y-128496904D02*
X114372380Y-127687380D01*
X114800952Y-127782619D02*
X114848571Y-127735000D01*
X114848571Y-127735000D02*
X114943809Y-127687380D01*
X114943809Y-127687380D02*
X115181904Y-127687380D01*
X115181904Y-127687380D02*
X115277142Y-127735000D01*
X115277142Y-127735000D02*
X115324761Y-127782619D01*
X115324761Y-127782619D02*
X115372380Y-127877857D01*
X115372380Y-127877857D02*
X115372380Y-127973095D01*
X115372380Y-127973095D02*
X115324761Y-128115952D01*
X115324761Y-128115952D02*
X114753333Y-128687380D01*
X114753333Y-128687380D02*
X115372380Y-128687380D01*
X116372380Y-128592142D02*
X116324761Y-128639761D01*
X116324761Y-128639761D02*
X116181904Y-128687380D01*
X116181904Y-128687380D02*
X116086666Y-128687380D01*
X116086666Y-128687380D02*
X115943809Y-128639761D01*
X115943809Y-128639761D02*
X115848571Y-128544523D01*
X115848571Y-128544523D02*
X115800952Y-128449285D01*
X115800952Y-128449285D02*
X115753333Y-128258809D01*
X115753333Y-128258809D02*
X115753333Y-128115952D01*
X115753333Y-128115952D02*
X115800952Y-127925476D01*
X115800952Y-127925476D02*
X115848571Y-127830238D01*
X115848571Y-127830238D02*
X115943809Y-127735000D01*
X115943809Y-127735000D02*
X116086666Y-127687380D01*
X116086666Y-127687380D02*
X116181904Y-127687380D01*
X116181904Y-127687380D02*
X116324761Y-127735000D01*
X116324761Y-127735000D02*
X116372380Y-127782619D01*
X116800952Y-128163571D02*
X117134285Y-128163571D01*
X117277142Y-128687380D02*
X116800952Y-128687380D01*
X116800952Y-128687380D02*
X116800952Y-127687380D01*
X116800952Y-127687380D02*
X117277142Y-127687380D01*
X117658095Y-127782619D02*
X117705714Y-127735000D01*
X117705714Y-127735000D02*
X117800952Y-127687380D01*
X117800952Y-127687380D02*
X118039047Y-127687380D01*
X118039047Y-127687380D02*
X118134285Y-127735000D01*
X118134285Y-127735000D02*
X118181904Y-127782619D01*
X118181904Y-127782619D02*
X118229523Y-127877857D01*
X118229523Y-127877857D02*
X118229523Y-127973095D01*
X118229523Y-127973095D02*
X118181904Y-128115952D01*
X118181904Y-128115952D02*
X117610476Y-128687380D01*
X117610476Y-128687380D02*
X118229523Y-128687380D01*
X109362857Y-46407380D02*
X109981904Y-46407380D01*
X109981904Y-46407380D02*
X109648571Y-46788333D01*
X109648571Y-46788333D02*
X109791428Y-46788333D01*
X109791428Y-46788333D02*
X109886666Y-46835952D01*
X109886666Y-46835952D02*
X109934285Y-46883571D01*
X109934285Y-46883571D02*
X109981904Y-46978809D01*
X109981904Y-46978809D02*
X109981904Y-47216904D01*
X109981904Y-47216904D02*
X109934285Y-47312142D01*
X109934285Y-47312142D02*
X109886666Y-47359761D01*
X109886666Y-47359761D02*
X109791428Y-47407380D01*
X109791428Y-47407380D02*
X109505714Y-47407380D01*
X109505714Y-47407380D02*
X109410476Y-47359761D01*
X109410476Y-47359761D02*
X109362857Y-47312142D01*
X111010476Y-47026428D02*
X111772381Y-47026428D01*
X113372380Y-46455000D02*
X113277142Y-46407380D01*
X113277142Y-46407380D02*
X113134285Y-46407380D01*
X113134285Y-46407380D02*
X112991428Y-46455000D01*
X112991428Y-46455000D02*
X112896190Y-46550238D01*
X112896190Y-46550238D02*
X112848571Y-46645476D01*
X112848571Y-46645476D02*
X112800952Y-46835952D01*
X112800952Y-46835952D02*
X112800952Y-46978809D01*
X112800952Y-46978809D02*
X112848571Y-47169285D01*
X112848571Y-47169285D02*
X112896190Y-47264523D01*
X112896190Y-47264523D02*
X112991428Y-47359761D01*
X112991428Y-47359761D02*
X113134285Y-47407380D01*
X113134285Y-47407380D02*
X113229523Y-47407380D01*
X113229523Y-47407380D02*
X113372380Y-47359761D01*
X113372380Y-47359761D02*
X113419999Y-47312142D01*
X113419999Y-47312142D02*
X113419999Y-46978809D01*
X113419999Y-46978809D02*
X113229523Y-46978809D01*
X113848571Y-47407380D02*
X113848571Y-46407380D01*
X113848571Y-46407380D02*
X114419999Y-47407380D01*
X114419999Y-47407380D02*
X114419999Y-46407380D01*
X114896190Y-47407380D02*
X114896190Y-46407380D01*
X114896190Y-46407380D02*
X115134285Y-46407380D01*
X115134285Y-46407380D02*
X115277142Y-46455000D01*
X115277142Y-46455000D02*
X115372380Y-46550238D01*
X115372380Y-46550238D02*
X115419999Y-46645476D01*
X115419999Y-46645476D02*
X115467618Y-46835952D01*
X115467618Y-46835952D02*
X115467618Y-46978809D01*
X115467618Y-46978809D02*
X115419999Y-47169285D01*
X115419999Y-47169285D02*
X115372380Y-47264523D01*
X115372380Y-47264523D02*
X115277142Y-47359761D01*
X115277142Y-47359761D02*
X115134285Y-47407380D01*
X115134285Y-47407380D02*
X114896190Y-47407380D01*
X116781904Y-47788333D02*
X116734285Y-47740714D01*
X116734285Y-47740714D02*
X116639047Y-47597857D01*
X116639047Y-47597857D02*
X116591428Y-47502619D01*
X116591428Y-47502619D02*
X116543809Y-47359761D01*
X116543809Y-47359761D02*
X116496190Y-47121666D01*
X116496190Y-47121666D02*
X116496190Y-46931190D01*
X116496190Y-46931190D02*
X116543809Y-46693095D01*
X116543809Y-46693095D02*
X116591428Y-46550238D01*
X116591428Y-46550238D02*
X116639047Y-46455000D01*
X116639047Y-46455000D02*
X116734285Y-46312142D01*
X116734285Y-46312142D02*
X116781904Y-46264523D01*
X117020000Y-46407380D02*
X117353333Y-47407380D01*
X117353333Y-47407380D02*
X117686666Y-46407380D01*
X117972381Y-47359761D02*
X118115238Y-47407380D01*
X118115238Y-47407380D02*
X118353333Y-47407380D01*
X118353333Y-47407380D02*
X118448571Y-47359761D01*
X118448571Y-47359761D02*
X118496190Y-47312142D01*
X118496190Y-47312142D02*
X118543809Y-47216904D01*
X118543809Y-47216904D02*
X118543809Y-47121666D01*
X118543809Y-47121666D02*
X118496190Y-47026428D01*
X118496190Y-47026428D02*
X118448571Y-46978809D01*
X118448571Y-46978809D02*
X118353333Y-46931190D01*
X118353333Y-46931190D02*
X118162857Y-46883571D01*
X118162857Y-46883571D02*
X118067619Y-46835952D01*
X118067619Y-46835952D02*
X118020000Y-46788333D01*
X118020000Y-46788333D02*
X117972381Y-46693095D01*
X117972381Y-46693095D02*
X117972381Y-46597857D01*
X117972381Y-46597857D02*
X118020000Y-46502619D01*
X118020000Y-46502619D02*
X118067619Y-46455000D01*
X118067619Y-46455000D02*
X118162857Y-46407380D01*
X118162857Y-46407380D02*
X118400952Y-46407380D01*
X118400952Y-46407380D02*
X118543809Y-46455000D01*
X118924762Y-47359761D02*
X119067619Y-47407380D01*
X119067619Y-47407380D02*
X119305714Y-47407380D01*
X119305714Y-47407380D02*
X119400952Y-47359761D01*
X119400952Y-47359761D02*
X119448571Y-47312142D01*
X119448571Y-47312142D02*
X119496190Y-47216904D01*
X119496190Y-47216904D02*
X119496190Y-47121666D01*
X119496190Y-47121666D02*
X119448571Y-47026428D01*
X119448571Y-47026428D02*
X119400952Y-46978809D01*
X119400952Y-46978809D02*
X119305714Y-46931190D01*
X119305714Y-46931190D02*
X119115238Y-46883571D01*
X119115238Y-46883571D02*
X119020000Y-46835952D01*
X119020000Y-46835952D02*
X118972381Y-46788333D01*
X118972381Y-46788333D02*
X118924762Y-46693095D01*
X118924762Y-46693095D02*
X118924762Y-46597857D01*
X118924762Y-46597857D02*
X118972381Y-46502619D01*
X118972381Y-46502619D02*
X119020000Y-46455000D01*
X119020000Y-46455000D02*
X119115238Y-46407380D01*
X119115238Y-46407380D02*
X119353333Y-46407380D01*
X119353333Y-46407380D02*
X119496190Y-46455000D01*
X119829524Y-47788333D02*
X119877143Y-47740714D01*
X119877143Y-47740714D02*
X119972381Y-47597857D01*
X119972381Y-47597857D02*
X120020000Y-47502619D01*
X120020000Y-47502619D02*
X120067619Y-47359761D01*
X120067619Y-47359761D02*
X120115238Y-47121666D01*
X120115238Y-47121666D02*
X120115238Y-46931190D01*
X120115238Y-46931190D02*
X120067619Y-46693095D01*
X120067619Y-46693095D02*
X120020000Y-46550238D01*
X120020000Y-46550238D02*
X119972381Y-46455000D01*
X119972381Y-46455000D02*
X119877143Y-46312142D01*
X119877143Y-46312142D02*
X119829524Y-46264523D01*
X109600952Y-59535952D02*
X109505714Y-59488333D01*
X109505714Y-59488333D02*
X109458095Y-59440714D01*
X109458095Y-59440714D02*
X109410476Y-59345476D01*
X109410476Y-59345476D02*
X109410476Y-59297857D01*
X109410476Y-59297857D02*
X109458095Y-59202619D01*
X109458095Y-59202619D02*
X109505714Y-59155000D01*
X109505714Y-59155000D02*
X109600952Y-59107380D01*
X109600952Y-59107380D02*
X109791428Y-59107380D01*
X109791428Y-59107380D02*
X109886666Y-59155000D01*
X109886666Y-59155000D02*
X109934285Y-59202619D01*
X109934285Y-59202619D02*
X109981904Y-59297857D01*
X109981904Y-59297857D02*
X109981904Y-59345476D01*
X109981904Y-59345476D02*
X109934285Y-59440714D01*
X109934285Y-59440714D02*
X109886666Y-59488333D01*
X109886666Y-59488333D02*
X109791428Y-59535952D01*
X109791428Y-59535952D02*
X109600952Y-59535952D01*
X109600952Y-59535952D02*
X109505714Y-59583571D01*
X109505714Y-59583571D02*
X109458095Y-59631190D01*
X109458095Y-59631190D02*
X109410476Y-59726428D01*
X109410476Y-59726428D02*
X109410476Y-59916904D01*
X109410476Y-59916904D02*
X109458095Y-60012142D01*
X109458095Y-60012142D02*
X109505714Y-60059761D01*
X109505714Y-60059761D02*
X109600952Y-60107380D01*
X109600952Y-60107380D02*
X109791428Y-60107380D01*
X109791428Y-60107380D02*
X109886666Y-60059761D01*
X109886666Y-60059761D02*
X109934285Y-60012142D01*
X109934285Y-60012142D02*
X109981904Y-59916904D01*
X109981904Y-59916904D02*
X109981904Y-59726428D01*
X109981904Y-59726428D02*
X109934285Y-59631190D01*
X109934285Y-59631190D02*
X109886666Y-59583571D01*
X109886666Y-59583571D02*
X109791428Y-59535952D01*
X111010476Y-59726428D02*
X111772381Y-59726428D01*
X112800952Y-60059761D02*
X112943809Y-60107380D01*
X112943809Y-60107380D02*
X113181904Y-60107380D01*
X113181904Y-60107380D02*
X113277142Y-60059761D01*
X113277142Y-60059761D02*
X113324761Y-60012142D01*
X113324761Y-60012142D02*
X113372380Y-59916904D01*
X113372380Y-59916904D02*
X113372380Y-59821666D01*
X113372380Y-59821666D02*
X113324761Y-59726428D01*
X113324761Y-59726428D02*
X113277142Y-59678809D01*
X113277142Y-59678809D02*
X113181904Y-59631190D01*
X113181904Y-59631190D02*
X112991428Y-59583571D01*
X112991428Y-59583571D02*
X112896190Y-59535952D01*
X112896190Y-59535952D02*
X112848571Y-59488333D01*
X112848571Y-59488333D02*
X112800952Y-59393095D01*
X112800952Y-59393095D02*
X112800952Y-59297857D01*
X112800952Y-59297857D02*
X112848571Y-59202619D01*
X112848571Y-59202619D02*
X112896190Y-59155000D01*
X112896190Y-59155000D02*
X112991428Y-59107380D01*
X112991428Y-59107380D02*
X113229523Y-59107380D01*
X113229523Y-59107380D02*
X113372380Y-59155000D01*
X113800952Y-60107380D02*
X113800952Y-59107380D01*
X113800952Y-59583571D02*
X114372380Y-59583571D01*
X114372380Y-60107380D02*
X114372380Y-59107380D01*
X115419999Y-60107380D02*
X115086666Y-59631190D01*
X114848571Y-60107380D02*
X114848571Y-59107380D01*
X114848571Y-59107380D02*
X115229523Y-59107380D01*
X115229523Y-59107380D02*
X115324761Y-59155000D01*
X115324761Y-59155000D02*
X115372380Y-59202619D01*
X115372380Y-59202619D02*
X115419999Y-59297857D01*
X115419999Y-59297857D02*
X115419999Y-59440714D01*
X115419999Y-59440714D02*
X115372380Y-59535952D01*
X115372380Y-59535952D02*
X115324761Y-59583571D01*
X115324761Y-59583571D02*
X115229523Y-59631190D01*
X115229523Y-59631190D02*
X114848571Y-59631190D01*
X109410476Y-104922619D02*
X109458095Y-104875000D01*
X109458095Y-104875000D02*
X109553333Y-104827380D01*
X109553333Y-104827380D02*
X109791428Y-104827380D01*
X109791428Y-104827380D02*
X109886666Y-104875000D01*
X109886666Y-104875000D02*
X109934285Y-104922619D01*
X109934285Y-104922619D02*
X109981904Y-105017857D01*
X109981904Y-105017857D02*
X109981904Y-105113095D01*
X109981904Y-105113095D02*
X109934285Y-105255952D01*
X109934285Y-105255952D02*
X109362857Y-105827380D01*
X109362857Y-105827380D02*
X109981904Y-105827380D01*
X110839047Y-104827380D02*
X110648571Y-104827380D01*
X110648571Y-104827380D02*
X110553333Y-104875000D01*
X110553333Y-104875000D02*
X110505714Y-104922619D01*
X110505714Y-104922619D02*
X110410476Y-105065476D01*
X110410476Y-105065476D02*
X110362857Y-105255952D01*
X110362857Y-105255952D02*
X110362857Y-105636904D01*
X110362857Y-105636904D02*
X110410476Y-105732142D01*
X110410476Y-105732142D02*
X110458095Y-105779761D01*
X110458095Y-105779761D02*
X110553333Y-105827380D01*
X110553333Y-105827380D02*
X110743809Y-105827380D01*
X110743809Y-105827380D02*
X110839047Y-105779761D01*
X110839047Y-105779761D02*
X110886666Y-105732142D01*
X110886666Y-105732142D02*
X110934285Y-105636904D01*
X110934285Y-105636904D02*
X110934285Y-105398809D01*
X110934285Y-105398809D02*
X110886666Y-105303571D01*
X110886666Y-105303571D02*
X110839047Y-105255952D01*
X110839047Y-105255952D02*
X110743809Y-105208333D01*
X110743809Y-105208333D02*
X110553333Y-105208333D01*
X110553333Y-105208333D02*
X110458095Y-105255952D01*
X110458095Y-105255952D02*
X110410476Y-105303571D01*
X110410476Y-105303571D02*
X110362857Y-105398809D01*
X111962857Y-105446428D02*
X112724762Y-105446428D01*
X113800952Y-105827380D02*
X113800952Y-104827380D01*
X113800952Y-104827380D02*
X114372380Y-105827380D01*
X114372380Y-105827380D02*
X114372380Y-104827380D01*
X115419999Y-105732142D02*
X115372380Y-105779761D01*
X115372380Y-105779761D02*
X115229523Y-105827380D01*
X115229523Y-105827380D02*
X115134285Y-105827380D01*
X115134285Y-105827380D02*
X114991428Y-105779761D01*
X114991428Y-105779761D02*
X114896190Y-105684523D01*
X114896190Y-105684523D02*
X114848571Y-105589285D01*
X114848571Y-105589285D02*
X114800952Y-105398809D01*
X114800952Y-105398809D02*
X114800952Y-105255952D01*
X114800952Y-105255952D02*
X114848571Y-105065476D01*
X114848571Y-105065476D02*
X114896190Y-104970238D01*
X114896190Y-104970238D02*
X114991428Y-104875000D01*
X114991428Y-104875000D02*
X115134285Y-104827380D01*
X115134285Y-104827380D02*
X115229523Y-104827380D01*
X115229523Y-104827380D02*
X115372380Y-104875000D01*
X115372380Y-104875000D02*
X115419999Y-104922619D01*
X109410476Y-43962619D02*
X109458095Y-43915000D01*
X109458095Y-43915000D02*
X109553333Y-43867380D01*
X109553333Y-43867380D02*
X109791428Y-43867380D01*
X109791428Y-43867380D02*
X109886666Y-43915000D01*
X109886666Y-43915000D02*
X109934285Y-43962619D01*
X109934285Y-43962619D02*
X109981904Y-44057857D01*
X109981904Y-44057857D02*
X109981904Y-44153095D01*
X109981904Y-44153095D02*
X109934285Y-44295952D01*
X109934285Y-44295952D02*
X109362857Y-44867380D01*
X109362857Y-44867380D02*
X109981904Y-44867380D01*
X111010476Y-44486428D02*
X111772381Y-44486428D01*
X112705714Y-43867380D02*
X113039047Y-44867380D01*
X113039047Y-44867380D02*
X113372380Y-43867380D01*
X113705714Y-44867380D02*
X113705714Y-43867380D01*
X113705714Y-43867380D02*
X114086666Y-43867380D01*
X114086666Y-43867380D02*
X114181904Y-43915000D01*
X114181904Y-43915000D02*
X114229523Y-43962619D01*
X114229523Y-43962619D02*
X114277142Y-44057857D01*
X114277142Y-44057857D02*
X114277142Y-44200714D01*
X114277142Y-44200714D02*
X114229523Y-44295952D01*
X114229523Y-44295952D02*
X114181904Y-44343571D01*
X114181904Y-44343571D02*
X114086666Y-44391190D01*
X114086666Y-44391190D02*
X113705714Y-44391190D01*
X114896190Y-43867380D02*
X115086666Y-43867380D01*
X115086666Y-43867380D02*
X115181904Y-43915000D01*
X115181904Y-43915000D02*
X115277142Y-44010238D01*
X115277142Y-44010238D02*
X115324761Y-44200714D01*
X115324761Y-44200714D02*
X115324761Y-44534047D01*
X115324761Y-44534047D02*
X115277142Y-44724523D01*
X115277142Y-44724523D02*
X115181904Y-44819761D01*
X115181904Y-44819761D02*
X115086666Y-44867380D01*
X115086666Y-44867380D02*
X114896190Y-44867380D01*
X114896190Y-44867380D02*
X114800952Y-44819761D01*
X114800952Y-44819761D02*
X114705714Y-44724523D01*
X114705714Y-44724523D02*
X114658095Y-44534047D01*
X114658095Y-44534047D02*
X114658095Y-44200714D01*
X114658095Y-44200714D02*
X114705714Y-44010238D01*
X114705714Y-44010238D02*
X114800952Y-43915000D01*
X114800952Y-43915000D02*
X114896190Y-43867380D01*
X115705714Y-44819761D02*
X115848571Y-44867380D01*
X115848571Y-44867380D02*
X116086666Y-44867380D01*
X116086666Y-44867380D02*
X116181904Y-44819761D01*
X116181904Y-44819761D02*
X116229523Y-44772142D01*
X116229523Y-44772142D02*
X116277142Y-44676904D01*
X116277142Y-44676904D02*
X116277142Y-44581666D01*
X116277142Y-44581666D02*
X116229523Y-44486428D01*
X116229523Y-44486428D02*
X116181904Y-44438809D01*
X116181904Y-44438809D02*
X116086666Y-44391190D01*
X116086666Y-44391190D02*
X115896190Y-44343571D01*
X115896190Y-44343571D02*
X115800952Y-44295952D01*
X115800952Y-44295952D02*
X115753333Y-44248333D01*
X115753333Y-44248333D02*
X115705714Y-44153095D01*
X115705714Y-44153095D02*
X115705714Y-44057857D01*
X115705714Y-44057857D02*
X115753333Y-43962619D01*
X115753333Y-43962619D02*
X115800952Y-43915000D01*
X115800952Y-43915000D02*
X115896190Y-43867380D01*
X115896190Y-43867380D02*
X116134285Y-43867380D01*
X116134285Y-43867380D02*
X116277142Y-43915000D01*
X109410476Y-110002619D02*
X109458095Y-109955000D01*
X109458095Y-109955000D02*
X109553333Y-109907380D01*
X109553333Y-109907380D02*
X109791428Y-109907380D01*
X109791428Y-109907380D02*
X109886666Y-109955000D01*
X109886666Y-109955000D02*
X109934285Y-110002619D01*
X109934285Y-110002619D02*
X109981904Y-110097857D01*
X109981904Y-110097857D02*
X109981904Y-110193095D01*
X109981904Y-110193095D02*
X109934285Y-110335952D01*
X109934285Y-110335952D02*
X109362857Y-110907380D01*
X109362857Y-110907380D02*
X109981904Y-110907380D01*
X110553333Y-110335952D02*
X110458095Y-110288333D01*
X110458095Y-110288333D02*
X110410476Y-110240714D01*
X110410476Y-110240714D02*
X110362857Y-110145476D01*
X110362857Y-110145476D02*
X110362857Y-110097857D01*
X110362857Y-110097857D02*
X110410476Y-110002619D01*
X110410476Y-110002619D02*
X110458095Y-109955000D01*
X110458095Y-109955000D02*
X110553333Y-109907380D01*
X110553333Y-109907380D02*
X110743809Y-109907380D01*
X110743809Y-109907380D02*
X110839047Y-109955000D01*
X110839047Y-109955000D02*
X110886666Y-110002619D01*
X110886666Y-110002619D02*
X110934285Y-110097857D01*
X110934285Y-110097857D02*
X110934285Y-110145476D01*
X110934285Y-110145476D02*
X110886666Y-110240714D01*
X110886666Y-110240714D02*
X110839047Y-110288333D01*
X110839047Y-110288333D02*
X110743809Y-110335952D01*
X110743809Y-110335952D02*
X110553333Y-110335952D01*
X110553333Y-110335952D02*
X110458095Y-110383571D01*
X110458095Y-110383571D02*
X110410476Y-110431190D01*
X110410476Y-110431190D02*
X110362857Y-110526428D01*
X110362857Y-110526428D02*
X110362857Y-110716904D01*
X110362857Y-110716904D02*
X110410476Y-110812142D01*
X110410476Y-110812142D02*
X110458095Y-110859761D01*
X110458095Y-110859761D02*
X110553333Y-110907380D01*
X110553333Y-110907380D02*
X110743809Y-110907380D01*
X110743809Y-110907380D02*
X110839047Y-110859761D01*
X110839047Y-110859761D02*
X110886666Y-110812142D01*
X110886666Y-110812142D02*
X110934285Y-110716904D01*
X110934285Y-110716904D02*
X110934285Y-110526428D01*
X110934285Y-110526428D02*
X110886666Y-110431190D01*
X110886666Y-110431190D02*
X110839047Y-110383571D01*
X110839047Y-110383571D02*
X110743809Y-110335952D01*
X111962857Y-110526428D02*
X112724762Y-110526428D01*
X114324761Y-109955000D02*
X114229523Y-109907380D01*
X114229523Y-109907380D02*
X114086666Y-109907380D01*
X114086666Y-109907380D02*
X113943809Y-109955000D01*
X113943809Y-109955000D02*
X113848571Y-110050238D01*
X113848571Y-110050238D02*
X113800952Y-110145476D01*
X113800952Y-110145476D02*
X113753333Y-110335952D01*
X113753333Y-110335952D02*
X113753333Y-110478809D01*
X113753333Y-110478809D02*
X113800952Y-110669285D01*
X113800952Y-110669285D02*
X113848571Y-110764523D01*
X113848571Y-110764523D02*
X113943809Y-110859761D01*
X113943809Y-110859761D02*
X114086666Y-110907380D01*
X114086666Y-110907380D02*
X114181904Y-110907380D01*
X114181904Y-110907380D02*
X114324761Y-110859761D01*
X114324761Y-110859761D02*
X114372380Y-110812142D01*
X114372380Y-110812142D02*
X114372380Y-110478809D01*
X114372380Y-110478809D02*
X114181904Y-110478809D01*
X114800952Y-110907380D02*
X114800952Y-109907380D01*
X114800952Y-109907380D02*
X115134285Y-110621666D01*
X115134285Y-110621666D02*
X115467618Y-109907380D01*
X115467618Y-109907380D02*
X115467618Y-110907380D01*
X116134285Y-109907380D02*
X116324761Y-109907380D01*
X116324761Y-109907380D02*
X116419999Y-109955000D01*
X116419999Y-109955000D02*
X116515237Y-110050238D01*
X116515237Y-110050238D02*
X116562856Y-110240714D01*
X116562856Y-110240714D02*
X116562856Y-110574047D01*
X116562856Y-110574047D02*
X116515237Y-110764523D01*
X116515237Y-110764523D02*
X116419999Y-110859761D01*
X116419999Y-110859761D02*
X116324761Y-110907380D01*
X116324761Y-110907380D02*
X116134285Y-110907380D01*
X116134285Y-110907380D02*
X116039047Y-110859761D01*
X116039047Y-110859761D02*
X115943809Y-110764523D01*
X115943809Y-110764523D02*
X115896190Y-110574047D01*
X115896190Y-110574047D02*
X115896190Y-110240714D01*
X115896190Y-110240714D02*
X115943809Y-110050238D01*
X115943809Y-110050238D02*
X116039047Y-109955000D01*
X116039047Y-109955000D02*
X116134285Y-109907380D01*
X116991428Y-110907380D02*
X116991428Y-109907380D01*
X116991428Y-109907380D02*
X117229523Y-109907380D01*
X117229523Y-109907380D02*
X117372380Y-109955000D01*
X117372380Y-109955000D02*
X117467618Y-110050238D01*
X117467618Y-110050238D02*
X117515237Y-110145476D01*
X117515237Y-110145476D02*
X117562856Y-110335952D01*
X117562856Y-110335952D02*
X117562856Y-110478809D01*
X117562856Y-110478809D02*
X117515237Y-110669285D01*
X117515237Y-110669285D02*
X117467618Y-110764523D01*
X117467618Y-110764523D02*
X117372380Y-110859761D01*
X117372380Y-110859761D02*
X117229523Y-110907380D01*
X117229523Y-110907380D02*
X116991428Y-110907380D01*
X117991428Y-110383571D02*
X118324761Y-110383571D01*
X118467618Y-110907380D02*
X117991428Y-110907380D01*
X117991428Y-110907380D02*
X117991428Y-109907380D01*
X117991428Y-109907380D02*
X118467618Y-109907380D01*
X119419999Y-110907380D02*
X118848571Y-110907380D01*
X119134285Y-110907380D02*
X119134285Y-109907380D01*
X119134285Y-109907380D02*
X119039047Y-110050238D01*
X119039047Y-110050238D02*
X118943809Y-110145476D01*
X118943809Y-110145476D02*
X118848571Y-110193095D01*
X138228571Y-93735237D02*
X138228571Y-93401904D01*
X138752380Y-93259047D02*
X138752380Y-93735237D01*
X138752380Y-93735237D02*
X137752380Y-93735237D01*
X137752380Y-93735237D02*
X137752380Y-93259047D01*
X138752380Y-92830475D02*
X137752380Y-92830475D01*
X137752380Y-92830475D02*
X137752380Y-92592380D01*
X137752380Y-92592380D02*
X137800000Y-92449523D01*
X137800000Y-92449523D02*
X137895238Y-92354285D01*
X137895238Y-92354285D02*
X137990476Y-92306666D01*
X137990476Y-92306666D02*
X138180952Y-92259047D01*
X138180952Y-92259047D02*
X138323809Y-92259047D01*
X138323809Y-92259047D02*
X138514285Y-92306666D01*
X138514285Y-92306666D02*
X138609523Y-92354285D01*
X138609523Y-92354285D02*
X138704761Y-92449523D01*
X138704761Y-92449523D02*
X138752380Y-92592380D01*
X138752380Y-92592380D02*
X138752380Y-92830475D01*
X137752380Y-91639999D02*
X137752380Y-91544761D01*
X137752380Y-91544761D02*
X137800000Y-91449523D01*
X137800000Y-91449523D02*
X137847619Y-91401904D01*
X137847619Y-91401904D02*
X137942857Y-91354285D01*
X137942857Y-91354285D02*
X138133333Y-91306666D01*
X138133333Y-91306666D02*
X138371428Y-91306666D01*
X138371428Y-91306666D02*
X138561904Y-91354285D01*
X138561904Y-91354285D02*
X138657142Y-91401904D01*
X138657142Y-91401904D02*
X138704761Y-91449523D01*
X138704761Y-91449523D02*
X138752380Y-91544761D01*
X138752380Y-91544761D02*
X138752380Y-91639999D01*
X138752380Y-91639999D02*
X138704761Y-91735237D01*
X138704761Y-91735237D02*
X138657142Y-91782856D01*
X138657142Y-91782856D02*
X138561904Y-91830475D01*
X138561904Y-91830475D02*
X138371428Y-91878094D01*
X138371428Y-91878094D02*
X138133333Y-91878094D01*
X138133333Y-91878094D02*
X137942857Y-91830475D01*
X137942857Y-91830475D02*
X137847619Y-91782856D01*
X137847619Y-91782856D02*
X137800000Y-91735237D01*
X137800000Y-91735237D02*
X137752380Y-91639999D01*
X137752380Y-90449523D02*
X137752380Y-90639999D01*
X137752380Y-90639999D02*
X137800000Y-90735237D01*
X137800000Y-90735237D02*
X137847619Y-90782856D01*
X137847619Y-90782856D02*
X137990476Y-90878094D01*
X137990476Y-90878094D02*
X138180952Y-90925713D01*
X138180952Y-90925713D02*
X138561904Y-90925713D01*
X138561904Y-90925713D02*
X138657142Y-90878094D01*
X138657142Y-90878094D02*
X138704761Y-90830475D01*
X138704761Y-90830475D02*
X138752380Y-90735237D01*
X138752380Y-90735237D02*
X138752380Y-90544761D01*
X138752380Y-90544761D02*
X138704761Y-90449523D01*
X138704761Y-90449523D02*
X138657142Y-90401904D01*
X138657142Y-90401904D02*
X138561904Y-90354285D01*
X138561904Y-90354285D02*
X138323809Y-90354285D01*
X138323809Y-90354285D02*
X138228571Y-90401904D01*
X138228571Y-90401904D02*
X138180952Y-90449523D01*
X138180952Y-90449523D02*
X138133333Y-90544761D01*
X138133333Y-90544761D02*
X138133333Y-90735237D01*
X138133333Y-90735237D02*
X138180952Y-90830475D01*
X138180952Y-90830475D02*
X138228571Y-90878094D01*
X138228571Y-90878094D02*
X138323809Y-90925713D01*
X137752380Y-89735237D02*
X137752380Y-89639999D01*
X137752380Y-89639999D02*
X137800000Y-89544761D01*
X137800000Y-89544761D02*
X137847619Y-89497142D01*
X137847619Y-89497142D02*
X137942857Y-89449523D01*
X137942857Y-89449523D02*
X138133333Y-89401904D01*
X138133333Y-89401904D02*
X138371428Y-89401904D01*
X138371428Y-89401904D02*
X138561904Y-89449523D01*
X138561904Y-89449523D02*
X138657142Y-89497142D01*
X138657142Y-89497142D02*
X138704761Y-89544761D01*
X138704761Y-89544761D02*
X138752380Y-89639999D01*
X138752380Y-89639999D02*
X138752380Y-89735237D01*
X138752380Y-89735237D02*
X138704761Y-89830475D01*
X138704761Y-89830475D02*
X138657142Y-89878094D01*
X138657142Y-89878094D02*
X138561904Y-89925713D01*
X138561904Y-89925713D02*
X138371428Y-89973332D01*
X138371428Y-89973332D02*
X138133333Y-89973332D01*
X138133333Y-89973332D02*
X137942857Y-89925713D01*
X137942857Y-89925713D02*
X137847619Y-89878094D01*
X137847619Y-89878094D02*
X137800000Y-89830475D01*
X137800000Y-89830475D02*
X137752380Y-89735237D01*
X138704761Y-89020951D02*
X138752380Y-88878094D01*
X138752380Y-88878094D02*
X138752380Y-88639999D01*
X138752380Y-88639999D02*
X138704761Y-88544761D01*
X138704761Y-88544761D02*
X138657142Y-88497142D01*
X138657142Y-88497142D02*
X138561904Y-88449523D01*
X138561904Y-88449523D02*
X138466666Y-88449523D01*
X138466666Y-88449523D02*
X138371428Y-88497142D01*
X138371428Y-88497142D02*
X138323809Y-88544761D01*
X138323809Y-88544761D02*
X138276190Y-88639999D01*
X138276190Y-88639999D02*
X138228571Y-88830475D01*
X138228571Y-88830475D02*
X138180952Y-88925713D01*
X138180952Y-88925713D02*
X138133333Y-88973332D01*
X138133333Y-88973332D02*
X138038095Y-89020951D01*
X138038095Y-89020951D02*
X137942857Y-89020951D01*
X137942857Y-89020951D02*
X137847619Y-88973332D01*
X137847619Y-88973332D02*
X137800000Y-88925713D01*
X137800000Y-88925713D02*
X137752380Y-88830475D01*
X137752380Y-88830475D02*
X137752380Y-88592380D01*
X137752380Y-88592380D02*
X137800000Y-88449523D01*
X138657142Y-87449523D02*
X138704761Y-87497142D01*
X138704761Y-87497142D02*
X138752380Y-87639999D01*
X138752380Y-87639999D02*
X138752380Y-87735237D01*
X138752380Y-87735237D02*
X138704761Y-87878094D01*
X138704761Y-87878094D02*
X138609523Y-87973332D01*
X138609523Y-87973332D02*
X138514285Y-88020951D01*
X138514285Y-88020951D02*
X138323809Y-88068570D01*
X138323809Y-88068570D02*
X138180952Y-88068570D01*
X138180952Y-88068570D02*
X137990476Y-88020951D01*
X137990476Y-88020951D02*
X137895238Y-87973332D01*
X137895238Y-87973332D02*
X137800000Y-87878094D01*
X137800000Y-87878094D02*
X137752380Y-87735237D01*
X137752380Y-87735237D02*
X137752380Y-87639999D01*
X137752380Y-87639999D02*
X137800000Y-87497142D01*
X137800000Y-87497142D02*
X137847619Y-87449523D01*
X138085714Y-86592380D02*
X138752380Y-86592380D01*
X137704761Y-86830475D02*
X138419047Y-87068570D01*
X138419047Y-87068570D02*
X138419047Y-86449523D01*
X135080476Y-134987380D02*
X135080476Y-133987380D01*
X135080476Y-133987380D02*
X135413809Y-134701666D01*
X135413809Y-134701666D02*
X135747142Y-133987380D01*
X135747142Y-133987380D02*
X135747142Y-134987380D01*
X136128095Y-133987380D02*
X136747142Y-133987380D01*
X136747142Y-133987380D02*
X136413809Y-134368333D01*
X136413809Y-134368333D02*
X136556666Y-134368333D01*
X136556666Y-134368333D02*
X136651904Y-134415952D01*
X136651904Y-134415952D02*
X136699523Y-134463571D01*
X136699523Y-134463571D02*
X136747142Y-134558809D01*
X136747142Y-134558809D02*
X136747142Y-134796904D01*
X136747142Y-134796904D02*
X136699523Y-134892142D01*
X136699523Y-134892142D02*
X136651904Y-134939761D01*
X136651904Y-134939761D02*
X136556666Y-134987380D01*
X136556666Y-134987380D02*
X136270952Y-134987380D01*
X136270952Y-134987380D02*
X136175714Y-134939761D01*
X136175714Y-134939761D02*
X136128095Y-134892142D01*
X135080476Y-46722380D02*
X135080476Y-45722380D01*
X135080476Y-45722380D02*
X135413809Y-46436666D01*
X135413809Y-46436666D02*
X135747142Y-45722380D01*
X135747142Y-45722380D02*
X135747142Y-46722380D01*
X136128095Y-45722380D02*
X136747142Y-45722380D01*
X136747142Y-45722380D02*
X136413809Y-46103333D01*
X136413809Y-46103333D02*
X136556666Y-46103333D01*
X136556666Y-46103333D02*
X136651904Y-46150952D01*
X136651904Y-46150952D02*
X136699523Y-46198571D01*
X136699523Y-46198571D02*
X136747142Y-46293809D01*
X136747142Y-46293809D02*
X136747142Y-46531904D01*
X136747142Y-46531904D02*
X136699523Y-46627142D01*
X136699523Y-46627142D02*
X136651904Y-46674761D01*
X136651904Y-46674761D02*
X136556666Y-46722380D01*
X136556666Y-46722380D02*
X136270952Y-46722380D01*
X136270952Y-46722380D02*
X136175714Y-46674761D01*
X136175714Y-46674761D02*
X136128095Y-46627142D01*
D12*
X132330000Y-96770000D02*
X132330000Y-96170000D01*
X133880000Y-96770000D02*
X132330000Y-96770000D01*
X132330000Y-83570000D02*
X132330000Y-84170000D01*
X133880000Y-83570000D02*
X132330000Y-83570000D01*
D11*
X136080000Y-95920000D02*
G75*
G03*
X136080000Y-95920000I-100000J0D01*
G01*
D13*
X105604000Y-40620000D02*
X106934000Y-40620000D01*
X105604000Y-41950000D02*
X105604000Y-40620000D01*
X105604000Y-43220000D02*
X105604000Y-139800000D01*
X105604000Y-43220000D02*
X108264000Y-43220000D01*
X105604000Y-139800000D02*
X108264000Y-139800000D01*
X108264000Y-43220000D02*
X108264000Y-139800000D01*
%LPC*%
D14*
X135079999Y-95869999D03*
D15*
X132079999Y-95569999D03*
D14*
X135079999Y-95269999D03*
D15*
X132079999Y-94969999D03*
D14*
X135079999Y-94669999D03*
D15*
X132079999Y-94369999D03*
D14*
X135079999Y-94069999D03*
D15*
X132079999Y-93769999D03*
D14*
X135079999Y-93469999D03*
D15*
X132079999Y-93169999D03*
D14*
X135079999Y-92869999D03*
D15*
X132079999Y-92569999D03*
D14*
X135079999Y-92269999D03*
D15*
X132079999Y-91969999D03*
D14*
X135079999Y-91669999D03*
D15*
X132079999Y-91369999D03*
D14*
X135079999Y-91069999D03*
D15*
X132079999Y-90769999D03*
D14*
X135079999Y-90469999D03*
D15*
X132079999Y-90169999D03*
D14*
X135079999Y-89869999D03*
D15*
X132079999Y-89569999D03*
D14*
X135079999Y-89269999D03*
D15*
X132079999Y-88969999D03*
D14*
X135079999Y-88669999D03*
D15*
X132079999Y-88369999D03*
D14*
X135079999Y-88069999D03*
D15*
X132079999Y-87769999D03*
D14*
X135079999Y-87469999D03*
D15*
X132079999Y-87169999D03*
D14*
X135079999Y-86869999D03*
D15*
X132079999Y-86569999D03*
D14*
X135079999Y-86269999D03*
D15*
X132079999Y-85969999D03*
D14*
X135079999Y-85669999D03*
D15*
X132079999Y-85369999D03*
D14*
X135079999Y-85069999D03*
D15*
X132079999Y-84769999D03*
D14*
X135079999Y-84469999D03*
D16*
X134804999Y-96569999D03*
X134804999Y-83769999D03*
D17*
X135890000Y-137160000D03*
X135890000Y-43180000D03*
D18*
X106933999Y-41949999D03*
D19*
X106933999Y-44489999D03*
X106933999Y-47029999D03*
X106933999Y-49569999D03*
X106933999Y-52109999D03*
X106933999Y-54649999D03*
X106933999Y-57189999D03*
X106933999Y-59729999D03*
X106933999Y-62269999D03*
X106933999Y-64809999D03*
X106933999Y-67349999D03*
X106933999Y-69889999D03*
X106933999Y-72429999D03*
X106933999Y-74969999D03*
X106933999Y-77509999D03*
X106933999Y-80049999D03*
X106933999Y-82589999D03*
X106933999Y-85129999D03*
X106933999Y-87669999D03*
X106933999Y-90209999D03*
X106933999Y-92749999D03*
X106933999Y-95289999D03*
X106933999Y-97829999D03*
X106933999Y-100369999D03*
X106933999Y-102909999D03*
X106933999Y-105449999D03*
X106933999Y-107989999D03*
X106933999Y-110529999D03*
X106933999Y-113069999D03*
X106933999Y-115609999D03*
X106933999Y-118149999D03*
X106933999Y-120689999D03*
X106933999Y-123229999D03*
X106933999Y-125769999D03*
X106933999Y-128309999D03*
X106933999Y-130849999D03*
X106933999Y-133389999D03*
X106933999Y-135929999D03*
X106933999Y-138469999D03*
M02*
