M48
; DRILL file {KiCad (7.0.0)} date Sat 01 Apr 2023 01:03:20 AM CEST
; FORMAT={-:-/ absolute / metric / decimal}
; #@! TF.CreationDate,2023-04-01T01:03:20+02:00
; #@! TF.GenerationSoftware,Kicad,Pcbnew,(7.0.0)
; #@! TF.FileFunction,Plated,1,2,PTH
FMAT,2
METRIC
; #@! TA.AperFunction,Plated,PTH,ViaDrill
T1C0.300
; #@! TA.AperFunction,Plated,PTH,ComponentDrill
T2C1.000
%
G90
G05
T1
X109.22Y-73.66
X112.395Y-78.74
X112.395Y-80.645
X112.395Y-81.915
X116.205Y-83.185
X116.205Y-84.455
X118.11Y-112.395
X120.015Y-113.03
X120.65Y-114.935
X123.276Y-108.388
X123.785Y-102.798
X124.276Y-96.714
X124.276Y-97.518
X125.252Y-95.998
X126.136Y-94.024
X126.341Y-93.043
X127.443Y-92.039
X127.546Y-93.819
X127.701Y-91.057
X127.747Y-89.407
X128.171Y-88.688
X128.199Y-91.978
X128.2Y-92.726
X130.615Y-98.33
X131.401Y-98.347
X132.468Y-98.335
X132.715Y-67.31
X133.62Y-98.33
X135.231Y-98.347
T2
X106.934Y-41.95
X106.934Y-44.49
X106.934Y-47.03
X106.934Y-49.57
X106.934Y-52.11
X106.934Y-54.65
X106.934Y-57.19
X106.934Y-59.73
X106.934Y-62.27
X106.934Y-64.81
X106.934Y-67.35
X106.934Y-69.89
X106.934Y-72.43
X106.934Y-74.97
X106.934Y-77.51
X106.934Y-80.05
X106.934Y-82.59
X106.934Y-85.13
X106.934Y-87.67
X106.934Y-90.21
X106.934Y-92.75
X106.934Y-95.29
X106.934Y-97.83
X106.934Y-100.37
X106.934Y-102.91
X106.934Y-105.45
X106.934Y-107.99
X106.934Y-110.53
X106.934Y-113.07
X106.934Y-115.61
X106.934Y-118.15
X106.934Y-120.69
X106.934Y-123.23
X106.934Y-125.77
X106.934Y-128.31
X106.934Y-130.85
X106.934Y-133.39
X106.934Y-135.93
X106.934Y-138.47
T0
M30
